<svg width="334" height="122" viewBox="0 0 334 122" fill="none" xmlns="http://www.w3.org/2000/svg">
<path d="M277.898 0.445312L-232.74 0.482537L-266.551 121.559L244.184 121.564L277.898 0.445312Z" fill="white"/>
<path d="M57.4069 74.9062L54.5669 46.3062H60.3669L61.2069 60.5062C61.3669 63.1862 61.3269 66.8262 61.3269 66.8262H61.4069C61.4069 66.8262 62.7269 63.2662 63.8069 60.5462L69.4869 46.3062H74.8869L75.5669 60.5062C75.6869 63.0662 75.7269 66.8262 75.7269 66.8262H75.8069C75.8069 66.8262 77.2469 63.0662 78.3269 60.4662L84.2469 46.3062H89.8869L77.0869 74.9062H71.7669L70.9269 59.5062C70.8069 57.2262 70.8069 54.2262 70.8069 54.2262H70.7269C70.7269 54.2262 69.8069 57.1462 68.8469 59.5062L62.6469 74.9062H57.4069ZM105.154 66.1462H90.8741C90.8741 69.3862 91.9541 71.3462 95.0741 71.3462C96.9541 71.3462 98.5141 70.5462 99.2741 68.7862H104.554C103.914 70.7062 102.834 72.2663 101.394 73.3862C99.6741 74.7462 97.4741 75.4663 94.9941 75.5063C89.6741 75.5063 85.5541 72.5462 85.5541 66.0662C85.5541 60.1062 89.9141 53.8262 96.5541 53.8262C98.7941 53.8262 100.354 54.2662 101.714 55.1462C104.794 57.1462 105.914 61.2262 105.154 66.1462ZM96.4341 57.9862C93.5941 57.9862 92.0741 60.0262 91.3541 62.4262H100.194C100.274 60.0262 99.1941 57.9862 96.4341 57.9862ZM117.923 75.5063C115.363 75.5063 112.883 74.5062 111.723 71.9062H111.643L111.083 74.9062H105.923L111.443 46.3062H116.803L114.763 56.7862H114.883C116.243 55.1062 118.243 53.8262 120.763 53.8262C125.323 53.8262 127.923 57.4262 127.923 62.4662C127.923 69.0662 124.763 75.5063 117.923 75.5063ZM112.963 66.2662C112.963 68.7862 114.203 70.9862 117.163 70.9862C121.043 70.9862 122.403 66.5462 122.403 62.8662C122.403 60.4662 121.523 58.1862 118.603 58.1862C114.643 58.1862 112.963 62.7062 112.963 66.2662ZM152.9 74.9062L152.1 68.7862H142.22L139.34 74.9062H133.54L148.18 46.3062H154.1L158.82 74.9062H152.9ZM148.18 56.2662L144.3 64.3862H151.54L150.54 56.3462C150.34 54.7063 150.18 51.7862 150.18 51.7862H150.1C150.1 51.7862 148.9 54.7462 148.18 56.2662ZM159.252 81.6263L164.532 54.3862H169.692L169.212 56.9062H169.332C170.772 55.0662 172.852 53.8262 175.612 53.8262C180.212 53.8262 182.692 57.6662 182.692 62.7862C182.692 68.5862 179.732 75.5063 172.572 75.5063C170.092 75.5063 167.732 74.4262 166.572 72.0262H166.492L164.612 81.6263H159.252ZM167.572 66.3062C167.572 68.7862 168.852 71.0262 171.772 71.0262C175.812 71.0262 177.212 66.7462 177.212 62.9862C177.212 60.5862 176.212 58.1862 173.292 58.1862C169.452 58.1862 167.572 62.5862 167.572 66.3062ZM181.712 81.6263L186.993 54.3862H192.153L191.673 56.9062H191.793C193.233 55.0662 195.313 53.8262 198.073 53.8262C202.673 53.8262 205.153 57.6662 205.153 62.7862C205.153 68.5862 202.193 75.5063 195.033 75.5063C192.553 75.5063 190.193 74.4262 189.033 72.0262H188.953L187.073 81.6263H181.712ZM190.033 66.3062C190.033 68.7862 191.313 71.0262 194.233 71.0262C198.273 71.0262 199.673 66.7462 199.673 62.9862C199.673 60.5862 198.673 58.1862 195.753 58.1862C191.913 58.1862 190.033 62.5862 190.033 66.3062Z" fill="black"/>
</svg>
