<svg width="334" height="122" viewBox="0 0 334 122" fill="none" xmlns="http://www.w3.org/2000/svg">
<path d="M212.183 0.804688L-232.798 0.843458L-266.609 121.92L178.469 121.923L212.183 0.804688Z" fill="white"/>
<path d="M54.1883 51.5056L55.1083 46.6656H77.3483L76.4283 51.5056H68.1483L63.5483 75.2656H57.8283L62.4283 51.5056H54.1883ZM79.8283 54.7456L79.1883 58.0256H79.3083C80.5083 55.9856 82.1483 54.5056 84.7083 54.5056C85.4683 54.5056 85.9483 54.5856 86.2283 54.6656L85.3083 59.3856H85.1883C81.4683 58.9056 78.8683 60.6256 77.9883 65.2656L76.0683 75.2656H70.7083L74.6683 54.7456H79.8283ZM84.6145 75.2656L88.5745 54.7456H93.9345L89.9745 75.2656H84.6145ZM89.2145 51.5456L90.1345 46.6656H95.4945L94.5745 51.5456H89.2145ZM98.9283 75.2656L95.5283 54.7456H100.968L102.248 65.1056C102.528 67.3456 102.608 68.7856 102.608 68.7856H102.688C102.688 68.7856 103.208 67.3456 104.168 65.3856L109.128 54.7456H114.488L104.048 75.2656H98.9283ZM112.31 75.2656L116.27 54.7456H121.63L117.67 75.2656H112.31ZM116.91 51.5456L117.83 46.6656H123.19L122.27 51.5456H116.91ZM133.899 75.2656C133.659 74.8256 133.579 73.9456 133.619 73.0256H133.539C132.299 74.3456 130.779 75.7456 127.819 75.7456C124.659 75.7456 121.299 73.9456 121.299 69.7056C121.299 64.2656 125.619 63.2656 130.619 62.8656C134.459 62.5456 135.939 62.3856 135.939 60.3456C135.939 58.8656 134.779 58.0656 132.739 58.0656C130.499 58.0656 129.019 58.9456 128.539 60.9856H123.739C124.419 56.7856 127.659 54.2256 132.939 54.2256C138.019 54.2256 141.859 56.4256 140.739 62.3856L138.819 72.2256C138.539 73.6256 138.659 74.5856 138.979 75.0656V75.2656H133.899ZM126.459 69.2256C126.459 71.0656 127.739 72.0256 129.539 72.0256C132.339 72.0256 134.139 70.2656 134.539 68.3856L135.179 65.1456C134.139 65.6256 133.019 65.8656 131.259 66.1856C129.299 66.5456 126.459 66.4256 126.459 69.2256Z" fill="black"/>
</svg>
