<svg width="280" height="53" viewBox="0 0 280 53" fill="none" xmlns="http://www.w3.org/2000/svg">
<path d="M279.126 0.5L15.5105 0.503825L0.902344 52.7465L264.56 52.761L279.126 0.5Z" fill="white"/>
<path d="M52.828 36.1328V17.5328H61.528C64.853 17.5328 67.103 19.5828 67.103 22.6578C67.103 24.9328 66.178 26.5328 63.703 27.3078V27.3828C65.803 28.0078 66.403 29.2578 66.578 31.9328C66.803 34.8578 67.053 35.7578 67.428 36.0078V36.1328H64.703C64.278 35.7828 64.228 34.9328 64.028 31.9578C63.853 29.3328 62.753 28.3828 60.328 28.3828H55.378V36.1328H52.828ZM55.378 19.7328V26.3328H60.703C63.228 26.3328 64.478 25.0578 64.478 23.0328C64.478 20.8578 63.453 19.7328 60.828 19.7328H55.378ZM75.7108 36.5078C71.5858 36.5078 69.1608 33.3578 69.1608 29.4328C69.1608 25.5328 71.7358 22.3828 75.5858 22.3828C77.5858 22.3828 79.1358 23.1578 80.1858 24.4578C81.2858 25.7828 81.8358 27.7078 81.8358 29.9828H71.5358C71.7108 32.6078 73.1358 34.6078 75.7358 34.6078C77.5858 34.6078 78.8608 33.7328 79.2858 32.3078H81.5608C80.9608 34.8078 78.8108 36.5078 75.7108 36.5078ZM75.5858 24.1828C73.1608 24.1828 71.8858 25.9328 71.5858 28.3078H79.3608C79.2358 25.7328 77.9108 24.1828 75.5858 24.1828ZM88.3145 36.4078C85.7645 36.4078 83.7645 35.1578 83.7645 32.5828C83.7645 29.4578 86.0645 28.7828 89.5395 28.3578C91.5145 28.1328 92.7895 27.8078 92.7895 26.4328C92.7895 24.9828 91.7645 24.0828 89.9145 24.0828C87.7895 24.0828 86.7645 25.0828 86.6895 26.6828H84.4395C84.5395 24.4078 86.2645 22.3828 89.8895 22.3828C91.1645 22.3828 92.2895 22.6078 93.1395 23.1078C94.2645 23.7828 94.9395 24.9578 94.9395 26.7578V33.0328C94.9395 34.1078 95.1895 34.6828 96.3645 34.4328H96.4645V36.0578C96.1395 36.1578 95.7645 36.2578 95.2145 36.2578C93.7895 36.2578 93.0895 35.5828 92.8395 34.1578H92.8145C91.9645 35.3328 90.5895 36.4078 88.3145 36.4078ZM88.8895 34.7078C91.5645 34.7078 92.8145 32.7328 92.8145 31.1828V28.9828C92.1395 29.4078 90.9645 29.7328 89.8645 29.9328C87.6645 30.3078 86.2145 30.7078 86.2145 32.5578C86.2145 34.2828 87.5395 34.7078 88.8895 34.7078ZM104.178 36.5078C100.153 36.5078 97.6276 33.3578 97.6276 29.4328C97.6276 25.5328 100.153 22.3828 104.178 22.3828C107.403 22.3828 109.503 24.2078 109.978 27.0828H107.653C107.328 25.3328 106.128 24.2578 104.178 24.2578C101.428 24.2578 100.003 26.5328 100.003 29.4328C100.003 32.3328 101.428 34.6078 104.178 34.6078C106.278 34.6078 107.528 33.3828 107.703 31.3828H110.003C109.703 34.5828 107.578 36.5078 104.178 36.5078ZM111.517 24.5078V22.7078H113.617V18.4828H115.917V22.7078H118.692V24.5078H115.917V32.9828C115.917 33.9578 116.442 34.2328 117.292 34.2328C117.692 34.2328 118.217 34.1328 118.467 34.0578H118.542V36.0078C117.917 36.1578 117.267 36.2328 116.667 36.2328C114.867 36.2078 113.617 35.4828 113.617 33.5078V24.5078H111.517ZM121.057 20.2328V17.5328H123.482V20.2328H121.057ZM121.107 36.1328V22.7078H123.432V36.1328H121.107ZM132.474 36.5078C128.424 36.5078 125.899 33.3578 125.899 29.4328C125.899 25.5328 128.424 22.3828 132.474 22.3828C136.524 22.3828 138.999 25.5328 138.999 29.4328C138.999 33.3578 136.524 36.5078 132.474 36.5078ZM132.449 34.6078C135.199 34.6078 136.624 32.3328 136.624 29.4328C136.624 26.5328 135.199 24.2328 132.449 24.2328C129.699 24.2328 128.274 26.5328 128.274 29.4328C128.274 32.3328 129.699 34.6078 132.449 34.6078ZM143.768 22.7078V24.6078H143.843C144.818 23.2578 146.143 22.3828 148.093 22.3828C150.893 22.3828 152.618 23.9578 152.618 26.7578V36.1328H150.318V27.0328C150.318 25.3078 149.193 24.3328 147.368 24.3328C145.293 24.3328 143.793 25.8078 143.793 27.9578V36.1328H141.468V22.7078H143.768ZM177.241 36.1328L176.566 33.5078H176.491C175.166 35.5328 173.166 36.5328 170.741 36.5328C168.141 36.5328 165.966 35.5328 164.441 33.8328C162.891 32.1328 162.016 29.7328 162.016 26.9078C162.016 24.1078 162.841 21.6328 164.391 19.8828C165.891 18.1828 168.091 17.1578 170.966 17.1578C175.341 17.1578 177.866 19.5078 178.566 22.9328H175.916C175.366 20.8328 173.791 19.3578 170.941 19.3578C166.591 19.3578 164.616 22.6328 164.616 26.9078C164.616 31.3328 167.191 34.3078 170.866 34.3078C174.566 34.3078 176.316 31.8078 176.341 28.8578V28.4578H170.941V26.2828H178.866V36.1328H177.241ZM185.922 36.4078C183.372 36.4078 181.372 35.1578 181.372 32.5828C181.372 29.4578 183.672 28.7828 187.147 28.3578C189.122 28.1328 190.397 27.8078 190.397 26.4328C190.397 24.9828 189.372 24.0828 187.522 24.0828C185.397 24.0828 184.372 25.0828 184.297 26.6828H182.047C182.147 24.4078 183.872 22.3828 187.497 22.3828C188.772 22.3828 189.897 22.6078 190.747 23.1078C191.872 23.7828 192.547 24.9578 192.547 26.7578V33.0328C192.547 34.1078 192.797 34.6828 193.972 34.4328H194.072V36.0578C193.747 36.1578 193.372 36.2578 192.822 36.2578C191.397 36.2578 190.697 35.5828 190.447 34.1578H190.422C189.572 35.3328 188.197 36.4078 185.922 36.4078ZM186.497 34.7078C189.172 34.7078 190.422 32.7328 190.422 31.1828V28.9828C189.747 29.4078 188.572 29.7328 187.472 29.9328C185.272 30.3078 183.822 30.7078 183.822 32.5578C183.822 34.2828 185.147 34.7078 186.497 34.7078ZM195.96 36.1328V22.7078H198.26V24.7078H198.335C199.16 23.2578 200.585 22.3828 202.31 22.3828C203.935 22.3828 205.235 23.2328 205.785 24.8828H205.835C206.785 23.2078 208.36 22.3828 209.985 22.3828C212.435 22.3828 214.135 23.9578 214.135 26.7578V36.1328H211.81V26.9578C211.81 25.3078 210.735 24.3328 209.385 24.3328C207.685 24.3328 206.21 25.8078 206.21 27.8578V36.1328H203.91V26.9578C203.91 25.3078 202.985 24.3328 201.61 24.3328C200.01 24.3328 198.285 25.8078 198.285 27.8578V36.1328H195.96ZM223.074 36.5078C218.949 36.5078 216.524 33.3578 216.524 29.4328C216.524 25.5328 219.099 22.3828 222.949 22.3828C224.949 22.3828 226.499 23.1578 227.549 24.4578C228.649 25.7828 229.199 27.7078 229.199 29.9828H218.899C219.074 32.6078 220.499 34.6078 223.099 34.6078C224.949 34.6078 226.224 33.7328 226.649 32.3078H228.924C228.324 34.8078 226.174 36.5078 223.074 36.5078ZM222.949 24.1828C220.524 24.1828 219.249 25.9328 218.949 28.3078H226.724C226.599 25.7328 225.274 24.1828 222.949 24.1828Z" fill="black"/>
</svg>
