<svg width="1413" height="281" viewBox="0 0 1413 281" fill="none" xmlns="http://www.w3.org/2000/svg">
<path d="M1313.71 168.233C1314.3 168.818 1315.25 168.818 1315.83 168.233L1325.38 158.687C1325.97 158.101 1325.97 157.151 1325.38 156.565C1324.79 155.979 1323.84 155.979 1323.26 156.565L1314.77 165.051L1306.29 156.565C1305.7 155.979 1304.75 155.979 1304.17 156.565C1303.58 157.151 1303.58 158.101 1304.17 158.687L1313.71 168.233ZM1313.27 49.9531L1313.27 167.172L1316.27 167.172L1316.27 49.9531L1313.27 49.9531Z" fill="white"/>
<rect x="1216.84" y="178.844" width="195.877" height="101.811" rx="20" fill="#16B4F3"/>
<rect x="0.046875" y="178.844" width="195.877" height="101.811" rx="20" fill="#16B4F3"/>
<rect x="229.699" y="178.844" width="195.877" height="101.811" rx="50.9056" fill="#FB5D2E"/>
<rect x="984.117" y="178.844" width="195.877" height="101.811" rx="20" fill="#16B4F3"/>
<rect x="484.508" y="178.844" width="270.141" height="101.811" rx="50.9056" fill="#FB5D2E"/>
<rect x="721.805" y="0.90625" width="215.164" height="101.811" rx="50.9056" fill="#FB5D2E"/>
<path d="M20.8873 219.672L27.1123 201.797H30.8623L37.1623 219.672H33.3873L32.1873 215.872H25.7373L24.5623 219.672H20.8873ZM28.1873 207.947L26.5873 213.097H31.3123L29.7123 207.947C29.4123 206.997 28.9873 205.197 28.9873 205.197H28.9373C28.9373 205.197 28.4873 206.997 28.1873 207.947ZM43.8535 220.047C39.8035 220.047 37.2785 217.097 37.2785 213.272C37.2785 209.447 39.7785 206.497 43.6785 206.497C47.0035 206.497 49.0535 208.422 49.5035 211.197H46.1785C45.9535 210.072 45.0785 209.222 43.8285 209.222C41.7785 209.222 40.7285 210.797 40.7285 213.272C40.7285 215.697 41.7035 217.322 43.7785 217.322C45.1535 217.322 46.1285 216.597 46.3535 215.147H49.6285C49.4035 217.872 47.2785 220.047 43.8535 220.047ZM50.3615 209.097V206.847H52.1365V202.847H55.4615V206.847H57.6615V209.097H55.4615V215.897C55.4615 216.847 55.9865 217.172 56.7365 217.172C57.1615 217.172 57.7365 217.147 57.7365 217.147V219.647C57.7365 219.647 56.9615 219.697 55.6115 219.697C53.9615 219.697 52.1365 219.047 52.1365 216.622V209.097H50.3615ZM59.4123 219.672V206.847H62.8123V219.672H59.4123ZM59.4123 204.847V201.797H62.8123V204.847H59.4123ZM68.4031 219.672L63.9531 206.847H67.4031L69.4531 213.497C69.8281 214.722 70.0281 215.547 70.0281 215.547H70.0781C70.0781 215.547 70.2531 214.722 70.6281 213.497L72.7281 206.847H76.1281L71.6531 219.672H68.4031ZM77.2834 219.672V206.847H80.6834V219.672H77.2834ZM77.2834 204.847V201.797H80.6834V204.847H77.2834ZM82.1242 209.097V206.847H83.8992V202.847H87.2242V206.847H89.4242V209.097H87.2242V215.897C87.2242 216.847 87.7492 217.172 88.4992 217.172C88.9242 217.172 89.4992 217.147 89.4992 217.147V219.647C89.4992 219.647 88.7242 219.697 87.3742 219.697C85.7242 219.697 83.8992 219.047 83.8992 216.622V209.097H82.1242ZM91.6941 223.872V221.197H92.8941C94.2441 221.197 94.7941 220.497 94.7941 219.447C94.7941 218.747 94.5441 217.922 93.8191 215.972L90.3691 206.847H93.9441L95.8441 212.622C96.2441 213.797 96.6691 215.422 96.6691 215.422H96.7191C96.7191 215.422 97.0691 213.797 97.4691 212.622L99.2691 206.847H102.694L98.2191 219.997C97.2441 222.847 96.2941 223.872 93.6941 223.872H91.6941ZM108.32 219.672V201.797H116.17C118.245 201.797 119.795 202.397 120.845 203.472C121.845 204.497 122.445 205.897 122.445 207.547C122.445 210.922 120.22 213.197 116.47 213.197H112.07V219.672H108.32ZM112.07 204.947V210.247H115.82C117.72 210.247 118.72 209.197 118.72 207.572C118.72 205.897 117.67 204.947 115.87 204.947H112.07ZM131.55 219.672C131.35 219.422 131.225 218.822 131.15 218.247H131.1C130.45 219.222 129.525 219.972 127.325 219.972C124.7 219.972 122.85 218.597 122.85 216.047C122.85 213.222 125.15 212.322 128 211.922C130.125 211.622 131.1 211.447 131.1 210.472C131.1 209.547 130.375 208.947 128.95 208.947C127.35 208.947 126.575 209.522 126.475 210.747H123.45C123.55 208.497 125.225 206.522 128.975 206.522C132.825 206.522 134.375 208.247 134.375 211.247V217.772C134.375 218.747 134.525 219.322 134.825 219.547V219.672H131.55ZM128.15 217.597C130.1 217.597 131.175 216.397 131.175 215.147V213.222C130.575 213.572 129.65 213.772 128.8 213.972C127.025 214.372 126.15 214.772 126.15 215.972C126.15 217.172 126.95 217.597 128.15 217.597ZM142.186 224.047C138.686 224.047 136.536 222.547 136.186 220.047H139.561C139.836 220.847 140.561 221.472 142.136 221.472C144.061 221.472 144.986 220.547 144.986 218.797V217.397H144.911C144.161 218.247 143.186 218.897 141.561 218.897C138.711 218.897 135.911 216.647 135.911 212.772C135.911 208.947 138.211 206.497 141.461 206.497C143.061 206.497 144.236 207.122 145.011 208.197H145.061V206.847H148.336V218.697C148.336 220.497 147.761 221.722 146.811 222.597C145.736 223.597 144.086 224.047 142.186 224.047ZM142.136 216.172C144.286 216.172 145.161 214.597 145.161 212.697C145.161 210.822 144.161 209.222 142.111 209.222C140.386 209.222 139.236 210.572 139.236 212.722C139.236 214.897 140.386 216.172 142.136 216.172ZM156.551 220.047C152.301 220.047 149.901 217.072 149.901 213.247C149.901 209.447 152.476 206.497 156.226 206.497C160.351 206.497 162.551 209.647 162.551 214.222H153.251C153.501 216.197 154.601 217.422 156.526 217.422C157.851 217.422 158.626 216.822 159.001 215.847H162.351C161.876 218.122 159.851 220.047 156.551 220.047ZM156.276 209.122C154.476 209.122 153.601 210.197 153.301 211.872H159.001C158.901 210.247 157.826 209.122 156.276 209.122ZM169.324 220.047C165.599 220.047 163.524 218.247 163.324 215.522H166.474C166.699 216.997 167.749 217.647 169.274 217.647C170.774 217.647 171.624 217.072 171.624 216.172C171.624 214.947 169.999 214.822 168.249 214.472C165.949 214.022 163.699 213.397 163.699 210.597C163.699 207.822 165.999 206.497 168.924 206.497C172.299 206.497 174.174 208.172 174.424 210.747H171.349C171.199 209.372 170.324 208.872 168.874 208.872C167.549 208.872 166.674 209.372 166.674 210.297C166.674 211.397 168.374 211.497 170.199 211.872C172.349 212.322 174.724 212.922 174.724 215.922C174.724 218.497 172.524 220.047 169.324 220.047ZM26.8508 244.197V241.847H28.6008V240.697C28.6008 237.572 31.0258 236.472 34.3008 236.822V239.447C32.7008 239.372 32.0008 239.572 32.0008 240.897V241.847H34.3008V244.197H32.0008V254.672H28.6008V244.197H26.8508ZM41.5615 255.047C37.5865 255.047 34.8615 252.097 34.8615 248.272C34.8615 244.447 37.5865 241.497 41.5615 241.497C45.5365 241.497 48.2615 244.447 48.2615 248.272C48.2615 252.097 45.5365 255.047 41.5615 255.047ZM41.5615 252.447C43.6365 252.447 44.8115 250.772 44.8115 248.272C44.8115 245.772 43.6365 244.072 41.5615 244.072C39.4615 244.072 38.3115 245.772 38.3115 248.272C38.3115 250.772 39.4615 252.447 41.5615 252.447ZM53.117 241.847V243.897H53.192C53.967 242.447 54.842 241.697 56.342 241.697C56.717 241.697 56.942 241.722 57.142 241.797V244.772H57.067C54.842 244.547 53.242 245.722 53.242 248.422V254.672H49.842V241.847H53.117ZM67.6059 255.047C64.3809 255.047 62.1809 252.422 62.1809 248.272C62.1809 244.272 64.4559 241.497 67.6559 241.497C69.4559 241.497 70.5809 242.322 71.2809 243.397H71.3559V236.797H74.7559V254.672H71.4809V252.997H71.4309C70.6809 254.222 69.4059 255.047 67.6059 255.047ZM68.3559 252.197C70.3809 252.197 71.4309 250.697 71.4309 248.347C71.4309 245.897 70.6309 244.247 68.4559 244.247C66.5809 244.247 65.6309 245.897 65.6309 248.272C65.6309 250.747 66.6059 252.197 68.3559 252.197ZM83.041 255.047C79.066 255.047 76.341 252.097 76.341 248.272C76.341 244.447 79.066 241.497 83.041 241.497C87.016 241.497 89.741 244.447 89.741 248.272C89.741 252.097 87.016 255.047 83.041 255.047ZM83.041 252.447C85.116 252.447 86.291 250.772 86.291 248.272C86.291 245.772 85.116 244.072 83.041 244.072C80.941 244.072 79.791 245.772 79.791 248.272C79.791 250.772 80.941 252.447 83.041 252.447ZM93.7053 254.672L89.9553 241.847H93.3303L94.8803 247.797C95.1553 248.847 95.4553 250.197 95.4553 250.197H95.5053C95.5053 250.197 95.7803 248.822 96.0553 247.772L97.6553 241.847H100.555L102.23 247.772C102.505 248.847 102.83 250.197 102.83 250.197H102.88C102.88 250.197 103.18 248.847 103.455 247.797L105.08 241.847H108.38L104.555 254.672H101.455L99.7553 248.372C99.4803 247.347 99.1803 246.147 99.1803 246.147H99.1303C99.1303 246.147 98.8053 247.347 98.5303 248.372L96.7803 254.672H93.7053ZM112.908 241.847V243.597H112.983C113.858 242.222 115.033 241.497 116.783 241.497C119.433 241.497 121.208 243.497 121.208 246.297V254.672H117.808V246.797C117.808 245.422 117.008 244.447 115.583 244.447C114.083 244.447 112.983 245.647 112.983 247.397V254.672H109.583V241.847H112.908ZM123.354 254.672V236.797H126.754V254.672H123.354ZM135.067 255.047C131.092 255.047 128.367 252.097 128.367 248.272C128.367 244.447 131.092 241.497 135.067 241.497C139.042 241.497 141.767 244.447 141.767 248.272C141.767 252.097 139.042 255.047 135.067 255.047ZM135.067 252.447C137.142 252.447 138.317 250.772 138.317 248.272C138.317 245.772 137.142 244.072 135.067 244.072C132.967 244.072 131.817 245.772 131.817 248.272C131.817 250.772 132.967 252.447 135.067 252.447ZM151.423 254.672C151.223 254.422 151.098 253.822 151.023 253.247H150.973C150.323 254.222 149.398 254.972 147.198 254.972C144.573 254.972 142.723 253.597 142.723 251.047C142.723 248.222 145.023 247.322 147.873 246.922C149.998 246.622 150.973 246.447 150.973 245.472C150.973 244.547 150.248 243.947 148.823 243.947C147.223 243.947 146.448 244.522 146.348 245.747H143.323C143.423 243.497 145.098 241.522 148.848 241.522C152.698 241.522 154.248 243.247 154.248 246.247V252.772C154.248 253.747 154.398 254.322 154.698 254.547V254.672H151.423ZM148.023 252.597C149.973 252.597 151.048 251.397 151.048 250.147V248.222C150.448 248.572 149.523 248.772 148.673 248.972C146.898 249.372 146.023 249.772 146.023 250.972C146.023 252.172 146.823 252.597 148.023 252.597ZM161.209 255.047C157.984 255.047 155.784 252.422 155.784 248.272C155.784 244.272 158.059 241.497 161.259 241.497C163.059 241.497 164.184 242.322 164.884 243.397H164.959V236.797H168.359V254.672H165.084V252.997H165.034C164.284 254.222 163.009 255.047 161.209 255.047ZM161.959 252.197C163.984 252.197 165.034 250.697 165.034 248.347C165.034 245.897 164.234 244.247 162.059 244.247C160.184 244.247 159.234 245.897 159.234 248.272C159.234 250.747 160.209 252.197 161.959 252.197Z" fill="white"/>
<path d="M298.678 222.081V219.031H313.053V222.081H307.678V236.906H304.053V222.081H298.678ZM316.128 224.081V226.131H316.203C316.978 224.681 317.853 223.931 319.353 223.931C319.728 223.931 319.953 223.956 320.153 224.031V227.006H320.078C317.853 226.781 316.253 227.956 316.253 230.656V236.906H312.853V224.081H316.128ZM321.618 236.906V224.081H325.018V236.906H321.618ZM321.618 222.081V219.031H325.018V222.081H321.618ZM330.609 236.906L326.159 224.081H329.609L331.659 230.731C332.034 231.956 332.234 232.781 332.234 232.781H332.284C332.284 232.781 332.459 231.956 332.834 230.731L334.934 224.081H338.334L333.859 236.906H330.609ZM339.489 236.906V224.081H342.889V236.906H339.489ZM339.489 222.081V219.031H342.889V222.081H339.489ZM353.155 236.906C352.955 236.656 352.83 236.056 352.755 235.481H352.705C352.055 236.456 351.13 237.206 348.93 237.206C346.305 237.206 344.455 235.831 344.455 233.281C344.455 230.456 346.755 229.556 349.605 229.156C351.73 228.856 352.705 228.681 352.705 227.706C352.705 226.781 351.98 226.181 350.555 226.181C348.955 226.181 348.18 226.756 348.08 227.981H345.055C345.155 225.731 346.83 223.756 350.58 223.756C354.43 223.756 355.98 225.481 355.98 228.481V235.006C355.98 235.981 356.13 236.556 356.43 236.781V236.906H353.155ZM349.755 234.831C351.705 234.831 352.78 233.631 352.78 232.381V230.456C352.18 230.806 351.255 231.006 350.405 231.206C348.63 231.606 347.755 232.006 347.755 233.206C347.755 234.406 348.555 234.831 349.755 234.831Z" fill="white"/>
<path d="M518.03 219.461L524.255 201.586H528.005L534.305 219.461H530.53L529.33 215.661H522.88L521.705 219.461H518.03ZM525.33 207.736L523.73 212.886H528.455L526.855 207.736C526.555 206.786 526.13 204.986 526.13 204.986H526.08C526.08 204.986 525.63 206.786 525.33 207.736ZM538.809 206.636V208.686H538.884C539.659 207.236 540.534 206.486 542.034 206.486C542.409 206.486 542.634 206.511 542.834 206.586V209.561H542.759C540.534 209.336 538.934 210.511 538.934 213.211V219.461H535.534V206.636H538.809ZM549.958 219.836C545.708 219.836 543.308 216.861 543.308 213.036C543.308 209.236 545.883 206.286 549.633 206.286C553.758 206.286 555.958 209.436 555.958 214.011H546.658C546.908 215.986 548.008 217.211 549.933 217.211C551.258 217.211 552.033 216.611 552.408 215.636H555.758C555.283 217.911 553.258 219.836 549.958 219.836ZM549.683 208.911C547.883 208.911 547.008 209.986 546.708 211.661H552.408C552.308 210.036 551.233 208.911 549.683 208.911ZM562.005 223.661V220.986H563.205C564.555 220.986 565.105 220.286 565.105 219.236C565.105 218.536 564.855 217.711 564.13 215.761L560.68 206.636H564.255L566.155 212.411C566.555 213.586 566.98 215.211 566.98 215.211H567.03C567.03 215.211 567.38 213.586 567.78 212.411L569.58 206.636H573.005L568.53 219.786C567.555 222.636 566.605 223.661 564.005 223.661H562.005ZM579.866 219.836C575.891 219.836 573.166 216.886 573.166 213.061C573.166 209.236 575.891 206.286 579.866 206.286C583.841 206.286 586.566 209.236 586.566 213.061C586.566 216.886 583.841 219.836 579.866 219.836ZM579.866 217.236C581.941 217.236 583.116 215.561 583.116 213.061C583.116 210.561 581.941 208.861 579.866 208.861C577.766 208.861 576.616 210.561 576.616 213.061C576.616 215.561 577.766 217.236 579.866 217.236ZM599.521 219.461H596.246V217.961H596.171C595.296 219.136 594.296 219.811 592.496 219.811C589.646 219.811 588.046 217.986 588.046 215.186V206.636H591.421V214.611C591.421 216.111 592.096 216.936 593.546 216.936C595.146 216.936 596.121 215.736 596.121 214.036V206.636H599.521V219.461ZM605.17 208.986V206.636H606.92V205.486C606.92 202.361 609.345 201.261 612.62 201.611V204.236C611.02 204.161 610.32 204.361 610.32 205.686V206.636H612.62V208.986H610.32V219.461H606.92V208.986H605.17ZM621.881 219.461C621.681 219.211 621.556 218.611 621.481 218.036H621.431C620.781 219.011 619.856 219.761 617.656 219.761C615.031 219.761 613.181 218.386 613.181 215.836C613.181 213.011 615.481 212.111 618.331 211.711C620.456 211.411 621.431 211.236 621.431 210.261C621.431 209.336 620.706 208.736 619.281 208.736C617.681 208.736 616.906 209.311 616.806 210.536H613.781C613.881 208.286 615.556 206.311 619.306 206.311C623.156 206.311 624.706 208.036 624.706 211.036V217.561C624.706 218.536 624.856 219.111 625.156 219.336V219.461H621.881ZM618.481 217.386C620.431 217.386 621.506 216.186 621.506 214.936V213.011C620.906 213.361 619.981 213.561 619.131 213.761C617.356 214.161 616.481 214.561 616.481 215.761C616.481 216.961 617.281 217.386 618.481 217.386ZM632.067 219.836C628.342 219.836 626.267 218.036 626.067 215.311H629.217C629.442 216.786 630.492 217.436 632.017 217.436C633.517 217.436 634.367 216.861 634.367 215.961C634.367 214.736 632.742 214.611 630.992 214.261C628.692 213.811 626.442 213.186 626.442 210.386C626.442 207.611 628.742 206.286 631.667 206.286C635.042 206.286 636.917 207.961 637.167 210.536H634.092C633.942 209.161 633.067 208.661 631.617 208.661C630.292 208.661 629.417 209.161 629.417 210.086C629.417 211.186 631.117 211.286 632.942 211.661C635.092 212.111 637.467 212.711 637.467 215.711C637.467 218.286 635.267 219.836 632.067 219.836ZM638.007 208.886V206.636H639.782V202.636H643.107V206.636H645.307V208.886H643.107V215.686C643.107 216.636 643.632 216.961 644.382 216.961C644.807 216.961 645.382 216.936 645.382 216.936V219.436C645.382 219.436 644.607 219.486 643.257 219.486C641.607 219.486 639.782 218.836 639.782 216.411V208.886H638.007ZM652.96 219.836C648.71 219.836 646.31 216.861 646.31 213.036C646.31 209.236 648.885 206.286 652.635 206.286C656.76 206.286 658.96 209.436 658.96 214.011H649.66C649.91 215.986 651.01 217.211 652.935 217.211C654.26 217.211 655.035 216.611 655.41 215.636H658.76C658.285 217.911 656.26 219.836 652.96 219.836ZM652.685 208.911C650.885 208.911 650.01 209.986 649.71 211.661H655.41C655.31 210.036 654.235 208.911 652.685 208.911ZM663.809 206.636V208.686H663.884C664.659 207.236 665.534 206.486 667.034 206.486C667.409 206.486 667.634 206.511 667.834 206.586V209.561H667.759C665.534 209.336 663.934 210.511 663.934 213.211V219.461H660.534V206.636H663.809ZM672.748 208.886V206.636H674.523V202.636H677.848V206.636H680.048V208.886H677.848V215.686C677.848 216.636 678.373 216.961 679.123 216.961C679.548 216.961 680.123 216.936 680.123 216.936V219.436C680.123 219.436 679.348 219.486 677.998 219.486C676.348 219.486 674.523 218.836 674.523 216.411V208.886H672.748ZM685.199 201.586V208.311H685.274C686.199 206.961 687.249 206.286 688.999 206.286C691.649 206.286 693.424 208.286 693.424 211.086V219.461H690.024V211.586C690.024 210.211 689.224 209.236 687.799 209.236C686.299 209.236 685.199 210.436 685.199 212.186V219.461H681.799V201.586H685.199ZM703.594 219.461C703.394 219.211 703.269 218.611 703.194 218.036H703.144C702.494 219.011 701.569 219.761 699.369 219.761C696.744 219.761 694.894 218.386 694.894 215.836C694.894 213.011 697.194 212.111 700.044 211.711C702.169 211.411 703.144 211.236 703.144 210.261C703.144 209.336 702.419 208.736 700.994 208.736C699.394 208.736 698.619 209.311 698.519 210.536H695.494C695.594 208.286 697.269 206.311 701.019 206.311C704.869 206.311 706.419 208.036 706.419 211.036V217.561C706.419 218.536 706.569 219.111 706.869 219.336V219.461H703.594ZM700.194 217.386C702.144 217.386 703.219 216.186 703.219 214.936V213.011C702.619 213.361 701.694 213.561 700.844 213.761C699.069 214.161 698.194 214.561 698.194 215.761C698.194 216.961 698.994 217.386 700.194 217.386ZM711.906 206.636V208.386H711.981C712.856 207.011 714.031 206.286 715.781 206.286C718.431 206.286 720.206 208.286 720.206 211.086V219.461H716.806V211.586C716.806 210.211 716.006 209.236 714.581 209.236C713.081 209.236 711.981 210.436 711.981 212.186V219.461H708.581V206.636H711.906ZM544.757 254.461C544.557 254.211 544.432 253.611 544.357 253.036H544.307C543.657 254.011 542.732 254.761 540.532 254.761C537.907 254.761 536.057 253.386 536.057 250.836C536.057 248.011 538.357 247.111 541.207 246.711C543.332 246.411 544.307 246.236 544.307 245.261C544.307 244.336 543.582 243.736 542.157 243.736C540.557 243.736 539.782 244.311 539.682 245.536H536.657C536.757 243.286 538.432 241.311 542.182 241.311C546.032 241.311 547.582 243.036 547.582 246.036V252.561C547.582 253.536 547.732 254.111 548.032 254.336V254.461H544.757ZM541.357 252.386C543.307 252.386 544.382 251.186 544.382 249.936V248.011C543.782 248.361 542.857 248.561 542.007 248.761C540.232 249.161 539.357 249.561 539.357 250.761C539.357 251.961 540.157 252.386 541.357 252.386ZM554.217 254.461V236.586H557.892L563.842 246.561C564.417 247.536 565.092 249.061 565.092 249.061H565.142C565.142 249.061 565.042 247.211 565.042 245.961V236.586H568.617V254.461H565.117L559.017 244.586C558.442 243.636 557.742 242.111 557.742 242.111H557.692C557.692 242.111 557.792 243.986 557.792 245.236V254.461H554.217ZM570.056 254.461L576.281 236.586H580.031L586.331 254.461H582.556L581.356 250.661H574.906L573.731 254.461H570.056ZM577.356 242.736L575.756 247.886H580.481L578.881 242.736C578.581 241.786 578.156 239.986 578.156 239.986H578.106C578.106 239.986 577.656 241.786 577.356 242.736ZM594.516 254.861C589.666 254.861 586.916 252.711 586.791 248.936H590.341C590.591 251.086 591.816 251.936 594.366 251.936C596.216 251.936 597.841 251.286 597.841 249.636C597.841 247.886 596.141 247.536 593.416 246.911C590.216 246.186 587.291 245.336 587.291 241.611C587.291 238.086 590.166 236.261 594.141 236.261C598.166 236.261 600.766 238.236 601.041 241.836H597.566C597.366 240.036 595.966 239.136 594.116 239.136C592.166 239.136 590.891 239.961 590.891 241.236C590.891 242.686 592.141 243.111 594.791 243.686C598.466 244.486 601.466 245.361 601.466 249.211C601.466 252.836 598.541 254.861 594.516 254.861ZM611.456 254.836C606.431 254.836 602.856 250.961 602.856 245.586C602.856 240.286 606.156 236.236 611.431 236.236C615.831 236.236 618.431 238.861 618.806 242.261H615.206C614.881 240.461 613.531 239.286 611.431 239.286C608.131 239.286 606.556 242.036 606.556 245.586C606.556 249.236 608.456 251.861 611.456 251.861C613.581 251.861 615.081 250.586 615.306 248.711H618.856C618.756 250.286 618.081 251.811 616.881 252.936C615.656 254.086 613.931 254.836 611.456 254.836ZM618.933 254.461L625.158 236.586H628.908L635.208 254.461H631.433L630.233 250.661H623.783L622.608 254.461H618.933ZM626.233 242.736L624.633 247.886H629.358L627.758 242.736C627.458 241.786 627.033 239.986 627.033 239.986H626.983C626.983 239.986 626.533 241.786 626.233 242.736ZM636.712 254.461V236.586H644.912C648.362 236.586 650.662 238.586 650.662 241.561C650.662 243.661 649.687 245.261 647.387 245.886V245.961C649.037 246.436 649.887 247.386 650.112 249.561C650.362 252.086 650.262 254.011 650.887 254.286V254.461H647.412C646.962 254.261 646.912 252.261 646.762 250.336C646.612 248.386 645.512 247.286 643.262 247.286H640.337V254.461H636.712ZM640.337 239.511V244.486H644.187C646.162 244.486 647.137 243.461 647.137 242.036C647.137 240.586 646.212 239.511 644.287 239.511H640.337ZM656.171 243.986V241.636H657.921V240.486C657.921 237.361 660.346 236.261 663.621 236.611V239.236C662.021 239.161 661.321 239.361 661.321 240.686V241.636H663.621V243.986H661.321V254.461H657.921V243.986H656.171ZM672.882 254.461C672.682 254.211 672.557 253.611 672.482 253.036H672.432C671.782 254.011 670.857 254.761 668.657 254.761C666.032 254.761 664.182 253.386 664.182 250.836C664.182 248.011 666.482 247.111 669.332 246.711C671.457 246.411 672.432 246.236 672.432 245.261C672.432 244.336 671.707 243.736 670.282 243.736C668.682 243.736 667.907 244.311 667.807 245.536H664.782C664.882 243.286 666.557 241.311 670.307 241.311C674.157 241.311 675.707 243.036 675.707 246.036V252.561C675.707 253.536 675.857 254.111 676.157 254.336V254.461H672.882ZM669.482 252.386C671.432 252.386 672.507 251.186 672.507 249.936V248.011C671.907 248.361 670.982 248.561 670.132 248.761C668.357 249.161 667.482 249.561 667.482 250.761C667.482 251.961 668.282 252.386 669.482 252.386ZM681.193 241.636V243.386H681.268C682.143 242.011 683.318 241.286 685.068 241.286C687.718 241.286 689.493 243.286 689.493 246.086V254.461H686.093V246.586C686.093 245.211 685.293 244.236 683.868 244.236C682.368 244.236 681.268 245.436 681.268 247.186V254.461H677.868V241.636H681.193ZM694.948 249.236C694.948 246.311 696.023 245.586 697.548 244.486C698.623 243.711 699.573 243.111 699.573 241.586C699.573 240.061 698.448 239.136 696.923 239.136C695.073 239.136 693.823 240.311 693.798 242.261H690.573C690.648 238.936 692.823 236.261 696.898 236.261C700.723 236.261 702.973 238.536 702.973 241.486C702.973 243.961 701.673 244.961 700.598 245.786C698.723 247.211 697.998 247.461 697.998 249.236H694.948ZM694.648 254.461V250.836H698.298V254.461H694.648Z" fill="white"/>
<path d="M1052.55 223.222V220.172H1066.93V223.222H1061.55V238.047H1057.93V223.222H1052.55ZM1071.63 238.422C1067.38 238.422 1064.98 235.447 1064.98 231.622C1064.98 227.822 1067.55 224.872 1071.3 224.872C1075.43 224.872 1077.63 228.022 1077.63 232.597H1068.33C1068.58 234.572 1069.68 235.797 1071.6 235.797C1072.93 235.797 1073.7 235.197 1074.08 234.222H1077.43C1076.95 236.497 1074.93 238.422 1071.63 238.422ZM1071.35 227.497C1069.55 227.497 1068.68 228.572 1068.38 230.247H1074.08C1073.98 228.622 1072.9 227.497 1071.35 227.497ZM1087.28 238.047C1087.08 237.797 1086.95 237.197 1086.88 236.622H1086.83C1086.18 237.597 1085.25 238.347 1083.05 238.347C1080.43 238.347 1078.58 236.972 1078.58 234.422C1078.58 231.597 1080.88 230.697 1083.73 230.297C1085.85 229.997 1086.83 229.822 1086.83 228.847C1086.83 227.922 1086.1 227.322 1084.68 227.322C1083.08 227.322 1082.3 227.897 1082.2 229.122H1079.18C1079.28 226.872 1080.95 224.897 1084.7 224.897C1088.55 224.897 1090.1 226.622 1090.1 229.622V236.147C1090.1 237.122 1090.25 237.697 1090.55 237.922V238.047H1087.28ZM1083.88 235.972C1085.83 235.972 1086.9 234.772 1086.9 233.522V231.597C1086.3 231.947 1085.38 232.147 1084.53 232.347C1082.75 232.747 1081.88 233.147 1081.88 234.347C1081.88 235.547 1082.68 235.972 1083.88 235.972ZM1092.26 238.047V225.222H1095.54V226.947H1095.61C1096.31 225.772 1097.56 224.872 1099.34 224.872C1100.96 224.872 1102.26 225.772 1102.89 227.122H1102.94C1103.81 225.722 1105.16 224.872 1106.79 224.872C1109.49 224.872 1111.01 226.622 1111.01 229.422V238.047H1107.61V229.997C1107.61 228.547 1106.89 227.797 1105.64 227.797C1104.21 227.797 1103.34 228.897 1103.34 230.597V238.047H1099.94V229.997C1099.94 228.547 1099.21 227.797 1097.96 227.797C1096.59 227.797 1095.66 228.897 1095.66 230.597V238.047H1092.26Z" fill="white"/>
<line x1="97.9844" y1="51.625" x2="721.805" y2="51.625" stroke="white" stroke-width="3"/>
<line x1="936.974" y1="50.3125" x2="1314.55" y2="51.625" stroke="white" stroke-width="3"/>
<path d="M96.9237 168.229C97.5095 168.815 98.4592 168.815 99.045 168.229L108.591 158.683C109.177 158.097 109.177 157.147 108.591 156.562C108.005 155.976 107.055 155.976 106.47 156.562L97.9844 165.047L89.4991 156.562C88.9133 155.976 87.9636 155.976 87.3778 156.562C86.792 157.147 86.792 158.097 87.3778 158.683L96.9237 168.229ZM96.4844 51.8125L96.4844 167.168L99.4844 167.168L99.4844 51.8125L96.4844 51.8125Z" fill="white"/>
<path d="M329.646 168.229C330.232 168.815 331.182 168.815 331.768 168.229L341.314 158.683C341.899 158.097 341.899 157.147 341.314 156.562C340.728 155.976 339.778 155.976 339.192 156.562L330.707 165.047L322.222 156.562C321.636 155.976 320.686 155.976 320.1 156.562C319.515 157.147 319.515 158.097 320.1 158.683L329.646 168.229ZM329.207 51.8125L329.207 167.168L332.207 167.168L332.207 51.8125L329.207 51.8125Z" fill="white"/>
<path d="M618.517 168.229C619.103 168.815 620.053 168.815 620.639 168.229L630.185 158.683C630.771 158.097 630.771 157.147 630.185 156.562C629.599 155.976 628.649 155.976 628.063 156.562L619.578 165.047L611.093 156.562C610.507 155.976 609.557 155.976 608.972 156.562C608.386 157.147 608.386 158.097 608.972 158.683L618.517 168.229ZM618.078 51.8125L618.078 167.168L621.078 167.168L621.078 51.8125L618.078 51.8125Z" fill="white"/>
<path d="M1080.99 168.229C1081.58 168.815 1082.53 168.815 1083.12 168.229L1092.66 158.683C1093.25 158.097 1093.25 157.147 1092.66 156.562C1092.08 155.976 1091.13 155.976 1090.54 156.562L1082.05 165.047L1073.57 156.562C1072.98 155.976 1072.03 155.976 1071.45 156.562C1070.86 157.147 1070.86 158.097 1071.45 158.683L1080.99 168.229ZM1080.55 51.8125L1080.55 167.168L1083.55 167.168L1083.55 51.8125L1080.55 51.8125Z" fill="white"/>
<path d="M778.021 66.1875V30.4755H786.805L792.661 47.4675C794.053 51.6435 795.781 59.4675 795.781 59.4675H795.925C795.925 59.4675 797.653 51.6915 798.997 47.4675L804.757 30.4755H813.733V66.1875H807.541V47.5635C807.541 43.6755 807.973 36.4275 807.973 36.4275H807.877C807.877 36.4275 806.389 43.0035 805.237 46.5555L798.469 66.1875H793.093L786.277 46.5555C785.125 43.0035 783.637 36.4275 783.637 36.4275H783.541C783.541 36.4275 783.973 43.6755 783.973 47.5635V66.1875H778.021ZM836.428 66.1875C835.996 65.6115 835.66 64.6035 835.564 62.8755H835.468C833.788 65.1315 831.484 66.8115 827.404 66.8115C822.412 66.8115 818.668 64.2195 818.668 59.2275C818.668 53.4195 823.084 52.0275 829.18 51.3075C833.404 50.7795 835.516 50.1075 835.516 47.8035C835.516 45.5955 833.98 44.1075 830.908 44.1075C827.5 44.1075 825.82 45.6915 825.676 48.2355H819.916C820.108 43.8675 823.564 39.8835 830.86 39.8835C833.788 39.8835 836.044 40.3155 837.724 41.3715C840.124 42.8115 841.372 45.2595 841.372 48.6675V62.1555C841.372 64.2675 841.756 65.3715 842.332 65.7555V66.1875H836.428ZM829.18 62.6355C833.356 62.6355 835.66 59.7555 835.66 56.8755V53.0835C834.46 53.8515 832.54 54.3795 830.668 54.7635C826.924 55.4835 824.764 56.2515 824.764 59.0835C824.764 61.8195 826.828 62.6355 829.18 62.6355ZM846.912 36.3795V30.4755H853.152V36.3795H846.912ZM847.008 66.1875V40.5555H853.104V66.1875H847.008ZM864.585 40.5555V44.2995H864.729C866.409 41.4675 869.097 39.8835 872.697 39.8835C878.217 39.8835 881.529 43.2915 881.529 48.8115V66.1875H875.433V49.8195C875.433 46.7955 873.657 44.9235 870.537 44.9235C867.129 44.9235 864.729 47.5155 864.729 51.1635V66.1875H858.633V40.5555H864.585Z" fill="white"/>
<path d="M1271.28 238.047V220.172H1279.13C1281.2 220.172 1282.75 220.772 1283.8 221.847C1284.8 222.872 1285.4 224.272 1285.4 225.922C1285.4 229.297 1283.18 231.572 1279.43 231.572H1275.03V238.047H1271.28ZM1275.03 223.322V228.622H1278.78C1280.68 228.622 1281.68 227.572 1281.68 225.947C1281.68 224.272 1280.63 223.322 1278.83 223.322H1275.03ZM1290.2 225.222V227.272H1290.27C1291.05 225.822 1291.92 225.072 1293.42 225.072C1293.8 225.072 1294.02 225.097 1294.22 225.172V228.147H1294.15C1291.92 227.922 1290.32 229.097 1290.32 231.797V238.047H1286.92V225.222H1290.2ZM1301.39 238.422C1297.42 238.422 1294.69 235.472 1294.69 231.647C1294.69 227.822 1297.42 224.872 1301.39 224.872C1305.37 224.872 1308.09 227.822 1308.09 231.647C1308.09 235.472 1305.37 238.422 1301.39 238.422ZM1301.39 235.822C1303.47 235.822 1304.64 234.147 1304.64 231.647C1304.64 229.147 1303.47 227.447 1301.39 227.447C1299.29 227.447 1298.14 229.147 1298.14 231.647C1298.14 234.147 1299.29 235.822 1301.39 235.822ZM1315.62 238.422C1311.57 238.422 1309.05 235.472 1309.05 231.647C1309.05 227.822 1311.55 224.872 1315.45 224.872C1318.77 224.872 1320.82 226.797 1321.27 229.572H1317.95C1317.72 228.447 1316.85 227.597 1315.6 227.597C1313.55 227.597 1312.5 229.172 1312.5 231.647C1312.5 234.072 1313.47 235.697 1315.55 235.697C1316.92 235.697 1317.9 234.972 1318.12 233.522H1321.4C1321.17 236.247 1319.05 238.422 1315.62 238.422ZM1328.91 238.422C1324.66 238.422 1322.26 235.447 1322.26 231.622C1322.26 227.822 1324.83 224.872 1328.58 224.872C1332.71 224.872 1334.91 228.022 1334.91 232.597H1325.61C1325.86 234.572 1326.96 235.797 1328.88 235.797C1330.21 235.797 1330.98 235.197 1331.36 234.222H1334.71C1334.23 236.497 1332.21 238.422 1328.91 238.422ZM1328.63 227.497C1326.83 227.497 1325.96 228.572 1325.66 230.247H1331.36C1331.26 228.622 1330.18 227.497 1328.63 227.497ZM1341.68 238.422C1337.96 238.422 1335.88 236.622 1335.68 233.897H1338.83C1339.06 235.372 1340.11 236.022 1341.63 236.022C1343.13 236.022 1343.98 235.447 1343.98 234.547C1343.98 233.322 1342.36 233.197 1340.61 232.847C1338.31 232.397 1336.06 231.772 1336.06 228.972C1336.06 226.197 1338.36 224.872 1341.28 224.872C1344.66 224.872 1346.53 226.547 1346.78 229.122H1343.71C1343.56 227.747 1342.68 227.247 1341.23 227.247C1339.91 227.247 1339.03 227.747 1339.03 228.672C1339.03 229.772 1340.73 229.872 1342.56 230.247C1344.71 230.697 1347.08 231.297 1347.08 234.297C1347.08 236.872 1344.88 238.422 1341.68 238.422ZM1353.82 238.422C1350.09 238.422 1348.02 236.622 1347.82 233.897H1350.97C1351.19 235.372 1352.24 236.022 1353.77 236.022C1355.27 236.022 1356.12 235.447 1356.12 234.547C1356.12 233.322 1354.49 233.197 1352.74 232.847C1350.44 232.397 1348.19 231.772 1348.19 228.972C1348.19 226.197 1350.49 224.872 1353.42 224.872C1356.79 224.872 1358.67 226.547 1358.92 229.122H1355.84C1355.69 227.747 1354.82 227.247 1353.37 227.247C1352.04 227.247 1351.17 227.747 1351.17 228.672C1351.17 229.772 1352.87 229.872 1354.69 230.247C1356.84 230.697 1359.22 231.297 1359.22 234.297C1359.22 236.872 1357.02 238.422 1353.82 238.422Z" fill="white"/>
</svg>
