<svg width="161" height="53" viewBox="0 0 161 53" fill="none" xmlns="http://www.w3.org/2000/svg">
<path d="M160.402 0.523438L14.8426 0.525788L0.234375 52.7685L145.836 52.7844L160.402 0.523438Z" fill="#FFDB3B"/>
<path d="M50.9827 20.4562L51.5577 17.5562H66.3827L65.8077 20.4562H60.0827L57.0327 36.1562H53.6577L56.6827 20.4562H50.9827ZM63.1835 36.1562L65.7835 22.8062H68.7835L68.3085 25.2562H68.3835C69.4085 23.4562 70.7585 22.6312 72.4085 22.6312C72.8085 22.6312 73.0835 22.6562 73.2335 22.7312L72.7835 25.5812H72.6835C72.4335 25.5062 72.1835 25.4562 71.8335 25.4562C69.7335 25.4562 68.1585 26.7312 67.6335 29.3812L66.3085 36.1562H63.1835ZM72.8282 36.1562L75.4032 22.8062H78.5282L75.9282 36.1562H72.8282ZM75.8032 20.6312L76.4032 17.5562H79.6032L78.9782 20.6312H75.8032ZM82.0829 36.1562L80.1579 22.8062H83.2829L83.9829 28.9812C84.2079 30.8812 84.2829 33.5062 84.2829 33.5062H84.3579C84.3579 33.5062 85.3329 30.8812 86.2579 29.0812L89.4579 22.8062H92.7329L85.4829 36.1562H82.0829ZM91.7735 36.1562L94.3485 22.8062H97.4735L94.8735 36.1562H91.7735ZM94.7485 20.6312L95.3485 17.5562H98.5485L97.9235 20.6312H94.7485ZM102.003 36.4813C99.4532 36.4813 97.8032 35.0812 97.8032 32.8312C97.8032 29.7313 100.153 28.8812 103.628 28.5062C106.378 28.2312 107.578 27.9062 107.553 26.3562C107.528 25.3312 106.753 24.6062 105.228 24.6062C103.578 24.6062 102.528 25.4062 102.228 26.8312H99.2782C99.7282 24.2562 101.853 22.4562 105.303 22.4562C109.003 22.4562 110.903 24.3562 110.253 27.7312L109.203 33.2062C108.853 34.9562 109.053 35.6312 109.353 35.9312V36.1562H106.378C106.203 35.8312 106.053 35.3562 106.053 34.5812H105.978C105.078 35.7562 103.753 36.4813 102.003 36.4813ZM103.028 34.4812C105.103 34.4812 106.303 33.1062 106.578 31.5562L107.028 29.4062C106.153 29.9062 105.228 30.0812 103.753 30.3312C101.953 30.6562 100.928 31.2312 100.928 32.6562C100.928 33.9562 101.928 34.4812 103.028 34.4812Z" fill="black"/>
</svg>
