<svg width="383" height="122" viewBox="0 0 383 122" fill="none" xmlns="http://www.w3.org/2000/svg">
<path d="M382.454 0.679673L-232.74 0.718444L-266.551 121.795L348.74 121.798L382.454 0.679673Z" fill="white"/>
<path d="M51.2069 75.1406L56.7269 46.5406H68.2469C73.8869 46.5406 76.8869 49.6606 76.8869 54.1406C76.8869 58.2606 74.4069 60.7006 70.6069 61.6606V61.7806C72.8869 62.5006 74.1269 64.0206 74.1269 66.7006C74.1269 68.3406 73.8069 70.8206 73.8069 73.0206C73.8069 73.9006 73.9669 74.6606 74.3669 74.8606V75.1406H68.8469C68.5269 74.7806 68.4069 73.9806 68.4069 73.0206C68.4069 71.2206 68.6469 69.1406 68.6469 67.5006C68.6469 64.9406 67.2069 63.6606 64.3269 63.6606H59.1269L56.9269 75.1406H51.2069ZM61.5669 51.1806L60.0069 59.2206H65.9669C68.7269 59.2206 71.1669 57.9406 71.1669 54.7806C71.1669 52.4606 69.8869 51.1806 67.3669 51.1806H61.5669ZM96.365 66.3806H82.085C82.085 69.6206 83.165 71.5806 86.285 71.5806C88.165 71.5806 89.725 70.7806 90.485 69.0206H95.765C95.125 70.9406 94.045 72.5006 92.605 73.6206C90.885 74.9806 88.685 75.7006 86.205 75.7406C80.885 75.7406 76.765 72.7806 76.765 66.3006C76.765 60.3406 81.125 54.0606 87.765 54.0606C90.005 54.0606 91.565 54.5006 92.925 55.3806C96.005 57.3806 97.125 61.4606 96.365 66.3806ZM87.645 58.2206C84.805 58.2206 83.285 60.2606 82.565 62.6606H91.405C91.485 60.2606 90.405 58.2206 87.645 58.2206ZM110.129 75.1406C109.889 74.7006 109.809 73.8206 109.849 72.9006H109.769C108.529 74.2206 107.009 75.6206 104.049 75.6206C100.889 75.6206 97.5294 73.8206 97.5294 69.5806C97.5294 64.1406 101.849 63.1406 106.849 62.7406C110.689 62.4206 112.169 62.2606 112.169 60.2206C112.169 58.7406 111.009 57.9406 108.969 57.9406C106.729 57.9406 105.249 58.8206 104.769 60.8606H99.9694C100.649 56.6606 103.889 54.1006 109.169 54.1006C114.249 54.1006 118.089 56.3006 116.969 62.2606L115.049 72.1006C114.769 73.5006 114.889 74.4606 115.209 74.9406V75.1406H110.129ZM102.689 69.1006C102.689 70.9406 103.969 71.9006 105.769 71.9006C108.569 71.9006 110.369 70.1406 110.769 68.2606L111.409 65.0206C110.369 65.5006 109.249 65.7406 107.489 66.0606C105.529 66.4206 102.689 66.3006 102.689 69.1006ZM127.761 75.7406C122.761 75.7406 118.601 72.9406 118.601 66.6606C118.601 60.3406 122.801 54.0606 129.801 54.0606C134.361 54.0606 138.041 56.2206 138.321 61.5806H133.081C132.881 59.6206 131.801 58.3806 129.641 58.3806C125.681 58.3806 123.961 62.9006 123.961 66.8206C123.961 69.4606 125.121 71.4206 128.081 71.4206C130.081 71.4206 131.641 70.3406 132.361 67.9006H137.561C136.441 72.8206 132.801 75.7406 127.761 75.7406ZM139.957 58.2206L140.637 54.6206H143.237L144.477 48.2206H149.717L148.477 54.6206H151.917L151.237 58.2206H147.797L145.717 68.9006C145.397 70.5006 145.917 71.1406 147.237 71.1406C147.837 71.1406 148.837 71.0606 148.837 71.0606L148.077 75.0606C148.077 75.0606 146.717 75.1806 145.637 75.1806C141.477 75.1806 139.517 73.6606 140.357 69.4206L142.557 58.2206H139.957ZM150.728 75.1406L154.688 54.6206H160.048L156.088 75.1406H150.728ZM155.328 51.4206L156.248 46.5406H161.608L160.688 51.4206H155.328ZM170.117 75.7406C164.757 75.7406 160.477 72.4606 160.477 66.1806C160.477 59.7006 165.037 54.0606 172.037 54.0606C177.277 54.0606 181.517 57.3406 181.517 63.4206C181.517 69.9806 177.117 75.7406 170.117 75.7406ZM165.837 66.5006C165.837 69.3006 167.077 71.7006 170.237 71.7006C174.397 71.7006 176.157 67.1806 176.157 63.2606C176.157 60.5806 174.917 58.1006 171.757 58.1006C167.637 58.1006 165.837 62.5406 165.837 66.5006ZM191.139 54.6206L190.539 57.8606H190.659C192.419 55.3406 194.139 54.0606 197.059 54.0606C201.139 54.0606 203.499 57.3806 202.579 62.1806L200.099 75.1406H194.739L197.139 62.8206C197.659 60.1006 196.619 58.6206 194.339 58.6206C191.819 58.6206 190.019 60.9406 189.459 63.9406L187.299 75.1406H181.939L185.899 54.6206H191.139ZM231.257 75.1406L231.737 71.6206H231.657C229.777 74.2206 226.937 75.7406 223.417 75.7406C216.737 75.7406 212.017 71.4206 212.017 63.5806C212.017 54.7006 218.137 45.9406 227.617 45.9806C233.457 46.0206 238.217 48.9406 238.657 55.5406H233.097C232.777 52.5406 230.577 50.7406 227.177 50.7406C221.097 50.7406 217.857 57.1406 217.857 63.5006C217.857 68.2606 220.057 71.1006 224.657 71.1006C228.777 71.1006 231.857 68.4606 232.537 64.3806H225.777L226.617 59.9406H238.457L235.537 75.1406H231.257ZM251.77 75.1406C251.53 74.7006 251.45 73.8206 251.49 72.9006H251.41C250.17 74.2206 248.65 75.6206 245.69 75.6206C242.53 75.6206 239.17 73.8206 239.17 69.5806C239.17 64.1406 243.49 63.1406 248.49 62.7406C252.33 62.4206 253.81 62.2606 253.81 60.2206C253.81 58.7406 252.65 57.9406 250.61 57.9406C248.37 57.9406 246.89 58.8206 246.41 60.8606H241.61C242.29 56.6606 245.53 54.1006 250.81 54.1006C255.89 54.1006 259.73 56.3006 258.61 62.2606L256.69 72.1006C256.41 73.5006 256.53 74.4606 256.85 74.9406V75.1406H251.77ZM244.33 69.1006C244.33 70.9406 245.61 71.9006 247.41 71.9006C250.21 71.9006 252.01 70.1406 252.41 68.2606L253.05 65.0206C252.01 65.5006 250.89 65.7406 249.13 66.0606C247.17 66.4206 244.33 66.3006 244.33 69.1006ZM259.517 75.1406L263.477 54.6206H268.637L268.077 57.6206H268.197C269.597 55.4206 271.437 54.0606 273.957 54.0606C276.717 54.0606 278.277 55.7006 278.877 57.9806H278.957C280.797 55.1806 283.037 54.0606 285.757 54.0606C289.437 54.0606 292.237 56.9406 291.157 62.3806L288.717 75.1406H283.357L285.797 62.5406C286.277 59.9806 285.237 58.6206 283.357 58.6206C281.077 58.6206 279.557 60.6606 278.957 63.8206L276.797 75.1406H271.437L273.877 62.5406C274.357 59.9806 273.317 58.6206 271.437 58.6206C269.157 58.6206 267.637 60.6606 267.037 63.8206L264.877 75.1406H259.517ZM312.498 66.3806H298.218C298.218 69.6206 299.298 71.5806 302.418 71.5806C304.298 71.5806 305.858 70.7806 306.618 69.0206H311.898C311.258 70.9406 310.178 72.5006 308.738 73.6206C307.018 74.9806 304.818 75.7006 302.338 75.7406C297.018 75.7406 292.898 72.7806 292.898 66.3006C292.898 60.3406 297.258 54.0606 303.898 54.0606C306.138 54.0606 307.698 54.5006 309.058 55.3806C312.138 57.3806 313.258 61.4606 312.498 66.3806ZM303.778 58.2206C300.938 58.2206 299.418 60.2606 298.698 62.6606H307.538C307.618 60.2606 306.538 58.2206 303.778 58.2206Z" fill="black"/>
</svg>
