<svg width="276" height="53" viewBox="0 0 276 53" fill="none" xmlns="http://www.w3.org/2000/svg">
<path d="M275.736 0.5H15.5613L0.953125 52.7427L261.17 52.761L275.736 0.5Z" fill="white"/>
<path d="M51.4413 36.1328V17.5328H53.9913V36.1328H51.4413ZM59.8604 22.7078V24.6078H59.9354C60.9104 23.2578 62.2354 22.3828 64.1854 22.3828C66.9854 22.3828 68.7105 23.9578 68.7105 26.7578V36.1328H66.4104V27.0328C66.4104 25.3078 65.2854 24.3328 63.4604 24.3328C61.3854 24.3328 59.8854 25.8078 59.8854 27.9578V36.1328H57.5604V22.7078H59.8604ZM71.7927 20.2328V17.5328H74.2177V20.2328H71.7927ZM71.8427 36.1328V22.7078H74.1677V36.1328H71.8427ZM76.5353 24.5078V22.7078H78.6353V18.4828H80.9353V22.7078H83.7103V24.5078H80.9353V32.9828C80.9353 33.9578 81.4603 34.2328 82.3103 34.2328C82.7103 34.2328 83.2353 34.1328 83.4853 34.0578H83.5603V36.0078C82.9353 36.1578 82.2853 36.2328 81.6853 36.2328C79.8853 36.2078 78.6353 35.4828 78.6353 33.5078V24.5078H76.5353ZM86.0749 20.2328V17.5328H88.4999V20.2328H86.0749ZM86.1249 36.1328V22.7078H88.4499V36.1328H86.1249ZM95.6425 36.4078C93.0925 36.4078 91.0925 35.1578 91.0925 32.5828C91.0925 29.4578 93.3925 28.7828 96.8675 28.3578C98.8425 28.1328 100.117 27.8078 100.117 26.4328C100.117 24.9828 99.0925 24.0828 97.2425 24.0828C95.1175 24.0828 94.0925 25.0828 94.0175 26.6828H91.7675C91.8675 24.4078 93.5925 22.3828 97.2175 22.3828C98.4925 22.3828 99.6175 22.6078 100.467 23.1078C101.592 23.7828 102.267 24.9578 102.267 26.7578V33.0328C102.267 34.1078 102.517 34.6828 103.692 34.4328H103.792V36.0578C103.467 36.1578 103.092 36.2578 102.542 36.2578C101.117 36.2578 100.417 35.5828 100.167 34.1578H100.142C99.2925 35.3328 97.9175 36.4078 95.6425 36.4078ZM96.2175 34.7078C98.8925 34.7078 100.142 32.7328 100.142 31.1828V28.9828C99.4675 29.4078 98.2925 29.7328 97.1925 29.9328C94.9925 30.3078 93.5425 30.7078 93.5425 32.5578C93.5425 34.2828 94.8675 34.7078 96.2175 34.7078ZM105.756 36.1328V17.5328H108.081V36.1328H105.756ZM118.31 36.1328V17.5328H127.01C130.335 17.5328 132.585 19.5828 132.585 22.6578C132.585 24.9328 131.66 26.5328 129.185 27.3078V27.3828C131.285 28.0078 131.885 29.2578 132.06 31.9328C132.285 34.8578 132.535 35.7578 132.91 36.0078V36.1328H130.185C129.76 35.7828 129.71 34.9328 129.51 31.9578C129.335 29.3328 128.235 28.3828 125.81 28.3828H120.86V36.1328H118.31ZM120.86 19.7328V26.3328H126.185C128.71 26.3328 129.96 25.0578 129.96 23.0328C129.96 20.8578 128.935 19.7328 126.31 19.7328H120.86ZM141.193 36.5078C137.068 36.5078 134.643 33.3578 134.643 29.4328C134.643 25.5328 137.218 22.3828 141.068 22.3828C143.068 22.3828 144.618 23.1578 145.668 24.4578C146.768 25.7828 147.318 27.7078 147.318 29.9828H137.018C137.193 32.6078 138.618 34.6078 141.218 34.6078C143.068 34.6078 144.343 33.7328 144.768 32.3078H147.043C146.443 34.8078 144.293 36.5078 141.193 36.5078ZM141.068 24.1828C138.643 24.1828 137.368 25.9328 137.068 28.3078H144.843C144.718 25.7328 143.393 24.1828 141.068 24.1828ZM154.947 36.5328C151.247 36.5328 149.147 34.7828 148.947 32.0578H151.297C151.572 34.0078 153.072 34.6578 154.997 34.6578C157.122 34.6578 158.022 33.7328 158.022 32.5328C158.022 31.0578 156.897 30.6828 154.522 30.2078C151.897 29.6578 149.522 29.1078 149.522 26.1578C149.522 23.8578 151.322 22.4078 154.447 22.4078C157.822 22.4078 159.497 23.9828 159.797 26.3078H157.472C157.272 24.9328 156.322 24.1578 154.397 24.1578C152.572 24.1578 151.797 25.0078 151.797 26.0328C151.797 27.4328 153.097 27.7078 155.372 28.1578C158.047 28.6828 160.347 29.2828 160.347 32.4078C160.347 35.1328 158.097 36.5328 154.947 36.5328ZM168.927 36.5078C164.802 36.5078 162.377 33.3578 162.377 29.4328C162.377 25.5328 164.952 22.3828 168.802 22.3828C170.802 22.3828 172.352 23.1578 173.402 24.4578C174.502 25.7828 175.052 27.7078 175.052 29.9828H164.752C164.927 32.6078 166.352 34.6078 168.952 34.6078C170.802 34.6078 172.077 33.7328 172.502 32.3078H174.777C174.177 34.8078 172.027 36.5078 168.927 36.5078ZM168.802 24.1828C166.377 24.1828 165.102 25.9328 164.802 28.3078H172.577C172.452 25.7328 171.127 24.1828 168.802 24.1828ZM181.531 36.4078C178.981 36.4078 176.981 35.1578 176.981 32.5828C176.981 29.4578 179.281 28.7828 182.756 28.3578C184.731 28.1328 186.006 27.8078 186.006 26.4328C186.006 24.9828 184.981 24.0828 183.131 24.0828C181.006 24.0828 179.981 25.0828 179.906 26.6828H177.656C177.756 24.4078 179.481 22.3828 183.106 22.3828C184.381 22.3828 185.506 22.6078 186.356 23.1078C187.481 23.7828 188.156 24.9578 188.156 26.7578V33.0328C188.156 34.1078 188.406 34.6828 189.581 34.4328H189.681V36.0578C189.356 36.1578 188.981 36.2578 188.431 36.2578C187.006 36.2578 186.306 35.5828 186.056 34.1578H186.031C185.181 35.3328 183.806 36.4078 181.531 36.4078ZM182.106 34.7078C184.781 34.7078 186.031 32.7328 186.031 31.1828V28.9828C185.356 29.4078 184.181 29.7328 183.081 29.9328C180.881 30.3078 179.431 30.7078 179.431 32.5578C179.431 34.2828 180.756 34.7078 182.106 34.7078ZM193.869 22.7078V25.1328H193.944C194.769 23.5828 196.144 22.5328 197.919 22.5328C198.294 22.5328 198.519 22.5828 198.769 22.6828V24.8828H198.694C198.369 24.7828 198.144 24.7578 197.744 24.7578C195.669 24.7578 193.894 26.3078 193.894 28.8328V36.1328H191.569V22.7078H193.869ZM206.379 36.5078C202.354 36.5078 199.829 33.3578 199.829 29.4328C199.829 25.5328 202.354 22.3828 206.379 22.3828C209.604 22.3828 211.704 24.2078 212.179 27.0828H209.854C209.529 25.3328 208.329 24.2578 206.379 24.2578C203.629 24.2578 202.204 26.5328 202.204 29.4328C202.204 32.3328 203.629 34.6078 206.379 34.6078C208.479 34.6078 209.729 33.3828 209.904 31.3828H212.204C211.904 34.5828 209.779 36.5078 206.379 36.5078ZM216.868 22.4078C216.868 23.0828 216.818 24.0078 216.793 24.6578H216.868C217.868 23.2328 219.218 22.3828 221.168 22.3828C223.968 22.3828 225.693 23.9578 225.693 26.7578V36.1328H223.393V27.0328C223.393 25.3078 222.268 24.3328 220.443 24.3328C218.368 24.3328 216.868 25.8078 216.868 27.9578V36.1328H214.543V17.5328H216.868V22.4078Z" fill="black"/>
</svg>
