<svg width="369" height="122" viewBox="0 0 369 122" fill="none" xmlns="http://www.w3.org/2000/svg">
<path d="M350.376 0.710938L-232.74 0.749708L-266.551 121.826L316.663 121.829L350.376 0.710938Z" fill="white"/>
<path d="M68.4469 75.1719L67.6469 69.0519H57.7669L54.8869 75.1719H49.0869L63.7269 46.5719H69.6469L74.3669 75.1719H68.4469ZM63.7269 56.5319L59.8469 64.6519H67.0869L66.0869 56.6119C65.8869 54.9719 65.7269 52.0519 65.7269 52.0519H65.6469C65.6469 52.0519 64.4469 55.0119 63.7269 56.5319ZM84.7922 75.7719C79.7922 75.7719 75.6322 72.9719 75.6322 66.6919C75.6322 60.3719 79.8322 54.0919 86.8322 54.0919C91.3922 54.0919 95.0722 56.2519 95.3522 61.6119H90.1122C89.9122 59.6519 88.8322 58.4119 86.6722 58.4119C82.7122 58.4119 80.9922 62.9319 80.9922 66.8519C80.9922 69.4919 82.1522 71.4519 85.1122 71.4519C87.1122 71.4519 88.6722 70.3719 89.3922 67.9319H94.5922C93.4722 72.8519 89.8322 75.7719 84.7922 75.7719ZM96.9884 58.2519L97.6684 54.6519H100.268L101.508 48.2519H106.748L105.508 54.6519H108.948L108.268 58.2519H104.828L102.748 68.9319C102.428 70.5319 102.948 71.1719 104.268 71.1719C104.868 71.1719 105.868 71.0919 105.868 71.0919L105.108 75.0919C105.108 75.0919 103.748 75.2119 102.668 75.2119C98.5084 75.2119 96.5484 73.6919 97.3884 69.4519L99.5884 58.2519H96.9884ZM107.759 75.1719L111.719 54.6519H117.079L113.119 75.1719H107.759ZM112.359 51.4519L113.279 46.5719H118.639L117.719 51.4519H112.359ZM122.073 75.1719L118.673 54.6519H124.113L125.393 65.0119C125.673 67.2519 125.753 68.6919 125.753 68.6919H125.833C125.833 68.6919 126.353 67.2519 127.313 65.2919L132.273 54.6519H137.633L127.193 75.1719H122.073ZM135.454 75.1719L139.414 54.6519H144.774L140.814 75.1719H135.454ZM140.054 51.4519L140.974 46.5719H146.334L145.414 51.4519H140.054ZM146.363 58.2519L147.043 54.6519H149.643L150.883 48.2519H156.123L154.883 54.6519H158.323L157.643 58.2519H154.203L152.123 68.9319C151.803 70.5319 152.323 71.1719 153.643 71.1719C154.243 71.1719 155.243 71.0919 155.243 71.0919L154.483 75.0919C154.483 75.0919 153.123 75.2119 152.043 75.2119C147.883 75.2119 145.923 73.6919 146.763 69.4519L148.963 58.2519H146.363ZM156.894 81.8919L157.734 77.6519H159.454C161.734 77.6519 163.014 76.4119 163.014 73.8519C163.014 72.8519 162.774 71.3319 162.334 69.2519L159.374 54.6519H164.974L166.374 63.9719C166.654 65.8519 166.974 68.6119 166.974 68.6119H167.054C167.054 68.6119 168.054 65.8919 168.934 63.9719L173.174 54.6519H178.614L168.014 76.1719C165.974 80.2919 164.214 81.8919 160.254 81.8919H156.894ZM184.058 75.1719L189.578 46.5719H201.058C203.418 46.5719 205.498 47.1319 206.978 48.3319C208.378 49.4519 209.218 51.1719 209.218 53.4919C209.218 56.8519 207.298 59.2119 203.938 60.1719V60.2919C206.858 61.0919 208.378 63.0919 208.338 66.2519C208.338 68.5719 207.458 70.5719 205.698 72.2519C203.738 74.1319 201.138 75.1719 197.258 75.1719H184.058ZM192.258 62.3719L190.698 70.4119H197.298C200.458 70.4119 202.538 69.0119 202.538 66.0119C202.538 63.5719 200.898 62.3719 198.498 62.3719H192.258ZM193.098 58.1319H199.018C201.378 58.1319 203.658 57.3719 203.658 54.2519C203.658 52.4519 202.658 51.2519 200.298 51.2519H194.418L193.098 58.1319ZM220 75.7719C214.64 75.7719 210.36 72.4919 210.36 66.2119C210.36 59.7319 214.92 54.0919 221.92 54.0919C227.16 54.0919 231.4 57.3719 231.4 63.4519C231.4 70.0119 227 75.7719 220 75.7719ZM215.72 66.5319C215.72 69.3319 216.96 71.7319 220.12 71.7319C224.28 71.7319 226.04 67.2119 226.04 63.2919C226.04 60.6119 224.8 58.1319 221.64 58.1319C217.52 58.1319 215.72 62.5719 215.72 66.5319ZM242.422 75.7719C237.062 75.7719 232.782 72.4919 232.782 66.2119C232.782 59.7319 237.342 54.0919 244.342 54.0919C249.582 54.0919 253.822 57.3719 253.822 63.4519C253.822 70.0119 249.422 75.7719 242.422 75.7719ZM238.142 66.5319C238.142 69.3319 239.382 71.7319 242.542 71.7319C246.702 71.7319 248.462 67.2119 248.462 63.2919C248.462 60.6119 247.222 58.1319 244.062 58.1319C239.942 58.1319 238.142 62.5719 238.142 66.5319ZM267.763 75.1719L263.843 65.8919L260.803 68.6119L259.563 75.1719H254.243L259.763 46.5719H265.083L261.963 62.6119L270.003 54.6519H276.563L268.003 62.6919L273.723 75.1719H267.763Z" fill="black"/>
</svg>
