<svg width="209" height="53" viewBox="0 0 209 53" fill="none" xmlns="http://www.w3.org/2000/svg">
<path d="M207.03 0.5L15.7605 0.504616L1.15234 52.7473L192.464 52.761L207.03 0.5Z" fill="white"/>
<path d="M56.4589 36.1406L51.6089 17.5406H54.2839L56.9589 28.4906C57.4089 30.3156 57.8339 33.4156 57.8339 33.4156H57.8839C57.8839 33.4156 58.3839 30.2906 58.8589 28.4656L61.8589 17.5406H64.5589L67.4589 28.4656C67.9339 30.2906 68.4339 33.4156 68.4339 33.4156H68.4839C68.4839 33.4156 68.9589 30.3156 69.4089 28.4906L72.1839 17.5406H74.8089L69.6339 36.1406H67.1589L64.1089 24.2406C63.6839 22.5906 63.2339 19.5906 63.2339 19.5906H63.1839C63.1839 19.5906 62.7089 22.5906 62.2839 24.2156L59.0089 36.1406H56.4589ZM81.4599 36.5156C77.3349 36.5156 74.9099 33.3656 74.9099 29.4406C74.9099 25.5406 77.4849 22.3906 81.3349 22.3906C83.3349 22.3906 84.8849 23.1656 85.9349 24.4656C87.0349 25.7906 87.5849 27.7156 87.5849 29.9906H77.2849C77.4599 32.6156 78.8849 34.6156 81.4849 34.6156C83.3349 34.6156 84.6099 33.7406 85.0349 32.3156H87.3099C86.7099 34.8156 84.5599 36.5156 81.4599 36.5156ZM81.3349 24.1906C78.9099 24.1906 77.6349 25.9406 77.3349 28.3156H85.1099C84.9849 25.7406 83.6599 24.1906 81.3349 24.1906ZM96.6386 36.5406C94.8386 36.5406 93.3136 35.7406 92.4386 34.2406H92.3636V36.1406H90.0636V17.5406H92.3886V22.2906C92.3886 23.3156 92.3386 24.2656 92.3136 24.8406H92.3886C93.2636 23.4156 94.7636 22.3906 96.7136 22.3906C100.114 22.3906 102.439 25.0406 102.439 29.4656C102.439 33.7906 100.264 36.5406 96.6386 36.5406ZM96.3886 34.6156C98.8636 34.6156 100.064 32.4406 100.064 29.4906C100.064 26.5406 98.8636 24.3406 96.4136 24.3406C93.5636 24.3406 92.2636 26.6406 92.2636 29.4906C92.2636 32.4156 93.6386 34.6156 96.3886 34.6156ZM110.423 36.1406L117.223 17.5406H120.073L126.923 36.1406H124.123L122.273 30.7156H114.948L113.048 36.1406H110.423ZM117.473 23.5156L115.648 28.7156H121.598L119.823 23.5156C119.198 21.7156 118.698 19.5656 118.698 19.5656H118.623C118.623 19.5656 118.073 21.7906 117.473 23.5156ZM129.004 40.6906V22.7156H131.304V24.8156H131.379C132.379 23.2906 133.729 22.3906 135.654 22.3906C139.079 22.3906 141.429 25.0406 141.429 29.4656C141.429 33.7656 139.204 36.5406 135.579 36.5406C133.754 36.5406 132.279 35.7906 131.354 34.3656H131.279C131.304 34.8406 131.329 35.5906 131.329 36.6156V40.6906H129.004ZM135.329 34.6156C137.804 34.6156 139.054 32.4406 139.054 29.5156C139.054 26.5656 137.829 24.3656 135.354 24.3656C132.504 24.3656 131.204 26.6656 131.204 29.5156C131.204 32.3406 132.354 34.6156 135.329 34.6156ZM143.897 40.6906V22.7156H146.197V24.8156H146.272C147.272 23.2906 148.622 22.3906 150.547 22.3906C153.972 22.3906 156.322 25.0406 156.322 29.4656C156.322 33.7656 154.097 36.5406 150.472 36.5406C148.647 36.5406 147.172 35.7906 146.247 34.3656H146.172C146.197 34.8406 146.222 35.5906 146.222 36.6156V40.6906H143.897ZM150.222 34.6156C152.697 34.6156 153.947 32.4406 153.947 29.5156C153.947 26.5656 152.722 24.3656 150.247 24.3656C147.397 24.3656 146.097 26.6656 146.097 29.5156C146.097 32.3406 147.247 34.6156 150.222 34.6156Z" fill="black"/>
</svg>
