<svg width="161" height="53" viewBox="0 0 161 53" fill="none" xmlns="http://www.w3.org/2000/svg">
<path d="M160.402 0.5L14.8426 0.502351L0.234375 52.745L145.836 52.761L160.402 0.5Z" fill="white"/>
<path d="M49.9895 19.7828V17.5328H64.7895V19.7828H58.6645V36.1328H56.0895V19.7828H49.9895ZM67.5921 22.7078V25.1328H67.6671C68.4921 23.5828 69.8671 22.5328 71.6421 22.5328C72.0171 22.5328 72.2421 22.5828 72.4921 22.6828V24.8828H72.4171C72.0921 24.7828 71.8671 24.7578 71.4671 24.7578C69.3921 24.7578 67.6171 26.3078 67.6171 28.8328V36.1328H65.2921V22.7078H67.5921ZM74.7147 20.2328V17.5328H77.1397V20.2328H74.7147ZM74.7647 36.1328V22.7078H77.0897V36.1328H74.7647ZM83.4823 36.1328L78.8073 22.7078H81.2823L83.6323 29.9578C84.2073 31.7578 84.8573 34.2328 84.8573 34.2328H84.9073C84.9073 34.2328 85.4823 31.7578 86.0823 29.9578L88.4823 22.7078H90.8823L86.0573 36.1328H83.4823ZM92.5614 20.2328V17.5328H94.9864V20.2328H92.5614ZM92.6114 36.1328V22.7078H94.9364V36.1328H92.6114ZM102.129 36.4078C99.579 36.4078 97.579 35.1578 97.579 32.5828C97.579 29.4578 99.879 28.7828 103.354 28.3578C105.329 28.1328 106.604 27.8078 106.604 26.4328C106.604 24.9828 105.579 24.0828 103.729 24.0828C101.604 24.0828 100.579 25.0828 100.504 26.6828H98.254C98.354 24.4078 100.079 22.3828 103.704 22.3828C104.979 22.3828 106.104 22.6078 106.954 23.1078C108.079 23.7828 108.754 24.9578 108.754 26.7578V33.0328C108.754 34.1078 109.004 34.6828 110.179 34.4328H110.279V36.0578C109.954 36.1578 109.579 36.2578 109.029 36.2578C107.604 36.2578 106.904 35.5828 106.654 34.1578H106.629C105.779 35.3328 104.404 36.4078 102.129 36.4078ZM102.704 34.7078C105.379 34.7078 106.629 32.7328 106.629 31.1828V28.9828C105.954 29.4078 104.779 29.7328 103.679 29.9328C101.479 30.3078 100.029 30.7078 100.029 32.5578C100.029 34.2828 101.354 34.7078 102.704 34.7078Z" fill="black"/>
</svg>
