<svg width="253" height="53" viewBox="0 0 253 53" fill="none" xmlns="http://www.w3.org/2000/svg">
<path d="M252.769 0.5H15.2332L0.625 52.7427L238.203 52.761L252.769 0.5Z" fill="white"/>
<path d="M50.9757 36.1328L57.7757 17.5328H60.6257L67.4757 36.1328H64.6757L62.8257 30.7078H55.5007L53.6007 36.1328H50.9757ZM58.0257 23.5078L56.2007 28.7078H62.1507L60.3757 23.5078C59.7507 21.7078 59.2507 19.5578 59.2507 19.5578H59.1757C59.1757 19.5578 58.6257 21.7828 58.0257 23.5078ZM74.8935 36.5078C70.8685 36.5078 68.3435 33.3578 68.3435 29.4328C68.3435 25.5328 70.8685 22.3828 74.8935 22.3828C78.1185 22.3828 80.2185 24.2078 80.6935 27.0828H78.3685C78.0435 25.3328 76.8435 24.2578 74.8935 24.2578C72.1435 24.2578 70.7185 26.5328 70.7185 29.4328C70.7185 32.3328 72.1435 34.6078 74.8935 34.6078C76.9935 34.6078 78.2435 33.3828 78.4185 31.3828H80.7185C80.4185 34.5828 78.2935 36.5078 74.8935 36.5078ZM82.2327 24.5078V22.7078H84.3327V18.4828H86.6327V22.7078H89.4077V24.5078H86.6327V32.9828C86.6327 33.9578 87.1577 34.2328 88.0077 34.2328C88.4077 34.2328 88.9327 34.1328 89.1827 34.0578H89.2577V36.0078C88.6327 36.1578 87.9827 36.2328 87.3827 36.2328C85.5827 36.2078 84.3327 35.4828 84.3327 33.5078V24.5078H82.2327ZM91.7724 20.2328V17.5328H94.1974V20.2328H91.7724ZM91.8224 36.1328V22.7078H94.1474V36.1328H91.8224ZM100.54 36.1328L95.8649 22.7078H98.3399L100.69 29.9578C101.265 31.7578 101.915 34.2328 101.915 34.2328H101.965C101.965 34.2328 102.54 31.7578 103.14 29.9578L105.54 22.7078H107.94L103.115 36.1328H100.54ZM109.619 20.2328V17.5328H112.044V20.2328H109.619ZM109.669 36.1328V22.7078H111.994V36.1328H109.669ZM114.362 24.5078V22.7078H116.462V18.4828H118.762V22.7078H121.537V24.5078H118.762V32.9828C118.762 33.9578 119.287 34.2328 120.137 34.2328C120.537 34.2328 121.062 34.1328 121.312 34.0578H121.387V36.0078C120.762 36.1578 120.112 36.2328 119.512 36.2328C117.712 36.2078 116.462 35.4828 116.462 33.5078V24.5078H114.362ZM125.601 40.8078C124.851 40.8078 124.001 40.6828 123.626 40.5328V38.5328H123.726C123.976 38.6828 124.551 38.7828 125.126 38.7828C126.051 38.7828 126.651 38.4328 127.126 37.1578C127.126 37.1078 127.651 35.6078 127.601 35.4578L122.476 22.7078H125.001L127.776 30.1578C128.326 31.6828 128.901 33.7828 128.901 33.7828H128.951C128.951 33.7828 129.576 31.6578 130.101 30.1578L132.776 22.7078H135.201L129.501 37.3578C128.401 40.1828 127.326 40.8078 125.601 40.8078ZM143.881 36.1328V17.5328H151.881C153.806 17.5328 155.281 18.0578 156.331 19.1078C157.106 19.9078 157.581 20.9828 157.581 22.3328C157.581 24.3578 156.431 25.6578 154.431 26.2328V26.3078C156.706 26.8328 158.331 28.3328 158.331 30.7828C158.331 32.2578 157.806 33.5078 156.906 34.4078C155.856 35.5078 154.256 36.1328 152.256 36.1328H143.881ZM146.431 25.4578H151.531C153.706 25.4578 155.006 24.3828 155.006 22.5078C155.006 20.7578 153.831 19.7328 151.831 19.7328H146.431V25.4578ZM146.431 33.8828H152.106C153.381 33.8828 154.306 33.5578 154.906 32.9578C155.431 32.4578 155.731 31.7328 155.731 30.8578C155.731 28.6328 154.156 27.5328 151.956 27.5328H146.431V33.8828ZM166.935 36.5078C162.885 36.5078 160.36 33.3578 160.36 29.4328C160.36 25.5328 162.885 22.3828 166.935 22.3828C170.985 22.3828 173.46 25.5328 173.46 29.4328C173.46 33.3578 170.985 36.5078 166.935 36.5078ZM166.91 34.6078C169.66 34.6078 171.085 32.3328 171.085 29.4328C171.085 26.5328 169.66 24.2328 166.91 24.2328C164.16 24.2328 162.735 26.5328 162.735 29.4328C162.735 32.3328 164.16 34.6078 166.91 34.6078ZM181.779 36.5078C177.729 36.5078 175.204 33.3578 175.204 29.4328C175.204 25.5328 177.729 22.3828 181.779 22.3828C185.829 22.3828 188.304 25.5328 188.304 29.4328C188.304 33.3578 185.829 36.5078 181.779 36.5078ZM181.754 34.6078C184.504 34.6078 185.929 32.3328 185.929 29.4328C185.929 26.5328 184.504 24.2328 181.754 24.2328C179.004 24.2328 177.579 26.5328 177.579 29.4328C177.579 32.3328 179.004 34.6078 181.754 34.6078ZM199.598 36.1328L194.998 29.0578L193.098 30.8578V36.1328H190.773V17.5328H193.098V26.3578C193.098 26.8328 193.048 27.7828 192.998 28.4328L198.823 22.7078H201.723L196.598 27.5328L202.323 36.1328H199.598Z" fill="black"/>
</svg>
