<svg width="280" height="53" viewBox="0 0 280 53" fill="none" xmlns="http://www.w3.org/2000/svg">
<path d="M279.126 0.5L15.5105 0.503825L0.902344 52.7465L264.56 52.761L279.126 0.5Z" fill="#FFDB3B"/>
<path d="M51.8541 36.1328L55.4791 17.5328H62.9291C66.3291 17.5328 68.7541 19.4828 68.5041 22.6578C68.3791 25.0328 67.0541 26.7578 64.3041 27.4828V27.5578C65.9541 28.0828 66.7791 29.1578 66.7791 31.0578C66.7791 32.3328 66.6041 33.7078 66.6041 34.6078C66.6041 35.4078 66.7291 35.8078 66.9291 35.9078L66.9041 36.1328H63.5791C63.4041 35.9828 63.2541 35.5328 63.2541 34.9328C63.2541 33.9328 63.4541 32.6078 63.4541 31.2828C63.4541 29.5328 62.5791 28.6828 60.4541 28.6828H56.7291L55.2791 36.1328H51.8541ZM58.3541 20.2828L57.2291 26.1078H61.3041C63.7791 26.1078 65.0041 24.8578 65.1041 22.9578C65.1791 21.3328 64.4041 20.2828 62.3041 20.2828H58.3541ZM75.048 36.5328C71.073 36.5328 68.998 33.9328 68.998 30.5828C68.998 26.1078 71.998 22.4078 76.398 22.4078C80.198 22.4078 81.998 24.9578 81.998 28.3578C81.998 28.9578 81.948 29.5828 81.848 30.2328H72.023V30.6078C72.023 32.8828 73.098 34.1828 75.223 34.1828C76.573 34.1828 77.698 33.5578 78.223 32.3328H81.348C80.323 35.0328 77.998 36.5328 75.048 36.5328ZM76.273 24.6828C74.198 24.6828 72.873 26.3078 72.323 28.2828H78.923C79.223 26.1578 78.323 24.6828 76.273 24.6828ZM87.1268 36.4578C84.5768 36.4578 82.9268 35.0578 82.9268 32.8078C82.9268 29.7078 85.2768 28.8578 88.7518 28.4828C91.5018 28.2078 92.7018 27.8828 92.6768 26.3328C92.6518 25.3078 91.8768 24.5828 90.3518 24.5828C88.7018 24.5828 87.6518 25.3828 87.3518 26.8078H84.4018C84.8518 24.2328 86.9768 22.4328 90.4268 22.4328C94.1268 22.4328 96.0268 24.3328 95.3768 27.7078L94.3268 33.1828C93.9768 34.9328 94.1768 35.6078 94.4768 35.9078V36.1328H91.5018C91.3268 35.8078 91.1768 35.3328 91.1768 34.5578H91.1018C90.2018 35.7328 88.8768 36.4578 87.1268 36.4578ZM88.1518 34.4578C90.2268 34.4578 91.4268 33.0828 91.7018 31.5328L92.1518 29.3828C91.2768 29.8828 90.3518 30.0578 88.8768 30.3078C87.0768 30.6328 86.0518 31.2078 86.0518 32.6328C86.0518 33.9328 87.0518 34.4578 88.1518 34.4578ZM102.9 36.5578C99.2754 36.5578 97.0004 34.2578 97.0004 30.7578C97.0004 26.1078 99.9504 22.4328 104.425 22.4328C107.95 22.4328 109.725 24.5828 109.875 27.2328H106.85C106.775 25.8078 105.975 24.8078 104.275 24.8078C101.6 24.8078 100.125 27.8078 100.125 30.8828C100.125 32.9328 101.1 34.1578 102.925 34.1578C104.6 34.1578 105.775 33.1578 106.325 31.2828H109.425C108.6 34.7578 106.175 36.5578 102.9 36.5578ZM111.351 24.9078L111.776 22.7828H113.776L114.601 18.5328H117.676L116.851 22.7828H119.351L118.926 24.9078H116.426L114.976 32.3828C114.776 33.4578 115.251 33.8078 116.151 33.8078C116.501 33.8078 116.901 33.7328 117.126 33.7078H117.226L116.801 36.0578C116.376 36.1578 115.751 36.2578 114.901 36.2578C112.751 36.2578 111.376 35.0828 111.851 32.7078L113.351 24.9078H111.351ZM119.28 36.1328L121.855 22.7828H124.98L122.38 36.1328H119.28ZM122.255 20.6078L122.855 17.5328H126.055L125.43 20.6078H122.255ZM131.86 36.5328C128.06 36.5328 125.835 33.9328 125.835 30.4578C125.835 26.0578 128.985 22.4078 133.36 22.4078C137.135 22.4078 139.385 25.0078 139.385 28.4578C139.385 32.9328 136.235 36.5328 131.86 36.5328ZM131.985 34.2078C134.635 34.2078 136.21 31.3328 136.21 28.4328C136.21 26.1828 135.185 24.7078 133.21 24.7078C130.585 24.7078 128.985 27.6078 128.985 30.5328C128.985 32.7578 129.985 34.2078 131.985 34.2078ZM140.177 36.1328L142.777 22.7828H145.802L145.402 24.8578H145.452C146.477 23.3328 148.002 22.4078 149.852 22.4078C152.527 22.4078 154.152 24.5578 153.552 27.5328L151.852 36.1328H148.752L150.402 27.7078C150.727 26.0578 150.102 25.0078 148.377 25.0078C146.677 25.0078 145.227 26.2328 144.852 28.1828L143.302 36.1328H140.177ZM169.284 36.5328C166.634 36.5328 164.734 35.5828 163.484 33.9328C162.434 32.5578 161.884 30.6828 161.884 28.6328C161.884 24.8578 163.434 21.4078 166.059 19.3328C167.709 17.9328 169.784 17.1828 172.209 17.1828C176.559 17.1828 179.059 19.5828 179.334 23.0828H175.884C175.709 21.2828 174.484 20.0078 171.934 20.0078C167.484 20.0078 165.384 24.6078 165.384 28.4828C165.384 31.8578 167.034 33.7578 169.884 33.7578C172.809 33.7578 174.909 31.7828 175.309 29.2078L175.384 28.8828H170.884L171.409 26.2328H179.109L177.184 36.1328H174.884L174.909 33.6578H174.834C173.584 35.4828 171.609 36.5328 169.284 36.5328ZM184.148 36.4578C181.598 36.4578 179.948 35.0578 179.948 32.8078C179.948 29.7078 182.298 28.8578 185.773 28.4828C188.523 28.2078 189.723 27.8828 189.698 26.3328C189.673 25.3078 188.898 24.5828 187.373 24.5828C185.723 24.5828 184.673 25.3828 184.373 26.8078H181.423C181.873 24.2328 183.998 22.4328 187.448 22.4328C191.148 22.4328 193.048 24.3328 192.398 27.7078L191.348 33.1828C190.998 34.9328 191.198 35.6078 191.498 35.9078V36.1328H188.523C188.348 35.8078 188.198 35.3328 188.198 34.5578H188.123C187.223 35.7328 185.898 36.4578 184.148 36.4578ZM185.173 34.4578C187.248 34.4578 188.448 33.0828 188.723 31.5328L189.173 29.3828C188.298 29.8828 187.373 30.0578 185.898 30.3078C184.098 30.6328 183.073 31.2078 183.073 32.6328C183.073 33.9328 184.073 34.4578 185.173 34.4578ZM193.644 36.1328L196.244 22.7828H199.244L198.844 24.8828H198.894C199.994 23.3578 201.319 22.4078 203.094 22.4078C204.744 22.4078 205.869 23.3828 206.244 24.9828H206.294C207.544 23.3078 209.119 22.4078 210.769 22.4078C213.319 22.4078 214.794 24.4578 214.244 27.3328L212.519 36.1328H209.444L211.119 27.4828C211.419 25.9328 210.819 25.0078 209.344 25.0078C207.919 25.0078 206.594 26.1828 206.219 28.1078L204.644 36.1328H201.519L203.219 27.5078C203.494 25.9328 202.919 25.0078 201.519 25.0078C200.119 25.0078 198.669 26.1828 198.319 28.1328L196.769 36.1328H193.644ZM221.923 36.5328C217.948 36.5328 215.873 33.9328 215.873 30.5828C215.873 26.1078 218.873 22.4078 223.273 22.4078C227.073 22.4078 228.873 24.9578 228.873 28.3578C228.873 28.9578 228.823 29.5828 228.723 30.2328H218.898V30.6078C218.898 32.8828 219.973 34.1828 222.098 34.1828C223.448 34.1828 224.573 33.5578 225.098 32.3328H228.223C227.198 35.0328 224.873 36.5328 221.923 36.5328ZM223.148 24.6828C221.073 24.6828 219.748 26.3078 219.198 28.2828H225.798C226.098 26.1578 225.198 24.6828 223.148 24.6828Z" fill="black"/>
</svg>
