<svg width="253" height="54" viewBox="0 0 253 54" fill="none" xmlns="http://www.w3.org/2000/svg">
<path d="M252.769 0.953125H15.2332L0.625 53.1958L238.203 53.2141L252.769 0.953125Z" fill="#FFDB3B"/>
<path d="M48.5393 36.5859L58.7643 17.9859H62.3893L65.4393 36.5859H61.8893L61.2893 32.1359H54.3893L52.0643 36.5859H48.5393ZM58.0143 25.2859L55.7143 29.6359H60.9393L60.3893 25.4359C60.1393 23.6609 60.0643 20.6859 60.0643 20.6859H60.0143C60.0143 20.6859 58.9643 23.4609 58.0143 25.2859ZM72.7861 37.0109C69.1611 37.0109 66.8861 34.7109 66.8861 31.2109C66.8861 26.5609 69.8361 22.8859 74.3111 22.8859C77.8361 22.8859 79.6111 25.0359 79.7611 27.6859H76.7361C76.6611 26.2609 75.8611 25.2609 74.1611 25.2609C71.4861 25.2609 70.0111 28.2609 70.0111 31.3359C70.0111 33.3859 70.9861 34.6109 72.8111 34.6109C74.4861 34.6109 75.6611 33.6109 76.2111 31.7359H79.3111C78.4861 35.2109 76.0611 37.0109 72.7861 37.0109ZM81.2371 25.3609L81.6621 23.2359H83.6621L84.4871 18.9859H87.5621L86.7371 23.2359H89.2371L88.8121 25.3609H86.3121L84.8621 32.8359C84.6621 33.9109 85.1371 34.2609 86.0371 34.2609C86.3871 34.2609 86.7871 34.1859 87.0121 34.1609H87.1121L86.6871 36.5109C86.2621 36.6109 85.6371 36.7109 84.7871 36.7109C82.6371 36.7109 81.2621 35.5359 81.7371 33.1609L83.2371 25.3609H81.2371ZM89.1656 36.5859L91.7406 23.2359H94.8656L92.2656 36.5859H89.1656ZM92.1406 21.0609L92.7406 17.9859H95.9406L95.3156 21.0609H92.1406ZM98.4203 36.5859L96.4953 23.2359H99.6203L100.32 29.4109C100.545 31.3109 100.62 33.9359 100.62 33.9359H100.695C100.695 33.9359 101.67 31.3109 102.595 29.5109L105.795 23.2359H109.07L101.82 36.5859H98.4203ZM108.111 36.5859L110.686 23.2359H113.811L111.211 36.5859H108.111ZM111.086 21.0609L111.686 17.9859H114.886L114.261 21.0609H111.086ZM115.466 25.3609L115.891 23.2359H117.891L118.716 18.9859H121.791L120.966 23.2359H123.466L123.041 25.3609H120.541L119.091 32.8359C118.891 33.9109 119.366 34.2609 120.266 34.2609C120.616 34.2609 121.016 34.1859 121.241 34.1609H121.341L120.916 36.5109C120.491 36.6109 119.866 36.7109 119.016 36.7109C116.866 36.7109 115.491 35.5359 115.966 33.1609L117.466 25.3609H115.466ZM124.866 41.1359C124.441 41.1359 122.866 41.0609 122.616 40.9609L123.116 38.4859H123.216C123.341 38.5359 124.191 38.6109 124.541 38.6109C125.591 38.6109 126.266 38.1359 126.716 37.0859C126.766 36.8359 127.141 35.5609 127.016 34.8359L124.791 23.2359H127.966L128.941 29.3109C129.216 31.0359 129.316 33.5859 129.316 33.5859H129.391C129.391 33.5859 130.291 31.2109 131.191 29.5109L134.491 23.2359H137.766L129.916 37.3359C128.266 40.3109 126.966 41.1359 124.866 41.1359ZM143.102 36.5859L146.727 17.9859H154.077C155.827 17.9859 157.202 18.4359 158.077 19.2109C158.952 19.9609 159.427 21.0609 159.427 22.3359C159.427 24.6609 158.202 26.0859 155.977 26.7609V26.8609C157.827 27.3609 159.077 28.7609 159.077 30.7859C159.077 32.6359 158.352 34.1359 157.052 35.1609C155.902 36.1109 154.327 36.5859 152.277 36.5859H143.102ZM147.027 33.8109H152.352C154.727 33.8109 155.702 32.5109 155.702 30.7109C155.702 29.0859 154.502 28.1859 152.827 28.1859H148.127L147.027 33.8109ZM148.627 25.6859H152.852C154.727 25.6859 156.052 24.7109 156.052 22.8609C156.052 21.6109 155.152 20.6859 153.552 20.6859H149.577L148.627 25.6859ZM166.882 36.9859C163.082 36.9859 160.857 34.3859 160.857 30.9109C160.857 26.5109 164.007 22.8609 168.382 22.8609C172.157 22.8609 174.407 25.4609 174.407 28.9109C174.407 33.3859 171.257 36.9859 166.882 36.9859ZM167.007 34.6609C169.657 34.6609 171.232 31.7859 171.232 28.8859C171.232 26.6359 170.207 25.1609 168.232 25.1609C165.607 25.1609 164.007 28.0609 164.007 30.9859C164.007 33.2109 165.007 34.6609 167.007 34.6609ZM181.775 36.9859C177.975 36.9859 175.75 34.3859 175.75 30.9109C175.75 26.5109 178.9 22.8609 183.275 22.8609C187.05 22.8609 189.3 25.4609 189.3 28.9109C189.3 33.3859 186.15 36.9859 181.775 36.9859ZM181.9 34.6609C184.55 34.6609 186.125 31.7859 186.125 28.8859C186.125 26.6359 185.1 25.1609 183.125 25.1609C180.5 25.1609 178.9 28.0609 178.9 30.9859C178.9 33.2109 179.9 34.6609 181.9 34.6609ZM190.092 36.5859L193.717 17.9859H196.817L195.467 24.8609C195.142 26.4109 194.842 27.6859 194.642 28.4359L200.542 23.2359H204.342L198.367 28.3359L202.292 36.5859H198.892L195.992 30.2109L194.092 31.7859L193.192 36.5859H190.092Z" fill="black"/>
</svg>
