<svg width="276" height="53" viewBox="0 0 276 53" fill="none" xmlns="http://www.w3.org/2000/svg">
<path d="M275.736 0.21875H15.5613L0.953125 52.4614L261.17 52.4797L275.736 0.21875Z" fill="#FFDB3B"/>
<path d="M49.3071 35.8516L52.9321 17.2516H56.3571L52.7321 35.8516H49.3071ZM55.9157 35.8516L58.5157 22.5016H61.5407L61.1407 24.5766H61.1907C62.2157 23.0516 63.7407 22.1266 65.5907 22.1266C68.2657 22.1266 69.8907 24.2766 69.2907 27.2516L67.5907 35.8516H64.4907L66.1407 27.4266C66.4657 25.7766 65.8407 24.7266 64.1157 24.7266C62.4157 24.7266 60.9657 25.9516 60.5907 27.9016L59.0407 35.8516H55.9157ZM70.4677 35.8516L73.0427 22.5016H76.1677L73.5677 35.8516H70.4677ZM73.4427 20.3266L74.0427 17.2516H77.2427L76.6177 20.3266H73.4427ZM77.8224 24.6266L78.2474 22.5016H80.2474L81.0724 18.2516H84.1474L83.3224 22.5016H85.8224L85.3974 24.6266H82.8974L81.4474 32.1016C81.2474 33.1766 81.7224 33.5266 82.6224 33.5266C82.9724 33.5266 83.3724 33.4516 83.5974 33.4266H83.6974L83.2724 35.7766C82.8474 35.8766 82.2224 35.9766 81.3724 35.9766C79.2224 35.9766 77.8474 34.8016 78.3224 32.4266L79.8224 24.6266H77.8224ZM85.7509 35.8516L88.3259 22.5016H91.4509L88.8509 35.8516H85.7509ZM88.7259 20.3266L89.3259 17.2516H92.5259L91.9009 20.3266H88.7259ZM95.9806 36.1766C93.4306 36.1766 91.7806 34.7766 91.7806 32.5266C91.7806 29.4266 94.1306 28.5766 97.6056 28.2016C100.356 27.9266 101.556 27.6016 101.531 26.0516C101.506 25.0266 100.731 24.3016 99.2056 24.3016C97.5556 24.3016 96.5056 25.1016 96.2056 26.5266H93.2556C93.7056 23.9516 95.8306 22.1516 99.2806 22.1516C102.981 22.1516 104.881 24.0516 104.231 27.4266L103.181 32.9016C102.831 34.6516 103.031 35.3266 103.331 35.6266V35.8516H100.356C100.181 35.5266 100.031 35.0516 100.031 34.2766H99.9556C99.0556 35.4516 97.7306 36.1766 95.9806 36.1766ZM97.0056 34.1766C99.0806 34.1766 100.281 32.8016 100.556 31.2516L101.006 29.1016C100.131 29.6016 99.2056 29.7766 97.7306 30.0266C95.9306 30.3516 94.9056 30.9266 94.9056 32.3516C94.9056 33.6516 95.9056 34.1766 97.0056 34.1766ZM105.551 35.8516L109.176 17.2516H112.301L108.676 35.8516H105.551ZM117.959 35.8516L121.584 17.2516H129.034C132.434 17.2516 134.859 19.2016 134.609 22.3766C134.484 24.7516 133.159 26.4766 130.409 27.2016V27.2766C132.059 27.8016 132.884 28.8766 132.884 30.7766C132.884 32.0516 132.709 33.4266 132.709 34.3266C132.709 35.1266 132.834 35.5266 133.034 35.6266L133.009 35.8516H129.684C129.509 35.7016 129.359 35.2516 129.359 34.6516C129.359 33.6516 129.559 32.3266 129.559 31.0016C129.559 29.2516 128.684 28.4016 126.559 28.4016H122.834L121.384 35.8516H117.959ZM124.459 20.0016L123.334 25.8266H127.409C129.884 25.8266 131.109 24.5766 131.209 22.6766C131.284 21.0516 130.509 20.0016 128.409 20.0016H124.459ZM141.153 36.2516C137.178 36.2516 135.103 33.6516 135.103 30.3016C135.103 25.8266 138.103 22.1266 142.503 22.1266C146.303 22.1266 148.103 24.6766 148.103 28.0766C148.103 28.6766 148.053 29.3016 147.953 29.9516H138.128V30.3266C138.128 32.6016 139.203 33.9016 141.328 33.9016C142.678 33.9016 143.803 33.2766 144.328 32.0516H147.453C146.428 34.7516 144.103 36.2516 141.153 36.2516ZM142.378 24.4016C140.303 24.4016 138.978 26.0266 138.428 28.0016H145.028C145.328 25.8766 144.428 24.4016 142.378 24.4016ZM155.032 36.2516C151.107 36.2516 149.057 34.4766 148.932 31.7516H151.957C152.107 33.3766 153.257 34.0766 155.032 34.0766C156.757 34.0766 157.557 33.2516 157.557 32.1516C157.557 31.1016 156.457 30.6516 154.507 30.1016C152.232 29.4266 150.407 28.6516 150.382 26.2766C150.357 23.7516 152.507 22.1266 155.682 22.1266C159.232 22.1266 160.982 23.6766 161.207 26.0766H158.207C158.107 24.8766 157.257 24.2516 155.682 24.2516C154.182 24.2516 153.407 24.9016 153.407 25.8766C153.407 26.9016 154.532 27.2266 156.482 27.8016C158.607 28.4016 160.632 29.3016 160.657 31.8266C160.682 34.6016 158.382 36.2516 155.032 36.2516ZM168.521 36.2516C164.546 36.2516 162.471 33.6516 162.471 30.3016C162.471 25.8266 165.471 22.1266 169.871 22.1266C173.671 22.1266 175.471 24.6766 175.471 28.0766C175.471 28.6766 175.421 29.3016 175.321 29.9516H165.496V30.3266C165.496 32.6016 166.571 33.9016 168.696 33.9016C170.046 33.9016 171.171 33.2766 171.696 32.0516H174.821C173.796 34.7516 171.471 36.2516 168.521 36.2516ZM169.746 24.4016C167.671 24.4016 166.346 26.0266 165.796 28.0016H172.396C172.696 25.8766 171.796 24.4016 169.746 24.4016ZM180.6 36.1766C178.05 36.1766 176.4 34.7766 176.4 32.5266C176.4 29.4266 178.75 28.5766 182.225 28.2016C184.975 27.9266 186.175 27.6016 186.15 26.0516C186.125 25.0266 185.35 24.3016 183.825 24.3016C182.175 24.3016 181.125 25.1016 180.825 26.5266H177.875C178.325 23.9516 180.45 22.1516 183.9 22.1516C187.6 22.1516 189.5 24.0516 188.85 27.4266L187.8 32.9016C187.45 34.6516 187.65 35.3266 187.95 35.6266V35.8516H184.975C184.8 35.5266 184.65 35.0516 184.65 34.2766H184.575C183.675 35.4516 182.35 36.1766 180.6 36.1766ZM181.625 34.1766C183.7 34.1766 184.9 32.8016 185.175 31.2516L185.625 29.1016C184.75 29.6016 183.825 29.7766 182.35 30.0266C180.55 30.3516 179.525 30.9266 179.525 32.3516C179.525 33.6516 180.525 34.1766 181.625 34.1766ZM190.095 35.8516L192.695 22.5016H195.695L195.22 24.9516H195.295C196.32 23.1516 197.67 22.3266 199.32 22.3266C199.72 22.3266 199.995 22.3516 200.145 22.4266L199.695 25.2766H199.595C199.345 25.2016 199.095 25.1516 198.745 25.1516C196.645 25.1516 195.07 26.4266 194.545 29.0766L193.22 35.8516H190.095ZM205.968 36.2766C202.343 36.2766 200.068 33.9766 200.068 30.4766C200.068 25.8266 203.018 22.1516 207.493 22.1516C211.018 22.1516 212.793 24.3016 212.943 26.9516H209.918C209.843 25.5266 209.043 24.5266 207.343 24.5266C204.668 24.5266 203.193 27.5266 203.193 30.6016C203.193 32.6516 204.168 33.8766 205.993 33.8766C207.668 33.8766 208.843 32.8766 209.393 31.0016H212.493C211.668 34.4766 209.243 36.2766 205.968 36.2766ZM213.557 35.8516L217.182 17.2516H220.307L219.332 22.2766L218.882 24.4266H218.932C219.957 22.9766 221.382 22.1266 223.232 22.1266C225.907 22.1266 227.532 24.2766 226.932 27.2516L225.232 35.8516H222.132L223.782 27.4016C224.107 25.7766 223.482 24.7266 221.757 24.7266C220.057 24.7266 218.607 25.9516 218.232 27.8766L216.682 35.8516H213.557Z" fill="black"/>
</svg>
