<svg width="208" height="53" viewBox="0 0 208 53" fill="none" xmlns="http://www.w3.org/2000/svg">
<path d="M207.03 0.5L15.7605 0.504616L1.15234 52.7473L192.464 52.761L207.03 0.5Z" fill="#FFDB3B"/>
<path d="M55.0728 36.1406L53.8478 17.5406H57.2228L57.6228 26.2906C57.7228 28.5656 57.4728 32.7906 57.4728 32.7906H57.5228C57.5228 32.7906 58.7978 28.6656 59.7728 26.4406L63.7228 17.5406H67.0728L67.4978 26.4156C67.5728 28.6656 67.5228 32.7906 67.5228 32.7906H67.5728C67.5728 32.7906 68.7728 28.5406 69.7728 26.2656L73.6228 17.5406H77.1228L68.4728 36.1406H65.1478L64.6978 26.3406C64.6228 24.3656 64.7978 20.7656 64.7978 20.7656H64.7478C64.7478 20.7656 63.6228 24.3406 62.7728 26.3406L58.3978 36.1406H55.0728ZM80.8459 36.5406C76.8709 36.5406 74.7959 33.9406 74.7959 30.5906C74.7959 26.1156 77.7959 22.4156 82.1959 22.4156C85.9959 22.4156 87.7959 24.9656 87.7959 28.3656C87.7959 28.9656 87.7459 29.5906 87.6459 30.2406H77.8209V30.6156C77.8209 32.8906 78.8959 34.1906 81.0209 34.1906C82.3709 34.1906 83.4959 33.5656 84.0209 32.3406H87.1459C86.1209 35.0406 83.7959 36.5406 80.8459 36.5406ZM82.0709 24.6906C79.9959 24.6906 78.6709 26.3156 78.1209 28.2906H84.7209C85.0209 26.1656 84.1209 24.6906 82.0709 24.6906ZM88.6996 36.1406L92.3246 17.5406H95.4496L94.5746 21.9906C94.3996 22.8656 94.1746 23.8156 93.9996 24.5406H94.0496C95.1246 23.1906 96.4996 22.4156 98.1996 22.4156C101.2 22.4156 102.925 24.6906 102.925 28.0156C102.925 32.7656 100.3 36.5656 96.3746 36.5656C94.2246 36.5656 92.7996 35.5406 92.1746 34.0406H92.0996L91.6996 36.1406H88.6996ZM95.7996 34.1156C98.2496 34.1156 99.7246 31.1156 99.7246 28.1656C99.7246 26.1656 98.7746 24.9406 96.9996 24.9406C94.3746 24.9406 92.8746 27.7156 92.8746 30.4656C92.8746 32.5156 93.8496 34.1156 95.7996 34.1156ZM108.67 36.1406L118.895 17.5406H122.52L125.57 36.1406H122.02L121.42 31.6906H114.52L112.195 36.1406H108.67ZM118.145 24.8406L115.845 29.1906H121.07L120.52 24.9906C120.27 23.2156 120.195 20.2406 120.195 20.2406H120.145C120.145 20.2406 119.095 23.0156 118.145 24.8406ZM135.071 36.5656C132.821 36.5656 131.471 35.5156 130.846 34.0406H130.796C130.771 34.3156 130.671 35.3906 130.371 36.8156L129.646 40.6156H126.546L129.996 22.7906H133.021L132.671 24.5656H132.721C133.771 23.2156 135.196 22.4156 136.896 22.4156C139.896 22.4156 141.621 24.6906 141.621 28.0156C141.621 32.7656 138.996 36.5656 135.071 36.5656ZM134.496 34.1156C136.946 34.1156 138.421 31.1156 138.421 28.1656C138.421 26.1656 137.471 24.9406 135.696 24.9406C133.071 24.9406 131.571 27.7156 131.571 30.4656C131.571 32.5156 132.546 34.1156 134.496 34.1156ZM150.086 36.5656C147.836 36.5656 146.486 35.5156 145.861 34.0406H145.811C145.786 34.3156 145.686 35.3906 145.386 36.8156L144.661 40.6156H141.561L145.011 22.7906H148.036L147.686 24.5656H147.736C148.786 23.2156 150.211 22.4156 151.911 22.4156C154.911 22.4156 156.636 24.6906 156.636 28.0156C156.636 32.7656 154.011 36.5656 150.086 36.5656ZM149.511 34.1156C151.961 34.1156 153.436 31.1156 153.436 28.1656C153.436 26.1656 152.486 24.9406 150.711 24.9406C148.086 24.9406 146.586 27.7156 146.586 30.4656C146.586 32.5156 147.561 34.1156 149.511 34.1156Z" fill="black"/>
</svg>
