<svg width="687" height="256" viewBox="0 0 687 256" fill="none" xmlns="http://www.w3.org/2000/svg">
<path d="M-173.648 255.355L-103.67 0.46875H686.693L616.926 255.355L-173.648 255.355Z" fill="#14B253"/>
<path d="M62.5703 66.7891C57.1703 66.7891 53.8203 62.8141 53.8203 57.4641C53.8203 52.1141 57.1703 48.1391 62.5703 48.1391C67.9703 48.1391 71.3203 52.1141 71.3203 57.4641C71.3203 62.8141 67.9703 66.7891 62.5703 66.7891ZM62.5703 64.8141C66.7703 64.8141 69.0203 61.6641 69.0203 57.4641C69.0203 53.2641 66.7703 50.0891 62.5703 50.0891C58.3703 50.0891 56.1203 53.2641 56.1203 57.4641C56.1203 61.6641 58.3703 64.8141 62.5703 64.8141ZM83.9521 66.4141H81.9271V64.6391H81.8771C80.9521 65.8891 79.8521 66.7141 77.9771 66.7141C75.3271 66.7141 73.6271 65.1141 73.6271 62.4391V53.4891H75.6521V62.3891C75.6521 64.0641 76.7271 65.0391 78.5521 65.0391C80.6021 65.0391 81.9271 63.4891 81.9271 61.4391V53.4891H83.9521V66.4141ZM88.7154 53.4891V55.6391H88.7654C89.5404 54.3891 90.8904 53.3391 92.6154 53.3391C92.9904 53.3391 93.1904 53.3891 93.4404 53.4891V55.4391H93.3654C93.0654 55.3391 92.8654 55.3141 92.4654 55.3141C90.4654 55.3141 88.7154 56.8141 88.7154 59.2391V66.4141H86.6904V53.4891H88.7154ZM99.2393 66.4141V53.4891H101.264V55.3391H101.314C102.114 54.0891 103.489 53.1891 105.114 53.1891C106.689 53.1891 107.939 53.9891 108.489 55.4891H108.539C109.364 54.0141 110.914 53.1891 112.489 53.1891C114.789 53.1891 116.414 54.6641 116.414 57.3391V66.4141H114.389V57.4391C114.389 55.8391 113.314 54.8891 112.014 54.8891C110.339 54.8891 108.839 56.3391 108.839 58.3641V66.4141H106.814V57.4391C106.814 55.8391 105.914 54.8891 104.589 54.8891C103.014 54.8891 101.264 56.3391 101.264 58.3641V66.4141H99.2393ZM129.338 66.4141H127.313V64.6391H127.263C126.338 65.8891 125.238 66.7141 123.363 66.7141C120.713 66.7141 119.013 65.1141 119.013 62.4391V53.4891H121.038V62.3891C121.038 64.0641 122.113 65.0391 123.938 65.0391C125.988 65.0391 127.313 63.4891 127.313 61.4391V53.4891H129.338V66.4141ZM132.151 66.4141V48.5391H134.176V66.4141H132.151ZM136.183 55.1391V53.4891H138.058V49.4141H140.083V53.4891H142.583V55.1391H140.083V63.5391C140.083 64.4391 140.558 64.7391 141.383 64.7391C141.783 64.7391 142.233 64.6391 142.458 64.5641H142.533V66.3141C142.058 66.4141 141.508 66.4891 140.908 66.4891C139.258 66.4891 138.058 65.8141 138.058 63.9891V55.1391H136.183ZM144.674 66.4141V53.4891H146.699V66.4141H144.674ZM144.674 51.0391V48.5391H146.699V51.0391H144.674ZM149.034 60.4391V58.5891H155.734V60.4391H149.034ZM163.053 66.7891C159.528 66.7891 157.328 64.1391 157.328 59.9891C157.328 55.6891 159.803 53.1891 163.003 53.1891C164.828 53.1891 166.228 54.0891 167.053 55.3141H167.103V48.5391H169.128V66.4141H167.103V64.8391H167.053C166.078 66.0891 164.878 66.7891 163.053 66.7891ZM163.128 65.0891C166.003 65.0891 167.228 62.9391 167.228 60.0141C167.228 57.0141 165.778 54.9141 163.103 54.9141C160.653 54.9141 159.403 57.1141 159.403 60.0141C159.403 62.9391 160.653 65.0891 163.128 65.0891ZM171.871 66.4141V53.4891H173.896V66.4141H171.871ZM171.871 51.0391V48.5391H173.896V51.0391H171.871ZM181.556 66.7891C178.006 66.7891 176.031 65.1141 175.831 62.2141H177.906C178.181 64.4641 179.681 65.0891 181.606 65.0891C183.731 65.0891 184.606 64.1641 184.606 62.9641C184.606 61.5141 183.606 61.1391 181.231 60.6391C178.681 60.1141 176.406 59.5891 176.406 56.7641C176.406 54.6141 178.056 53.2141 181.056 53.2141C184.256 53.2141 185.831 54.7391 186.131 57.2641H184.056C183.856 55.5641 182.931 54.8141 181.006 54.8141C179.156 54.8141 178.406 55.6391 178.406 56.6641C178.406 58.0641 179.656 58.3391 181.881 58.7891C184.481 59.3141 186.656 59.8891 186.656 62.8641C186.656 65.4641 184.531 66.7891 181.556 66.7891ZM194.364 66.7641C190.514 66.7641 188.114 63.7141 188.114 59.9641C188.114 56.2141 190.514 53.1641 194.364 53.1641C197.414 53.1641 199.439 54.9141 199.889 57.6641H197.839C197.539 55.9141 196.314 54.8391 194.364 54.8391C191.614 54.8391 190.189 57.1141 190.189 59.9641C190.189 62.8141 191.614 65.0641 194.364 65.0641C196.464 65.0641 197.714 63.8641 197.889 61.8641H199.889C199.614 64.9641 197.589 66.7641 194.364 66.7641ZM201.803 66.4141V53.4891H203.828V66.4141H201.803ZM201.803 51.0391V48.5391H203.828V51.0391H201.803ZM206.588 70.5641V53.4891H208.613V55.3141H208.663C209.638 53.9891 210.938 53.1891 212.813 53.1891C216.088 53.1891 218.363 55.6891 218.363 59.9891C218.363 64.1391 216.238 66.7891 212.738 66.7891C210.988 66.7891 209.738 66.2641 208.663 64.8891H208.613V70.5641H206.588ZM212.588 65.0891C215.063 65.0891 216.288 62.9391 216.288 60.0141C216.288 57.1141 215.063 54.9141 212.613 54.9141C209.788 54.9141 208.488 57.2141 208.488 60.0141C208.488 62.8141 209.613 65.0891 212.588 65.0891ZM220.457 66.4141V48.5391H222.482V66.4141H220.457ZM225.313 66.4141V53.4891H227.338V66.4141H225.313ZM225.313 51.0391V48.5391H227.338V51.0391H225.313ZM232.124 53.4891V55.1891H232.174C233.099 53.9641 234.399 53.1891 236.274 53.1891C238.974 53.1891 240.624 54.6641 240.624 57.3391V66.4141H238.599V57.5141C238.599 55.8391 237.499 54.8891 235.674 54.8891C233.624 54.8891 232.124 56.3391 232.124 58.4641V66.4141H230.099V53.4891H232.124ZM248.832 66.7641C244.882 66.7641 242.582 63.7141 242.582 59.9641C242.582 56.2141 245.032 53.1641 248.707 53.1641C252.582 53.1641 254.657 56.1641 254.657 60.4391H244.657C244.807 63.0641 246.232 65.0641 248.832 65.0641C250.707 65.0641 251.957 64.1641 252.407 62.4141H254.382C253.782 65.1891 251.757 66.7641 248.832 66.7641ZM248.707 54.7641C246.307 54.7641 245.007 56.5641 244.707 58.9141H252.482C252.357 56.3391 251.032 54.7641 248.707 54.7641ZM261.637 66.7891C258.112 66.7891 255.912 64.1391 255.912 59.9891C255.912 55.6891 258.387 53.1891 261.587 53.1891C263.412 53.1891 264.812 54.0891 265.637 55.3141H265.687V48.5391H267.712V66.4141H265.687V64.8391H265.637C264.662 66.0891 263.462 66.7891 261.637 66.7891ZM261.712 65.0891C264.587 65.0891 265.812 62.9391 265.812 60.0141C265.812 57.0141 264.362 54.9141 261.687 54.9141C259.237 54.9141 257.987 57.1141 257.987 60.0141C257.987 62.9391 259.237 65.0891 261.712 65.0891ZM273.61 55.1391V53.4891H275.485V49.4141H277.51V53.4891H280.01V55.1391H277.51V63.5391C277.51 64.4391 277.985 64.7391 278.81 64.7391C279.21 64.7391 279.66 64.6391 279.885 64.5641H279.96V66.3141C279.485 66.4141 278.935 66.4891 278.335 66.4891C276.685 66.4891 275.485 65.8141 275.485 63.9891V55.1391H273.61ZM287.504 66.7641C283.554 66.7641 281.254 63.7141 281.254 59.9641C281.254 56.2141 283.704 53.1641 287.379 53.1641C291.254 53.1641 293.329 56.1641 293.329 60.4391H283.329C283.479 63.0641 284.904 65.0641 287.504 65.0641C289.379 65.0641 290.629 64.1641 291.079 62.4141H293.054C292.454 65.1891 290.429 66.7641 287.504 66.7641ZM287.379 54.7641C284.979 54.7641 283.679 56.5641 283.379 58.9141H291.154C291.029 56.3391 289.704 54.7641 287.379 54.7641ZM305.459 66.5391C304.134 66.5391 303.434 65.9391 303.234 64.6141H303.209C302.434 65.6141 301.109 66.6641 298.909 66.6641C296.459 66.6641 294.534 65.5141 294.534 63.0641C294.534 60.0141 296.934 59.3891 300.159 58.8891C301.984 58.6141 303.259 58.4391 303.259 57.0391C303.259 55.5891 302.209 54.7641 300.359 54.7641C298.259 54.7641 297.209 55.6641 297.134 57.6141H295.184C295.259 55.1141 296.909 53.2391 300.334 53.2391C303.084 53.2391 305.109 54.2641 305.109 57.3391V63.4891C305.109 64.5391 305.359 65.1141 306.484 64.8641H306.559V66.3391C306.309 66.4391 305.984 66.5391 305.459 66.5391ZM299.359 65.1141C302.059 65.1141 303.284 63.1391 303.284 61.6391V59.4391C302.609 59.8641 301.434 60.1891 300.334 60.3891C298.309 60.7641 296.684 61.1141 296.684 63.0141C296.684 64.7391 298.034 65.1141 299.359 65.1141ZM308.053 66.4141V53.4891H310.078V55.3391H310.128C310.928 54.0891 312.303 53.1891 313.928 53.1891C315.503 53.1891 316.753 53.9891 317.303 55.4891H317.353C318.178 54.0141 319.728 53.1891 321.303 53.1891C323.603 53.1891 325.228 54.6641 325.228 57.3391V66.4141H323.203V57.4391C323.203 55.8391 322.128 54.8891 320.828 54.8891C319.153 54.8891 317.653 56.3391 317.653 58.3641V66.4141H315.628V57.4391C315.628 55.8391 314.728 54.8891 313.403 54.8891C311.828 54.8891 310.078 56.3391 310.078 58.3641V66.4141H308.053ZM331.881 66.4141V53.4891H333.906V66.4141H331.881ZM331.881 51.0391V48.5391H333.906V51.0391H331.881ZM338.691 53.4891V55.1891H338.741C339.666 53.9641 340.966 53.1891 342.841 53.1891C345.541 53.1891 347.191 54.6641 347.191 57.3391V66.4141H345.166V57.5141C345.166 55.8391 344.066 54.8891 342.241 54.8891C340.191 54.8891 338.691 56.3391 338.691 58.4641V66.4141H336.666V53.4891H338.691ZM355.399 66.7641C351.549 66.7641 349.149 63.7141 349.149 59.9641C349.149 56.2141 351.549 53.1641 355.399 53.1641C358.449 53.1641 360.474 54.9141 360.924 57.6641H358.874C358.574 55.9141 357.349 54.8391 355.399 54.8391C352.649 54.8391 351.224 57.1141 351.224 59.9641C351.224 62.8141 352.649 65.0641 355.399 65.0641C357.499 65.0641 358.749 63.8641 358.924 61.8641H360.924C360.649 64.9641 358.624 66.7641 355.399 66.7641ZM362.913 66.4141V48.5391H364.938V66.4141H362.913ZM378.02 66.4141H375.995V64.6391H375.945C375.02 65.8891 373.92 66.7141 372.045 66.7141C369.395 66.7141 367.695 65.1141 367.695 62.4391V53.4891H369.72V62.3891C369.72 64.0641 370.795 65.0391 372.62 65.0391C374.67 65.0391 375.995 63.4891 375.995 61.4391V53.4891H378.02V66.4141ZM385.758 66.7891C382.233 66.7891 380.033 64.1391 380.033 59.9891C380.033 55.6891 382.508 53.1891 385.708 53.1891C387.533 53.1891 388.933 54.0891 389.758 55.3141H389.808V48.5391H391.833V66.4141H389.808V64.8391H389.758C388.783 66.0891 387.583 66.7891 385.758 66.7891ZM385.833 65.0891C388.708 65.0891 389.933 62.9391 389.933 60.0141C389.933 57.0141 388.483 54.9141 385.808 54.9141C383.358 54.9141 382.108 57.1141 382.108 60.0141C382.108 62.9391 383.358 65.0891 385.833 65.0891ZM400.101 66.7641C396.151 66.7641 393.851 63.7141 393.851 59.9641C393.851 56.2141 396.301 53.1641 399.976 53.1641C403.851 53.1641 405.926 56.1641 405.926 60.4391H395.926C396.076 63.0641 397.501 65.0641 400.101 65.0641C401.976 65.0641 403.226 64.1641 403.676 62.4141H405.651C405.051 65.1891 403.026 66.7641 400.101 66.7641ZM399.976 54.7641C397.576 54.7641 396.276 56.5641 395.976 58.9141H403.751C403.626 56.3391 402.301 54.7641 399.976 54.7641ZM412.806 66.7891C409.256 66.7891 407.281 65.1141 407.081 62.2141H409.156C409.431 64.4641 410.931 65.0891 412.856 65.0891C414.981 65.0891 415.856 64.1641 415.856 62.9641C415.856 61.5141 414.856 61.1391 412.481 60.6391C409.931 60.1141 407.656 59.5891 407.656 56.7641C407.656 54.6141 409.306 53.2141 412.306 53.2141C415.506 53.2141 417.081 54.7391 417.381 57.2641H415.306C415.106 55.5641 414.181 54.8141 412.256 54.8141C410.406 54.8141 409.656 55.6391 409.656 56.6641C409.656 58.0641 410.906 58.3391 413.131 58.7891C415.731 59.3141 417.906 59.8891 417.906 62.8641C417.906 65.4641 415.781 66.7891 412.806 66.7891ZM422.874 70.0891C422.424 70.0891 422.074 70.0391 421.749 69.9891V68.3391H421.799C422.049 68.3891 422.274 68.4141 422.499 68.4141C423.374 68.4141 423.824 68.0391 423.824 67.1641V53.4891H425.849V67.2641C425.849 69.6641 424.524 70.0891 422.874 70.0891ZM423.824 51.0391V48.5391H425.849V51.0391H423.824ZM438.859 66.4141H436.834V64.6391H436.784C435.859 65.8891 434.759 66.7141 432.884 66.7141C430.234 66.7141 428.534 65.1141 428.534 62.4391V53.4891H430.559V62.3891C430.559 64.0641 431.634 65.0391 433.459 65.0391C435.509 65.0391 436.834 63.4891 436.834 61.4391V53.4891H438.859V66.4141ZM443.623 53.4891V55.1891H443.673C444.598 53.9641 445.898 53.1891 447.773 53.1891C450.473 53.1891 452.123 54.6641 452.123 57.3391V66.4141H450.098V57.5141C450.098 55.8391 448.998 54.8891 447.173 54.8891C445.123 54.8891 443.623 56.3391 443.623 58.4641V66.4141H441.598V53.4891H443.623ZM454.806 66.4141V53.4891H456.831V66.4141H454.806ZM454.806 51.0391V48.5391H456.831V51.0391H454.806ZM465.116 66.7641C461.266 66.7641 458.866 63.7141 458.866 59.9641C458.866 56.2141 461.266 53.1641 465.116 53.1641C468.991 53.1641 471.341 56.2141 471.341 59.9641C471.341 63.7141 468.991 66.7641 465.116 66.7641ZM465.116 65.0641C467.866 65.0641 469.266 62.8141 469.266 59.9641C469.266 57.1141 467.866 54.8391 465.116 54.8391C462.366 54.8391 460.941 57.1141 460.941 59.9641C460.941 62.8141 462.366 65.0641 465.116 65.0641ZM475.385 53.4891V55.6391H475.435C476.21 54.3891 477.56 53.3391 479.285 53.3391C479.66 53.3391 479.86 53.3891 480.11 53.4891V55.4391H480.035C479.735 55.3391 479.535 55.3141 479.135 55.3141C477.135 55.3141 475.385 56.8141 475.385 59.2391V66.4141H473.36V53.4891H475.385ZM496.059 66.5391C494.734 66.5391 494.034 65.9391 493.834 64.6141H493.809C493.034 65.6141 491.709 66.6641 489.509 66.6641C487.059 66.6641 485.134 65.5141 485.134 63.0641C485.134 60.0141 487.534 59.3891 490.759 58.8891C492.584 58.6141 493.859 58.4391 493.859 57.0391C493.859 55.5891 492.809 54.7641 490.959 54.7641C488.859 54.7641 487.809 55.6641 487.734 57.6141H485.784C485.859 55.1141 487.509 53.2391 490.934 53.2391C493.684 53.2391 495.709 54.2641 495.709 57.3391V63.4891C495.709 64.5391 495.959 65.1141 497.084 64.8641H497.159V66.3391C496.909 66.4391 496.584 66.5391 496.059 66.5391ZM489.959 65.1141C492.659 65.1141 493.884 63.1391 493.884 61.6391V59.4391C493.209 59.8641 492.034 60.1891 490.934 60.3891C488.909 60.7641 487.284 61.1141 487.284 63.0141C487.284 64.7391 488.634 65.1141 489.959 65.1141ZM500.678 53.4891V55.1891H500.728C501.653 53.9641 502.953 53.1891 504.828 53.1891C507.528 53.1891 509.178 54.6641 509.178 57.3391V66.4141H507.153V57.5141C507.153 55.8391 506.053 54.8891 504.228 54.8891C502.178 54.8891 500.678 56.3391 500.678 58.4641V66.4141H498.653V53.4891H500.678ZM516.861 66.7891C513.336 66.7891 511.136 64.1391 511.136 59.9891C511.136 55.6891 513.611 53.1891 516.811 53.1891C518.636 53.1891 520.036 54.0891 520.861 55.3141H520.911V48.5391H522.936V66.4141H520.911V64.8391H520.861C519.886 66.0891 518.686 66.7891 516.861 66.7891ZM516.936 65.0891C519.811 65.0891 521.036 62.9391 521.036 60.0141C521.036 57.0141 519.586 54.9141 516.911 54.9141C514.461 54.9141 513.211 57.1141 513.211 60.0141C513.211 62.9391 514.461 65.0891 516.936 65.0891ZM59.0953 101.789C55.5453 101.789 53.5703 100.114 53.3703 97.2141H55.4453C55.7203 99.4641 57.2203 100.089 59.1453 100.089C61.2703 100.089 62.1453 99.1641 62.1453 97.9641C62.1453 96.5141 61.1453 96.1391 58.7703 95.6391C56.2203 95.1141 53.9453 94.5891 53.9453 91.7641C53.9453 89.6141 55.5953 88.2141 58.5953 88.2141C61.7953 88.2141 63.3703 89.7391 63.6703 92.2641H61.5953C61.3953 90.5641 60.4703 89.8141 58.5453 89.8141C56.6953 89.8141 55.9453 90.6391 55.9453 91.6641C55.9453 93.0641 57.1953 93.3391 59.4203 93.7891C62.0203 94.3141 64.1953 94.8891 64.1953 97.8641C64.1953 100.464 62.0703 101.789 59.0953 101.789ZM71.9029 101.764C67.9529 101.764 65.6529 98.7141 65.6529 94.9641C65.6529 91.2141 68.1029 88.1641 71.7779 88.1641C75.6529 88.1641 77.7279 91.1641 77.7279 95.4391H67.7279C67.8779 98.0641 69.3029 100.064 71.9029 100.064C73.7779 100.064 75.0279 99.1641 75.4779 97.4141H77.4529C76.8529 100.189 74.8279 101.764 71.9029 101.764ZM71.7779 89.7641C69.3779 89.7641 68.0779 91.5641 67.7779 93.9141H75.5529C75.4279 91.3391 74.1029 89.7641 71.7779 89.7641ZM81.733 88.4891V90.1891H81.783C82.708 88.9641 84.008 88.1891 85.883 88.1891C88.583 88.1891 90.233 89.6641 90.233 92.3391V101.414H88.208V92.5141C88.208 90.8391 87.108 89.8891 85.283 89.8891C83.233 89.8891 81.733 91.3391 81.733 93.4641V101.414H79.708V88.4891H81.733ZM92.916 101.414V88.4891H94.941V101.414H92.916ZM92.916 86.0391V83.5391H94.941V86.0391H92.916ZM103.226 101.764C99.3762 101.764 96.9762 98.7141 96.9762 94.9641C96.9762 91.2141 99.3762 88.1641 103.226 88.1641C107.101 88.1641 109.451 91.2141 109.451 94.9641C109.451 98.7141 107.101 101.764 103.226 101.764ZM103.226 100.064C105.976 100.064 107.376 97.8141 107.376 94.9641C107.376 92.1141 105.976 89.8391 103.226 89.8391C100.476 89.8391 99.0512 92.1141 99.0512 94.9641C99.0512 97.8141 100.476 100.064 103.226 100.064ZM113.496 88.4891V90.6391H113.546C114.321 89.3891 115.671 88.3391 117.396 88.3391C117.771 88.3391 117.971 88.3891 118.221 88.4891V90.4391H118.146C117.846 90.3391 117.646 90.3141 117.246 90.3141C115.246 90.3141 113.496 91.8141 113.496 94.2391V101.414H111.471V88.4891H113.496ZM129.545 101.764C125.695 101.764 123.295 98.7141 123.295 94.9641C123.295 91.2141 125.695 88.1641 129.545 88.1641C132.595 88.1641 134.62 89.9141 135.07 92.6641H133.02C132.72 90.9141 131.495 89.8391 129.545 89.8391C126.795 89.8391 125.37 92.1141 125.37 94.9641C125.37 97.8141 126.795 100.064 129.545 100.064C131.645 100.064 132.895 98.8641 133.07 96.8641H135.07C134.795 99.9641 132.77 101.764 129.545 101.764ZM142.508 101.764C138.658 101.764 136.258 98.7141 136.258 94.9641C136.258 91.2141 138.658 88.1641 142.508 88.1641C146.383 88.1641 148.733 91.2141 148.733 94.9641C148.733 98.7141 146.383 101.764 142.508 101.764ZM142.508 100.064C145.258 100.064 146.658 97.8141 146.658 94.9641C146.658 92.1141 145.258 89.8391 142.508 89.8391C139.758 89.8391 138.333 92.1141 138.333 94.9641C138.333 97.8141 139.758 100.064 142.508 100.064ZM150.828 101.414V83.5391H152.853V101.414H150.828ZM155.76 101.414V83.5391H157.785V101.414H155.76ZM170.766 101.539C169.441 101.539 168.741 100.939 168.541 99.6141H168.516C167.741 100.614 166.416 101.664 164.216 101.664C161.766 101.664 159.841 100.514 159.841 98.0641C159.841 95.0141 162.241 94.3891 165.466 93.8891C167.291 93.6141 168.566 93.4391 168.566 92.0391C168.566 90.5891 167.516 89.7641 165.666 89.7641C163.566 89.7641 162.516 90.6641 162.441 92.6141H160.491C160.566 90.1141 162.216 88.2391 165.641 88.2391C168.391 88.2391 170.416 89.2641 170.416 92.3391V98.4891C170.416 99.5391 170.666 100.114 171.791 99.8641H171.866V101.339C171.616 101.439 171.291 101.539 170.766 101.539ZM164.666 100.114C167.366 100.114 168.591 98.1391 168.591 96.6391V94.4391C167.916 94.8641 166.741 95.1891 165.641 95.3891C163.616 95.7641 161.991 96.1141 161.991 98.0141C161.991 99.7391 163.341 100.114 164.666 100.114ZM179.51 101.789C177.76 101.789 176.485 101.164 175.435 99.7141H175.385V101.414H173.36V83.5391H175.385V90.3391H175.435C176.41 89.0141 177.71 88.1891 179.585 88.1891C182.86 88.1891 185.085 90.6891 185.085 94.9891C185.085 99.1391 183.01 101.789 179.51 101.789ZM179.36 100.089C181.835 100.089 183.01 97.9391 183.01 95.0141C183.01 92.1141 181.835 89.9141 179.385 89.9141C176.56 89.9141 175.26 92.2141 175.26 95.0141C175.26 97.9141 176.61 100.089 179.36 100.089ZM192.63 101.764C188.78 101.764 186.38 98.7141 186.38 94.9641C186.38 91.2141 188.78 88.1641 192.63 88.1641C196.505 88.1641 198.855 91.2141 198.855 94.9641C198.855 98.7141 196.505 101.764 192.63 101.764ZM192.63 100.064C195.38 100.064 196.78 97.8141 196.78 94.9641C196.78 92.1141 195.38 89.8391 192.63 89.8391C189.88 89.8391 188.455 92.1141 188.455 94.9641C188.455 97.8141 189.88 100.064 192.63 100.064ZM202.9 88.4891V90.6391H202.95C203.725 89.3891 205.075 88.3391 206.8 88.3391C207.175 88.3391 207.375 88.3891 207.625 88.4891V90.4391H207.55C207.25 90.3391 207.05 90.3141 206.65 90.3141C204.65 90.3141 202.9 91.8141 202.9 94.2391V101.414H200.875V88.4891H202.9ZM219.106 101.539C217.781 101.539 217.081 100.939 216.881 99.6141H216.856C216.081 100.614 214.756 101.664 212.556 101.664C210.106 101.664 208.181 100.514 208.181 98.0641C208.181 95.0141 210.581 94.3891 213.806 93.8891C215.631 93.6141 216.906 93.4391 216.906 92.0391C216.906 90.5891 215.856 89.7641 214.006 89.7641C211.906 89.7641 210.856 90.6641 210.781 92.6141H208.831C208.906 90.1141 210.556 88.2391 213.981 88.2391C216.731 88.2391 218.756 89.2641 218.756 92.3391V98.4891C218.756 99.5391 219.006 100.114 220.131 99.8641H220.206V101.339C219.956 101.439 219.631 101.539 219.106 101.539ZM213.006 100.114C215.706 100.114 216.931 98.1391 216.931 96.6391V94.4391C216.256 94.8641 215.081 95.1891 213.981 95.3891C211.956 95.7641 210.331 96.1141 210.331 98.0141C210.331 99.7391 211.681 100.114 213.006 100.114ZM220.631 90.1391V88.4891H222.506V84.4141H224.531V88.4891H227.031V90.1391H224.531V98.5391C224.531 99.4391 225.006 99.7391 225.831 99.7391C226.231 99.7391 226.681 99.6391 226.906 99.5641H226.981V101.314C226.506 101.414 225.956 101.489 225.356 101.489C223.706 101.489 222.506 100.814 222.506 98.9891V90.1391H220.631ZM229.122 101.414V88.4891H231.147V101.414H229.122ZM229.122 86.0391V83.5391H231.147V86.0391H229.122ZM235.932 88.4891V90.1891H235.982C236.907 88.9641 238.207 88.1891 240.082 88.1891C242.782 88.1891 244.432 89.6641 244.432 92.3391V101.414H242.407V92.5141C242.407 90.8391 241.307 89.8891 239.482 89.8891C237.432 89.8891 235.932 91.3391 235.932 93.4641V101.414H233.907V88.4891H235.932ZM252.265 105.714C248.915 105.714 247.015 104.364 246.79 102.139H248.665C248.865 103.564 250.215 104.114 252.215 104.114C254.59 104.114 255.915 103.039 255.915 100.789V98.9641H255.865C254.915 100.189 253.89 100.964 252.04 100.964C248.69 100.964 246.39 98.2891 246.39 94.5641C246.39 90.5391 248.915 88.1891 251.915 88.1891C253.79 88.1891 254.99 88.9141 255.865 90.1391H255.915V88.4891H257.94V100.714C257.94 104.114 255.69 105.714 252.265 105.714ZM252.14 99.2641C255.115 99.2641 256.065 97.1891 256.065 94.4641C256.065 91.6391 254.865 89.8891 252.115 89.8891C249.69 89.8891 248.465 91.7891 248.465 94.5891C248.465 97.4141 249.74 99.2641 252.14 99.2641ZM269.569 101.789C266.019 101.789 264.044 100.114 263.844 97.2141H265.919C266.194 99.4641 267.694 100.089 269.619 100.089C271.744 100.089 272.619 99.1641 272.619 97.9641C272.619 96.5141 271.619 96.1391 269.244 95.6391C266.694 95.1141 264.419 94.5891 264.419 91.7641C264.419 89.6141 266.069 88.2141 269.069 88.2141C272.269 88.2141 273.844 89.7391 274.144 92.2641H272.069C271.869 90.5641 270.944 89.8141 269.019 89.8141C267.169 89.8141 266.419 90.6391 266.419 91.6641C266.419 93.0641 267.669 93.3391 269.894 93.7891C272.494 94.3141 274.669 94.8891 274.669 97.8641C274.669 100.464 272.544 101.789 269.569 101.789ZM275.538 90.1391V88.4891H277.413V84.4141H279.438V88.4891H281.938V90.1391H279.438V98.5391C279.438 99.4391 279.913 99.7391 280.738 99.7391C281.138 99.7391 281.588 99.6391 281.813 99.5641H281.888V101.314C281.413 101.414 280.863 101.489 280.263 101.489C278.613 101.489 277.413 100.814 277.413 98.9891V90.1391H275.538ZM294.279 101.414H292.254V99.6391H292.204C291.279 100.889 290.179 101.714 288.304 101.714C285.654 101.714 283.954 100.114 283.954 97.4391V88.4891H285.979V97.3891C285.979 99.0641 287.054 100.039 288.879 100.039C290.929 100.039 292.254 98.4891 292.254 96.4391V88.4891H294.279V101.414ZM302.018 101.789C298.493 101.789 296.293 99.1391 296.293 94.9891C296.293 90.6891 298.768 88.1891 301.968 88.1891C303.793 88.1891 305.193 89.0891 306.018 90.3141H306.068V83.5391H308.093V101.414H306.068V99.8391H306.018C305.043 101.089 303.843 101.789 302.018 101.789ZM302.093 100.089C304.968 100.089 306.193 97.9391 306.193 95.0141C306.193 92.0141 304.743 89.9141 302.068 89.9141C299.618 89.9141 298.368 92.1141 298.368 95.0141C298.368 97.9391 299.618 100.089 302.093 100.089ZM316.361 101.764C312.411 101.764 310.111 98.7141 310.111 94.9641C310.111 91.2141 312.561 88.1641 316.236 88.1641C320.111 88.1641 322.186 91.1641 322.186 95.4391H312.186C312.336 98.0641 313.761 100.064 316.361 100.064C318.236 100.064 319.486 99.1641 319.936 97.4141H321.911C321.311 100.189 319.286 101.764 316.361 101.764ZM316.236 89.7641C313.836 89.7641 312.536 91.5641 312.236 93.9141H320.011C319.886 91.3391 318.561 89.7641 316.236 89.7641ZM326.191 88.4891V90.1891H326.241C327.166 88.9641 328.466 88.1891 330.341 88.1891C333.041 88.1891 334.691 89.6641 334.691 92.3391V101.414H332.666V92.5141C332.666 90.8391 331.566 89.8891 329.741 89.8891C327.691 89.8891 326.191 91.3391 326.191 93.4641V101.414H324.166V88.4891H326.191ZM336.305 90.1391V88.4891H338.18V84.4141H340.205V88.4891H342.705V90.1391H340.205V98.5391C340.205 99.4391 340.68 99.7391 341.505 99.7391C341.905 99.7391 342.355 99.6391 342.58 99.5641H342.655V101.314C342.18 101.414 341.63 101.489 341.03 101.489C339.38 101.489 338.18 100.814 338.18 98.9891V90.1391H336.305ZM349.696 101.789C346.146 101.789 344.171 100.114 343.971 97.2141H346.046C346.321 99.4641 347.821 100.089 349.746 100.089C351.871 100.089 352.746 99.1641 352.746 97.9641C352.746 96.5141 351.746 96.1391 349.371 95.6391C346.821 95.1141 344.546 94.5891 344.546 91.7641C344.546 89.6141 346.196 88.2141 349.196 88.2141C352.396 88.2141 353.971 89.7391 354.271 92.2641H352.196C351.996 90.5641 351.071 89.8141 349.146 89.8141C347.296 89.8141 346.546 90.6391 346.546 91.6641C346.546 93.0641 347.796 93.3391 350.021 93.7891C352.621 94.3141 354.796 94.8891 354.796 97.8641C354.796 100.464 352.671 101.789 349.696 101.789ZM359.889 90.1391V88.4891H361.664V86.4141C361.664 84.1891 362.939 83.3891 365.089 83.3891C365.514 83.3891 365.839 83.4141 366.114 83.4391V85.1641C365.764 85.1391 365.664 85.1391 365.464 85.1391C364.164 85.1391 363.689 85.4641 363.689 86.5141V88.4891H366.089V90.1391H363.689V101.414H361.664V90.1391H359.889ZM370.088 88.4891V90.6391H370.138C370.913 89.3891 372.263 88.3391 373.988 88.3391C374.363 88.3391 374.563 88.3891 374.813 88.4891V90.4391H374.738C374.438 90.3391 374.238 90.3141 373.838 90.3141C371.838 90.3141 370.088 91.8141 370.088 94.2391V101.414H368.063V88.4891H370.088ZM381.669 101.764C377.819 101.764 375.419 98.7141 375.419 94.9641C375.419 91.2141 377.819 88.1641 381.669 88.1641C385.544 88.1641 387.894 91.2141 387.894 94.9641C387.894 98.7141 385.544 101.764 381.669 101.764ZM381.669 100.064C384.419 100.064 385.819 97.8141 385.819 94.9641C385.819 92.1141 384.419 89.8391 381.669 89.8391C378.919 89.8391 377.494 92.1141 377.494 94.9641C377.494 97.8141 378.919 100.064 381.669 100.064ZM389.913 101.414V88.4891H391.938V90.3391H391.988C392.788 89.0891 394.163 88.1891 395.788 88.1891C397.363 88.1891 398.613 88.9891 399.163 90.4891H399.213C400.038 89.0141 401.588 88.1891 403.163 88.1891C405.463 88.1891 407.088 89.6641 407.088 92.3391V101.414H405.063V92.4391C405.063 90.8391 403.988 89.8891 402.688 89.8891C401.013 89.8891 399.513 91.3391 399.513 93.3641V101.414H397.488V92.4391C397.488 90.8391 396.588 89.8891 395.263 89.8891C393.688 89.8891 391.938 91.3391 391.938 93.3641V101.414H389.913ZM420.591 101.689C416.691 101.689 413.741 99.9641 413.741 95.6391V83.5391H415.991V95.4141C415.991 98.4641 417.716 99.7641 420.666 99.7641C423.491 99.7641 425.191 98.4641 425.191 95.4141V83.5391H427.441V95.6391C427.441 99.9641 424.416 101.689 420.591 101.689ZM435.096 101.789C431.546 101.789 429.571 100.114 429.371 97.2141H431.446C431.721 99.4641 433.221 100.089 435.146 100.089C437.271 100.089 438.146 99.1641 438.146 97.9641C438.146 96.5141 437.146 96.1391 434.771 95.6391C432.221 95.1141 429.946 94.5891 429.946 91.7641C429.946 89.6141 431.596 88.2141 434.596 88.2141C437.796 88.2141 439.371 89.7391 439.671 92.2641H437.596C437.396 90.5641 436.471 89.8141 434.546 89.8141C432.696 89.8141 431.946 90.6391 431.946 91.6641C431.946 93.0641 433.196 93.3391 435.421 93.7891C438.021 94.3141 440.196 94.8891 440.196 97.8641C440.196 100.464 438.071 101.789 435.096 101.789ZM447.904 101.764C443.954 101.764 441.654 98.7141 441.654 94.9641C441.654 91.2141 444.104 88.1641 447.779 88.1641C451.654 88.1641 453.729 91.1641 453.729 95.4391H443.729C443.879 98.0641 445.304 100.064 447.904 100.064C449.779 100.064 451.029 99.1641 451.479 97.4141H453.454C452.854 100.189 450.829 101.764 447.904 101.764ZM447.779 89.7641C445.379 89.7641 444.079 91.5641 443.779 93.9141H451.554C451.429 91.3391 450.104 89.7641 447.779 89.7641ZM457.734 88.4891V90.6391H457.784C458.559 89.3891 459.909 88.3391 461.634 88.3391C462.009 88.3391 462.209 88.3891 462.459 88.4891V90.4391H462.384C462.084 90.3391 461.884 90.3141 461.484 90.3141C459.484 90.3141 457.734 91.8141 457.734 94.2391V101.414H455.709V88.4891H457.734ZM54.4953 136.414V118.539H67.1203V120.514H56.7453V126.164H66.1703V128.064H56.7453V134.339H67.4203V136.414H54.4953ZM68.5221 136.414L73.3971 129.639L69.0971 123.489H71.4471L74.5221 128.189H74.5721L77.7721 123.489H79.9971L75.7471 129.414L80.7971 136.414H78.4221L74.5971 130.864H74.5471L70.7971 136.414H68.5221ZM82.3203 140.564V123.489H84.3453V125.314H84.3953C85.3703 123.989 86.6703 123.189 88.5453 123.189C91.8203 123.189 94.0953 125.689 94.0953 129.989C94.0953 134.139 91.9703 136.789 88.4703 136.789C86.7203 136.789 85.4703 136.264 84.3953 134.889H84.3453V140.564H82.3203ZM88.3203 135.089C90.7953 135.089 92.0203 132.939 92.0203 130.014C92.0203 127.114 90.7953 124.914 88.3453 124.914C85.5203 124.914 84.2203 127.214 84.2203 130.014C84.2203 132.814 85.3453 135.089 88.3203 135.089ZM101.639 136.764C97.6893 136.764 95.3893 133.714 95.3893 129.964C95.3893 126.214 97.8393 123.164 101.514 123.164C105.389 123.164 107.464 126.164 107.464 130.439H97.4643C97.6143 133.064 99.0393 135.064 101.639 135.064C103.514 135.064 104.764 134.164 105.214 132.414H107.189C106.589 135.189 104.564 136.764 101.639 136.764ZM101.514 124.764C99.1143 124.764 97.8143 126.564 97.5143 128.914H105.289C105.164 126.339 103.839 124.764 101.514 124.764ZM111.469 123.489V125.639H111.519C112.294 124.389 113.644 123.339 115.369 123.339C115.744 123.339 115.944 123.389 116.194 123.489V125.439H116.119C115.819 125.339 115.619 125.314 115.219 125.314C113.219 125.314 111.469 126.814 111.469 129.239V136.414H109.444V123.489H111.469ZM118.014 136.414V123.489H120.039V136.414H118.014ZM118.014 121.039V118.539H120.039V121.039H118.014ZM128.324 136.764C124.374 136.764 122.074 133.714 122.074 129.964C122.074 126.214 124.524 123.164 128.199 123.164C132.074 123.164 134.149 126.164 134.149 130.439H124.149C124.299 133.064 125.724 135.064 128.324 135.064C130.199 135.064 131.449 134.164 131.899 132.414H133.874C133.274 135.189 131.249 136.764 128.324 136.764ZM128.199 124.764C125.799 124.764 124.499 126.564 124.199 128.914H131.974C131.849 126.339 130.524 124.764 128.199 124.764ZM138.154 123.489V125.189H138.204C139.129 123.964 140.429 123.189 142.304 123.189C145.004 123.189 146.654 124.664 146.654 127.339V136.414H144.629V127.514C144.629 125.839 143.529 124.889 141.704 124.889C139.654 124.889 138.154 126.339 138.154 128.464V136.414H136.129V123.489H138.154ZM154.862 136.764C151.012 136.764 148.612 133.714 148.612 129.964C148.612 126.214 151.012 123.164 154.862 123.164C157.912 123.164 159.937 124.914 160.387 127.664H158.337C158.037 125.914 156.812 124.839 154.862 124.839C152.112 124.839 150.687 127.114 150.687 129.964C150.687 132.814 152.112 135.064 154.862 135.064C156.962 135.064 158.212 133.864 158.387 131.864H160.387C160.112 134.964 158.087 136.764 154.862 136.764ZM167.826 136.764C163.876 136.764 161.576 133.714 161.576 129.964C161.576 126.214 164.026 123.164 167.701 123.164C171.576 123.164 173.651 126.164 173.651 130.439H163.651C163.801 133.064 165.226 135.064 167.826 135.064C169.701 135.064 170.951 134.164 171.401 132.414H173.376C172.776 135.189 170.751 136.764 167.826 136.764ZM167.701 124.764C165.301 124.764 164.001 126.564 163.701 128.914H171.476C171.351 126.339 170.026 124.764 167.701 124.764ZM179.91 136.414V118.539H186.41C191.785 118.539 194.335 122.189 194.335 127.539C194.335 132.889 191.61 136.414 186.235 136.414H179.91ZM182.16 134.439H186.16C190.36 134.439 192.035 131.739 192.035 127.539C192.035 123.339 190.535 120.489 186.335 120.489H182.16V134.439ZM202.225 136.764C198.275 136.764 195.975 133.714 195.975 129.964C195.975 126.214 198.425 123.164 202.1 123.164C205.975 123.164 208.05 126.164 208.05 130.439H198.05C198.2 133.064 199.625 135.064 202.225 135.064C204.1 135.064 205.35 134.164 205.8 132.414H207.775C207.175 135.189 205.15 136.764 202.225 136.764ZM202.1 124.764C199.7 124.764 198.4 126.564 198.1 128.914H205.875C205.75 126.339 204.425 124.764 202.1 124.764ZM214.93 136.789C211.38 136.789 209.405 135.114 209.205 132.214H211.28C211.555 134.464 213.055 135.089 214.98 135.089C217.105 135.089 217.98 134.164 217.98 132.964C217.98 131.514 216.98 131.139 214.605 130.639C212.055 130.114 209.78 129.589 209.78 126.764C209.78 124.614 211.43 123.214 214.43 123.214C217.63 123.214 219.205 124.739 219.505 127.264H217.43C217.23 125.564 216.305 124.814 214.38 124.814C212.53 124.814 211.78 125.639 211.78 126.664C211.78 128.064 213.03 128.339 215.255 128.789C217.855 129.314 220.03 129.889 220.03 132.864C220.03 135.464 217.905 136.789 214.93 136.789ZM221.969 136.414V123.489H223.994V136.414H221.969ZM221.969 121.039V118.539H223.994V121.039H221.969ZM231.904 140.714C228.554 140.714 226.654 139.364 226.429 137.139H228.304C228.504 138.564 229.854 139.114 231.854 139.114C234.229 139.114 235.554 138.039 235.554 135.789V133.964H235.504C234.554 135.189 233.529 135.964 231.679 135.964C228.329 135.964 226.029 133.289 226.029 129.564C226.029 125.539 228.554 123.189 231.554 123.189C233.429 123.189 234.629 123.914 235.504 125.139H235.554V123.489H237.579V135.714C237.579 139.114 235.329 140.714 231.904 140.714ZM231.779 134.264C234.754 134.264 235.704 132.189 235.704 129.464C235.704 126.639 234.504 124.889 231.754 124.889C229.329 124.889 228.104 126.789 228.104 129.589C228.104 132.414 229.379 134.264 231.779 134.264ZM242.353 123.489V125.189H242.403C243.328 123.964 244.628 123.189 246.503 123.189C249.203 123.189 250.853 124.664 250.853 127.339V136.414H248.828V127.514C248.828 125.839 247.728 124.889 245.903 124.889C243.853 124.889 242.353 126.339 242.353 128.464V136.414H240.328V123.489H242.353ZM253.286 139.614V138.489C253.836 138.289 254.411 137.814 254.411 136.414H253.261V133.939H255.686V136.489C255.686 138.314 254.711 139.339 253.286 139.614ZM276.43 136.414L275.78 134.064H275.73C274.43 135.889 272.505 136.789 270.155 136.789C265.13 136.789 261.755 132.964 261.755 127.539C261.755 122.289 264.73 118.164 270.355 118.164C274.505 118.164 277.055 120.414 277.63 123.914H275.305C274.805 121.539 273.13 120.114 270.305 120.114C266.005 120.114 264.055 123.339 264.055 127.539C264.055 131.914 266.605 134.839 270.23 134.839C273.905 134.839 275.63 132.339 275.63 129.339V128.914H270.255V126.964H277.88V136.414H276.43ZM282.71 123.489V125.639H282.76C283.535 124.389 284.885 123.339 286.61 123.339C286.985 123.339 287.185 123.389 287.435 123.489V125.439H287.36C287.06 125.339 286.86 125.314 286.46 125.314C284.46 125.314 282.71 126.814 282.71 129.239V136.414H280.685V123.489H282.71ZM298.916 136.539C297.591 136.539 296.891 135.939 296.691 134.614H296.666C295.891 135.614 294.566 136.664 292.366 136.664C289.916 136.664 287.991 135.514 287.991 133.064C287.991 130.014 290.391 129.389 293.616 128.889C295.441 128.614 296.716 128.439 296.716 127.039C296.716 125.589 295.666 124.764 293.816 124.764C291.716 124.764 290.666 125.664 290.591 127.614H288.641C288.716 125.114 290.366 123.239 293.791 123.239C296.541 123.239 298.566 124.264 298.566 127.339V133.489C298.566 134.539 298.816 135.114 299.941 134.864H300.016V136.339C299.766 136.439 299.441 136.539 298.916 136.539ZM292.816 135.114C295.516 135.114 296.741 133.139 296.741 131.639V129.439C296.066 129.864 294.891 130.189 293.791 130.389C291.766 130.764 290.141 131.114 290.141 133.014C290.141 134.739 291.491 135.114 292.816 135.114ZM301.51 140.564V123.489H303.535V125.314H303.585C304.56 123.989 305.86 123.189 307.735 123.189C311.01 123.189 313.285 125.689 313.285 129.989C313.285 134.139 311.16 136.789 307.66 136.789C305.91 136.789 304.66 136.264 303.585 134.889H303.535V140.564H301.51ZM307.51 135.089C309.985 135.089 311.21 132.939 311.21 130.014C311.21 127.114 309.985 124.914 307.535 124.914C304.71 124.914 303.41 127.214 303.41 130.014C303.41 132.814 304.535 135.089 307.51 135.089ZM317.329 118.539V125.189H317.379C318.304 123.964 319.604 123.189 321.479 123.189C324.179 123.189 325.829 124.664 325.829 127.339V136.414H323.804V127.514C323.804 125.839 322.704 124.889 320.879 124.889C318.829 124.889 317.329 126.339 317.329 128.464V136.414H315.304V118.539H317.329ZM328.512 136.414V123.489H330.537V136.414H328.512ZM328.512 121.039V118.539H330.537V121.039H328.512ZM338.822 136.764C334.972 136.764 332.572 133.714 332.572 129.964C332.572 126.214 334.972 123.164 338.822 123.164C341.872 123.164 343.897 124.914 344.347 127.664H342.297C341.997 125.914 340.772 124.839 338.822 124.839C336.072 124.839 334.647 127.114 334.647 129.964C334.647 132.814 336.072 135.064 338.822 135.064C340.922 135.064 342.172 133.864 342.347 131.864H344.347C344.072 134.964 342.047 136.764 338.822 136.764ZM350.54 136.414V118.539H357.04C362.415 118.539 364.965 122.189 364.965 127.539C364.965 132.889 362.24 136.414 356.865 136.414H350.54ZM352.79 134.439H356.79C360.99 134.439 362.665 131.739 362.665 127.539C362.665 123.339 361.165 120.489 356.965 120.489H352.79V134.439ZM372.855 136.764C368.905 136.764 366.605 133.714 366.605 129.964C366.605 126.214 369.055 123.164 372.73 123.164C376.605 123.164 378.68 126.164 378.68 130.439H368.68C368.83 133.064 370.255 135.064 372.855 135.064C374.73 135.064 375.98 134.164 376.43 132.414H378.405C377.805 135.189 375.78 136.764 372.855 136.764ZM372.73 124.764C370.33 124.764 369.03 126.564 368.73 128.914H376.505C376.38 126.339 375.055 124.764 372.73 124.764ZM385.56 136.789C382.01 136.789 380.035 135.114 379.835 132.214H381.91C382.185 134.464 383.685 135.089 385.61 135.089C387.735 135.089 388.61 134.164 388.61 132.964C388.61 131.514 387.61 131.139 385.235 130.639C382.685 130.114 380.41 129.589 380.41 126.764C380.41 124.614 382.06 123.214 385.06 123.214C388.26 123.214 389.835 124.739 390.135 127.264H388.06C387.86 125.564 386.935 124.814 385.01 124.814C383.16 124.814 382.41 125.639 382.41 126.664C382.41 128.064 383.66 128.339 385.885 128.789C388.485 129.314 390.66 129.889 390.66 132.864C390.66 135.464 388.535 136.789 385.56 136.789ZM392.599 136.414V123.489H394.624V136.414H392.599ZM392.599 121.039V118.539H394.624V121.039H392.599ZM402.534 140.714C399.184 140.714 397.284 139.364 397.059 137.139H398.934C399.134 138.564 400.484 139.114 402.484 139.114C404.859 139.114 406.184 138.039 406.184 135.789V133.964H406.134C405.184 135.189 404.159 135.964 402.309 135.964C398.959 135.964 396.659 133.289 396.659 129.564C396.659 125.539 399.184 123.189 402.184 123.189C404.059 123.189 405.259 123.914 406.134 125.139H406.184V123.489H408.209V135.714C408.209 139.114 405.959 140.714 402.534 140.714ZM402.409 134.264C405.384 134.264 406.334 132.189 406.334 129.464C406.334 126.639 405.134 124.889 402.384 124.889C399.959 124.889 398.734 126.789 398.734 129.589C398.734 132.414 400.009 134.264 402.409 134.264ZM412.983 123.489V125.189H413.033C413.958 123.964 415.258 123.189 417.133 123.189C419.833 123.189 421.483 124.664 421.483 127.339V136.414H419.458V127.514C419.458 125.839 418.358 124.889 416.533 124.889C414.483 124.889 412.983 126.339 412.983 128.464V136.414H410.958V123.489H412.983ZM423.916 139.614V138.489C424.466 138.289 425.041 137.814 425.041 136.414H423.891V133.939H426.316V136.489C426.316 138.314 425.341 139.339 423.916 139.614ZM447.06 136.414L446.41 134.064H446.36C445.06 135.889 443.135 136.789 440.785 136.789C435.76 136.789 432.385 132.964 432.385 127.539C432.385 122.289 435.36 118.164 440.985 118.164C445.135 118.164 447.685 120.414 448.26 123.914H445.935C445.435 121.539 443.76 120.114 440.935 120.114C436.635 120.114 434.685 123.339 434.685 127.539C434.685 131.914 437.235 134.839 440.86 134.839C444.535 134.839 446.26 132.339 446.26 129.339V128.914H440.885V126.964H448.51V136.414H447.06ZM461.464 136.539C460.139 136.539 459.439 135.939 459.239 134.614H459.214C458.439 135.614 457.114 136.664 454.914 136.664C452.464 136.664 450.539 135.514 450.539 133.064C450.539 130.014 452.939 129.389 456.164 128.889C457.989 128.614 459.264 128.439 459.264 127.039C459.264 125.589 458.214 124.764 456.364 124.764C454.264 124.764 453.214 125.664 453.139 127.614H451.189C451.264 125.114 452.914 123.239 456.339 123.239C459.089 123.239 461.114 124.264 461.114 127.339V133.489C461.114 134.539 461.364 135.114 462.489 134.864H462.564V136.339C462.314 136.439 461.989 136.539 461.464 136.539ZM455.364 135.114C458.064 135.114 459.289 133.139 459.289 131.639V129.439C458.614 129.864 457.439 130.189 456.339 130.389C454.314 130.764 452.689 131.114 452.689 133.014C452.689 134.739 454.039 135.114 455.364 135.114ZM464.059 136.414V123.489H466.084V125.339H466.134C466.934 124.089 468.309 123.189 469.934 123.189C471.509 123.189 472.759 123.989 473.309 125.489H473.359C474.184 124.014 475.734 123.189 477.309 123.189C479.609 123.189 481.234 124.664 481.234 127.339V136.414H479.209V127.439C479.209 125.839 478.134 124.889 476.834 124.889C475.159 124.889 473.659 126.339 473.659 128.364V136.414H471.634V127.439C471.634 125.839 470.734 124.889 469.409 124.889C467.834 124.889 466.084 126.339 466.084 128.364V136.414H464.059ZM489.432 136.764C485.482 136.764 483.182 133.714 483.182 129.964C483.182 126.214 485.632 123.164 489.307 123.164C493.182 123.164 495.257 126.164 495.257 130.439H485.257C485.407 133.064 486.832 135.064 489.432 135.064C491.307 135.064 492.557 134.164 493.007 132.414H494.982C494.382 135.189 492.357 136.764 489.432 136.764ZM489.307 124.764C486.907 124.764 485.607 126.564 485.307 128.914H493.082C492.957 126.339 491.632 124.764 489.307 124.764ZM500.092 136.414L506.667 118.539H509.192L515.792 136.414H513.342L511.442 130.964H504.317L502.392 136.414H500.092ZM507.092 123.139L504.967 129.139H510.817L508.767 123.139C508.417 122.139 507.967 120.614 507.967 120.614H507.917C507.917 120.614 507.442 122.114 507.092 123.139ZM519.453 123.489V125.639H519.503C520.278 124.389 521.628 123.339 523.353 123.339C523.728 123.339 523.928 123.389 524.178 123.489V125.439H524.103C523.803 125.339 523.603 125.314 523.203 125.314C521.203 125.314 519.453 126.814 519.453 129.239V136.414H517.428V123.489H519.453ZM525.172 125.139V123.489H527.047V119.414H529.072V123.489H531.572V125.139H529.072V133.539C529.072 134.439 529.547 134.739 530.372 134.739C530.772 134.739 531.222 134.639 531.447 134.564H531.522V136.314C531.047 136.414 530.497 136.489 529.897 136.489C528.247 136.489 527.047 135.814 527.047 133.989V125.139H525.172ZM533.657 139.614V138.489C534.207 138.289 534.782 137.814 534.782 136.414H533.632V133.939H536.057V136.489C536.057 138.314 535.082 139.339 533.657 139.614ZM64.3453 171.539C63.0203 171.539 62.3203 170.939 62.1203 169.614H62.0953C61.3203 170.614 59.9953 171.664 57.7953 171.664C55.3453 171.664 53.4203 170.514 53.4203 168.064C53.4203 165.014 55.8203 164.389 59.0453 163.889C60.8703 163.614 62.1453 163.439 62.1453 162.039C62.1453 160.589 61.0953 159.764 59.2453 159.764C57.1453 159.764 56.0953 160.664 56.0203 162.614H54.0703C54.1453 160.114 55.7953 158.239 59.2203 158.239C61.9703 158.239 63.9953 159.264 63.9953 162.339V168.489C63.9953 169.539 64.2453 170.114 65.3703 169.864H65.4453V171.339C65.1953 171.439 64.8703 171.539 64.3453 171.539ZM58.2453 170.114C60.9453 170.114 62.1703 168.139 62.1703 166.639V164.439C61.4953 164.864 60.3203 165.189 59.2203 165.389C57.1953 165.764 55.5703 166.114 55.5703 168.014C55.5703 169.739 56.9203 170.114 58.2453 170.114ZM68.9645 158.489V160.189H69.0145C69.9395 158.964 71.2395 158.189 73.1145 158.189C75.8145 158.189 77.4645 159.664 77.4645 162.339V171.414H75.4395V162.514C75.4395 160.839 74.3395 159.889 72.5145 159.889C70.4645 159.889 68.9645 161.339 68.9645 163.464V171.414H66.9395V158.489H68.9645ZM85.1475 171.789C81.6225 171.789 79.4225 169.139 79.4225 164.989C79.4225 160.689 81.8975 158.189 85.0975 158.189C86.9225 158.189 88.3225 159.089 89.1475 160.314H89.1975V153.539H91.2225V171.414H89.1975V169.839H89.1475C88.1725 171.089 86.9725 171.789 85.1475 171.789ZM85.2225 170.089C88.0975 170.089 89.3225 167.939 89.3225 165.014C89.3225 162.014 87.8725 159.914 85.1975 159.914C82.7475 159.914 81.4975 162.114 81.4975 165.014C81.4975 167.939 82.7475 170.089 85.2225 170.089ZM105.945 171.764C100.87 171.764 97.5703 167.889 97.5703 162.464C97.5703 157.214 100.72 153.139 106.045 153.139C110.22 153.139 112.745 155.539 113.22 158.839H111.02C110.595 156.614 108.82 155.089 105.995 155.089C102.07 155.089 99.8703 158.264 99.8703 162.464C99.8703 166.839 102.295 169.789 106.02 169.789C109.395 169.789 110.995 167.489 111.22 164.864H113.445C113.42 166.639 112.57 168.639 111.295 169.889C110.045 171.114 108.22 171.764 105.945 171.764ZM121.195 171.764C117.345 171.764 114.945 168.714 114.945 164.964C114.945 161.214 117.345 158.164 121.195 158.164C125.07 158.164 127.42 161.214 127.42 164.964C127.42 168.714 125.07 171.764 121.195 171.764ZM121.195 170.064C123.945 170.064 125.345 167.814 125.345 164.964C125.345 162.114 123.945 159.839 121.195 159.839C118.445 159.839 117.02 162.114 117.02 164.964C117.02 167.814 118.445 170.064 121.195 170.064ZM129.439 171.414V158.489H131.464V160.339H131.514C132.314 159.089 133.689 158.189 135.314 158.189C136.889 158.189 138.139 158.989 138.689 160.489H138.739C139.564 159.014 141.114 158.189 142.689 158.189C144.989 158.189 146.614 159.664 146.614 162.339V171.414H144.589V162.439C144.589 160.839 143.514 159.889 142.214 159.889C140.539 159.889 139.039 161.339 139.039 163.364V171.414H137.014V162.439C137.014 160.839 136.114 159.889 134.789 159.889C133.214 159.889 131.464 161.339 131.464 163.364V171.414H129.439ZM149.288 175.564V158.489H151.313V160.314H151.363C152.338 158.989 153.638 158.189 155.513 158.189C158.788 158.189 161.063 160.689 161.063 164.989C161.063 169.139 158.938 171.789 155.438 171.789C153.688 171.789 152.438 171.264 151.363 169.889H151.313V175.564H149.288ZM155.288 170.089C157.763 170.089 158.988 167.939 158.988 165.014C158.988 162.114 157.763 159.914 155.313 159.914C152.488 159.914 151.188 162.214 151.188 165.014C151.188 167.814 152.313 170.089 155.288 170.089ZM173.332 171.414H171.307V169.639H171.257C170.332 170.889 169.232 171.714 167.357 171.714C164.707 171.714 163.007 170.114 163.007 167.439V158.489H165.032V167.389C165.032 169.064 166.107 170.039 167.932 170.039C169.982 170.039 171.307 168.489 171.307 166.439V158.489H173.332V171.414ZM175.245 160.139V158.489H177.12V154.414H179.145V158.489H181.645V160.139H179.145V168.539C179.145 169.439 179.62 169.739 180.445 169.739C180.845 169.739 181.295 169.639 181.52 169.564H181.595V171.314C181.12 171.414 180.57 171.489 179.97 171.489C178.32 171.489 177.12 170.814 177.12 168.989V160.139H175.245ZM189.139 171.764C185.189 171.764 182.889 168.714 182.889 164.964C182.889 161.214 185.339 158.164 189.014 158.164C192.889 158.164 194.964 161.164 194.964 165.439H184.964C185.114 168.064 186.539 170.064 189.139 170.064C191.014 170.064 192.264 169.164 192.714 167.414H194.689C194.089 170.189 192.064 171.764 189.139 171.764ZM189.014 159.764C186.614 159.764 185.314 161.564 185.014 163.914H192.789C192.664 161.339 191.339 159.764 189.014 159.764ZM198.969 158.489V160.639H199.019C199.794 159.389 201.144 158.339 202.869 158.339C203.244 158.339 203.444 158.389 203.694 158.489V160.439H203.619C203.319 160.339 203.119 160.314 202.719 160.314C200.719 160.314 198.969 161.814 198.969 164.239V171.414H196.944V158.489H198.969ZM209.793 171.414V153.539H217.243C219.118 153.539 220.568 154.164 221.493 155.264C222.243 156.139 222.693 157.314 222.693 158.664C222.693 161.939 220.818 163.914 216.918 163.914H212.043V171.414H209.793ZM212.043 155.489V162.089H216.743C219.268 162.089 220.468 160.814 220.468 158.764C220.468 156.614 219.143 155.489 216.868 155.489H212.043ZM226.582 158.489V160.639H226.632C227.407 159.389 228.757 158.339 230.482 158.339C230.857 158.339 231.057 158.389 231.307 158.489V160.439H231.232C230.932 160.339 230.732 160.314 230.332 160.314C228.332 160.314 226.582 161.814 226.582 164.239V171.414H224.557V158.489H226.582ZM238.163 171.764C234.313 171.764 231.913 168.714 231.913 164.964C231.913 161.214 234.313 158.164 238.163 158.164C242.038 158.164 244.388 161.214 244.388 164.964C244.388 168.714 242.038 171.764 238.163 171.764ZM238.163 170.064C240.913 170.064 242.313 167.814 242.313 164.964C242.313 162.114 240.913 159.839 238.163 159.839C235.413 159.839 233.988 162.114 233.988 164.964C233.988 167.814 235.413 170.064 238.163 170.064ZM251.557 175.714C248.207 175.714 246.307 174.364 246.082 172.139H247.957C248.157 173.564 249.507 174.114 251.507 174.114C253.882 174.114 255.207 173.039 255.207 170.789V168.964H255.157C254.207 170.189 253.182 170.964 251.332 170.964C247.982 170.964 245.682 168.289 245.682 164.564C245.682 160.539 248.207 158.189 251.207 158.189C253.082 158.189 254.282 158.914 255.157 160.139H255.207V158.489H257.232V170.714C257.232 174.114 254.982 175.714 251.557 175.714ZM251.432 169.264C254.407 169.264 255.357 167.189 255.357 164.464C255.357 161.639 254.157 159.889 251.407 159.889C248.982 159.889 247.757 161.789 247.757 164.589C247.757 167.414 249.032 169.264 251.432 169.264ZM262.006 158.489V160.639H262.056C262.831 159.389 264.181 158.339 265.906 158.339C266.281 158.339 266.481 158.389 266.731 158.489V160.439H266.656C266.356 160.339 266.156 160.314 265.756 160.314C263.756 160.314 262.006 161.814 262.006 164.239V171.414H259.981V158.489H262.006ZM278.213 171.539C276.888 171.539 276.188 170.939 275.988 169.614H275.963C275.188 170.614 273.863 171.664 271.663 171.664C269.213 171.664 267.288 170.514 267.288 168.064C267.288 165.014 269.688 164.389 272.913 163.889C274.738 163.614 276.013 163.439 276.013 162.039C276.013 160.589 274.963 159.764 273.112 159.764C271.013 159.764 269.963 160.664 269.888 162.614H267.938C268.013 160.114 269.663 158.239 273.088 158.239C275.838 158.239 277.863 159.264 277.863 162.339V168.489C277.863 169.539 278.113 170.114 279.238 169.864H279.312V171.339C279.063 171.439 278.738 171.539 278.213 171.539ZM272.113 170.114C274.813 170.114 276.038 168.139 276.038 166.639V164.439C275.363 164.864 274.188 165.189 273.088 165.389C271.063 165.764 269.438 166.114 269.438 168.014C269.438 169.739 270.788 170.114 272.113 170.114ZM280.807 171.414V158.489H282.832V160.339H282.882C283.682 159.089 285.057 158.189 286.682 158.189C288.257 158.189 289.507 158.989 290.057 160.489H290.107C290.932 159.014 292.482 158.189 294.057 158.189C296.357 158.189 297.982 159.664 297.982 162.339V171.414H295.957V162.439C295.957 160.839 294.882 159.889 293.582 159.889C291.907 159.889 290.407 161.339 290.407 163.364V171.414H288.382V162.439C288.382 160.839 287.482 159.889 286.157 159.889C284.582 159.889 282.832 161.339 282.832 163.364V171.414H280.807ZM300.655 171.414V158.489H302.68V160.339H302.73C303.53 159.089 304.905 158.189 306.53 158.189C308.105 158.189 309.355 158.989 309.905 160.489H309.955C310.78 159.014 312.33 158.189 313.905 158.189C316.205 158.189 317.83 159.664 317.83 162.339V171.414H315.805V162.439C315.805 160.839 314.73 159.889 313.43 159.889C311.755 159.889 310.255 161.339 310.255 163.364V171.414H308.23V162.439C308.23 160.839 307.33 159.889 306.005 159.889C304.43 159.889 302.68 161.339 302.68 163.364V171.414H300.655ZM320.504 171.414V158.489H322.529V171.414H320.504ZM320.504 156.039V153.539H322.529V156.039H320.504ZM327.314 158.489V160.189H327.364C328.289 158.964 329.589 158.189 331.464 158.189C334.164 158.189 335.814 159.664 335.814 162.339V171.414H333.789V162.514C333.789 160.839 332.689 159.889 330.864 159.889C328.814 159.889 327.314 161.339 327.314 163.464V171.414H325.289V158.489H327.314ZM343.647 175.714C340.297 175.714 338.397 174.364 338.172 172.139H340.047C340.247 173.564 341.597 174.114 343.597 174.114C345.972 174.114 347.297 173.039 347.297 170.789V168.964H347.247C346.297 170.189 345.272 170.964 343.422 170.964C340.072 170.964 337.772 168.289 337.772 164.564C337.772 160.539 340.297 158.189 343.297 158.189C345.172 158.189 346.372 158.914 347.247 160.139H347.297V158.489H349.322V170.714C349.322 174.114 347.072 175.714 343.647 175.714ZM343.522 169.264C346.497 169.264 347.447 167.189 347.447 164.464C347.447 161.639 346.247 159.889 343.497 159.889C341.072 159.889 339.847 161.789 339.847 164.589C339.847 167.414 341.122 169.264 343.522 169.264ZM351.796 171.414V168.939H354.221V171.414H351.796ZM363.52 171.414L370.095 153.539H372.62L379.22 171.414H376.77L374.87 165.964H367.745L365.82 171.414H363.52ZM370.52 158.139L368.395 164.139H374.245L372.195 158.139C371.845 157.139 371.395 155.614 371.395 155.614H371.345C371.345 155.614 370.87 157.114 370.52 158.139ZM380.93 171.414V153.539H382.955V171.414H380.93ZM385.862 171.414V153.539H387.887V171.414H385.862ZM393.873 160.139V158.489H395.748V154.414H397.773V158.489H400.273V160.139H397.773V168.539C397.773 169.439 398.248 169.739 399.073 169.739C399.473 169.739 399.923 169.639 400.148 169.564H400.223V171.314C399.748 171.414 399.198 171.489 398.598 171.489C396.948 171.489 395.748 170.814 395.748 168.989V160.139H393.873ZM404.389 153.539V160.189H404.439C405.364 158.964 406.664 158.189 408.539 158.189C411.239 158.189 412.889 159.664 412.889 162.339V171.414H410.864V162.514C410.864 160.839 409.764 159.889 407.939 159.889C405.889 159.889 404.389 161.339 404.389 163.464V171.414H402.364V153.539H404.389ZM421.097 171.764C417.147 171.764 414.847 168.714 414.847 164.964C414.847 161.214 417.297 158.164 420.972 158.164C424.847 158.164 426.922 161.164 426.922 165.439H416.922C417.072 168.064 418.497 170.064 421.097 170.064C422.972 170.064 424.222 169.164 424.672 167.414H426.647C426.047 170.189 424.022 171.764 421.097 171.764ZM420.972 159.764C418.572 159.764 417.272 161.564 416.972 163.914H424.747C424.622 161.339 423.297 159.764 420.972 159.764ZM432.882 175.564V158.489H434.907V160.314H434.957C435.932 158.989 437.232 158.189 439.107 158.189C442.382 158.189 444.657 160.689 444.657 164.989C444.657 169.139 442.532 171.789 439.032 171.789C437.282 171.789 436.032 171.264 434.957 169.889H434.907V175.564H432.882ZM438.882 170.089C441.357 170.089 442.582 167.939 442.582 165.014C442.582 162.114 441.357 159.914 438.907 159.914C436.082 159.914 434.782 162.214 434.782 165.014C434.782 167.814 435.907 170.089 438.882 170.089ZM448.701 153.539V160.189H448.751C449.676 158.964 450.976 158.189 452.851 158.189C455.551 158.189 457.201 159.664 457.201 162.339V171.414H455.176V162.514C455.176 160.839 454.076 159.889 452.251 159.889C450.201 159.889 448.701 161.339 448.701 163.464V171.414H446.676V153.539H448.701ZM465.409 171.764C461.559 171.764 459.159 168.714 459.159 164.964C459.159 161.214 461.559 158.164 465.409 158.164C469.284 158.164 471.634 161.214 471.634 164.964C471.634 168.714 469.284 171.764 465.409 171.764ZM465.409 170.064C468.159 170.064 469.559 167.814 469.559 164.964C469.559 162.114 468.159 159.839 465.409 159.839C462.659 159.839 461.234 162.114 461.234 164.964C461.234 167.814 462.659 170.064 465.409 170.064ZM472.584 160.139V158.489H474.459V154.414H476.484V158.489H478.984V160.139H476.484V168.539C476.484 169.439 476.959 169.739 477.784 169.739C478.184 169.739 478.634 169.639 478.859 169.564H478.934V171.314C478.459 171.414 477.909 171.489 477.309 171.489C475.659 171.489 474.459 170.814 474.459 168.989V160.139H472.584ZM486.478 171.764C482.628 171.764 480.228 168.714 480.228 164.964C480.228 161.214 482.628 158.164 486.478 158.164C490.353 158.164 492.703 161.214 492.703 164.964C492.703 168.714 490.353 171.764 486.478 171.764ZM486.478 170.064C489.228 170.064 490.628 167.814 490.628 164.964C490.628 162.114 489.228 159.839 486.478 159.839C483.728 159.839 482.303 162.114 482.303 164.964C482.303 167.814 483.728 170.064 486.478 170.064ZM499.623 171.789C496.073 171.789 494.098 170.114 493.898 167.214H495.973C496.248 169.464 497.748 170.089 499.673 170.089C501.798 170.089 502.673 169.164 502.673 167.964C502.673 166.514 501.673 166.139 499.298 165.639C496.748 165.114 494.473 164.589 494.473 161.764C494.473 159.614 496.123 158.214 499.123 158.214C502.323 158.214 503.898 159.739 504.198 162.264H502.123C501.923 160.564 500.998 159.814 499.073 159.814C497.223 159.814 496.473 160.639 496.473 161.664C496.473 163.064 497.723 163.339 499.948 163.789C502.548 164.314 504.723 164.889 504.723 167.864C504.723 170.464 502.598 171.789 499.623 171.789ZM513.466 171.414L509.366 158.489H511.541L513.816 166.464C514.116 167.539 514.516 169.239 514.516 169.239H514.566C514.566 169.239 514.941 167.539 515.216 166.514L517.391 158.489H519.516L521.616 166.514C521.891 167.564 522.241 169.239 522.241 169.239H522.291C522.291 169.239 522.691 167.539 523.016 166.464L525.416 158.489H527.516L523.291 171.414H521.216L519.066 163.589C518.766 162.514 518.441 160.889 518.441 160.889H518.391C518.391 160.889 518.041 162.514 517.741 163.589L515.566 171.414H513.466ZM534.281 171.764C530.331 171.764 528.031 168.714 528.031 164.964C528.031 161.214 530.481 158.164 534.156 158.164C538.031 158.164 540.106 161.164 540.106 165.439H530.106C530.256 168.064 531.681 170.064 534.281 170.064C536.156 170.064 537.406 169.164 537.856 167.414H539.831C539.231 170.189 537.206 171.764 534.281 171.764ZM534.156 159.764C531.756 159.764 530.456 161.564 530.156 163.914H537.931C537.806 161.339 536.481 159.764 534.156 159.764ZM544.111 158.489V160.639H544.161C544.936 159.389 546.286 158.339 548.011 158.339C548.386 158.339 548.586 158.389 548.836 158.489V160.439H548.761C548.461 160.339 548.261 160.314 547.861 160.314C545.861 160.314 544.111 161.814 544.111 164.239V171.414H542.086V158.489H544.111ZM555.692 171.764C551.742 171.764 549.442 168.714 549.442 164.964C549.442 161.214 551.892 158.164 555.567 158.164C559.442 158.164 561.517 161.164 561.517 165.439H551.517C551.667 168.064 553.092 170.064 555.692 170.064C557.567 170.064 558.817 169.164 559.267 167.414H561.242C560.642 170.189 558.617 171.764 555.692 171.764ZM555.567 159.764C553.167 159.764 551.867 161.564 551.567 163.914H559.342C559.217 161.339 557.892 159.764 555.567 159.764ZM53.3703 195.139V193.489H55.2453V189.414H57.2703V193.489H59.7703V195.139H57.2703V203.539C57.2703 204.439 57.7453 204.739 58.5703 204.739C58.9703 204.739 59.4203 204.639 59.6453 204.564H59.7203V206.314C59.2453 206.414 58.6953 206.489 58.0953 206.489C56.4453 206.489 55.2453 205.814 55.2453 203.989V195.139H53.3703ZM72.0113 206.539C70.6863 206.539 69.9863 205.939 69.7863 204.614H69.7613C68.9863 205.614 67.6613 206.664 65.4613 206.664C63.0113 206.664 61.0863 205.514 61.0863 203.064C61.0863 200.014 63.4863 199.389 66.7113 198.889C68.5363 198.614 69.8113 198.439 69.8113 197.039C69.8113 195.589 68.7613 194.764 66.9113 194.764C64.8113 194.764 63.7613 195.664 63.6863 197.614H61.7363C61.8113 195.114 63.4613 193.239 66.8863 193.239C69.6363 193.239 71.6613 194.264 71.6613 197.339V203.489C71.6613 204.539 71.9113 205.114 73.0363 204.864H73.1113V206.339C72.8613 206.439 72.5363 206.539 72.0113 206.539ZM65.9113 205.114C68.6113 205.114 69.8363 203.139 69.8363 201.639V199.439C69.1613 199.864 67.9863 200.189 66.8863 200.389C64.8613 200.764 63.2363 201.114 63.2363 203.014C63.2363 204.739 64.5863 205.114 65.9113 205.114ZM83.1055 206.414L78.5305 199.439L76.6305 201.239V206.414H74.6055V188.539H76.6305V199.014L82.3055 193.489H84.8805L79.9305 198.139L85.4805 206.414H83.1055ZM91.6051 206.764C87.6551 206.764 85.3551 203.714 85.3551 199.964C85.3551 196.214 87.8051 193.164 91.4801 193.164C95.3551 193.164 97.4301 196.164 97.4301 200.439H87.4301C87.5801 203.064 89.0051 205.064 91.6051 205.064C93.4801 205.064 94.7301 204.164 95.1801 202.414H97.1551C96.5551 205.189 94.5301 206.764 91.6051 206.764ZM91.4801 194.764C89.0801 194.764 87.7801 196.564 87.4801 198.914H95.2551C95.1301 196.339 93.8051 194.764 91.4801 194.764ZM101.435 193.489V195.189H101.485C102.41 193.964 103.71 193.189 105.585 193.189C108.285 193.189 109.935 194.664 109.935 197.339V206.414H107.91V197.514C107.91 195.839 106.81 194.889 104.985 194.889C102.935 194.889 101.435 196.339 101.435 198.464V206.414H99.4102V193.489H101.435ZM122.748 206.789C120.998 206.789 119.723 206.164 118.673 204.714H118.623V206.414H116.598V188.539H118.623V195.339H118.673C119.648 194.014 120.948 193.189 122.823 193.189C126.098 193.189 128.323 195.689 128.323 199.989C128.323 204.139 126.248 206.789 122.748 206.789ZM122.598 205.089C125.073 205.089 126.248 202.939 126.248 200.014C126.248 197.114 125.073 194.914 122.623 194.914C119.798 194.914 118.498 197.214 118.498 200.014C118.498 202.914 119.848 205.089 122.598 205.089ZM131.749 210.689C130.974 210.689 130.474 210.639 129.924 210.414V208.614H130.024C130.299 208.764 130.724 208.889 131.399 208.889C132.249 208.889 132.824 208.564 133.324 207.314L133.824 206.039L128.774 193.489H130.974L134.024 201.539C134.424 202.614 134.899 204.064 134.899 204.064H134.949C134.949 204.064 135.399 202.614 135.799 201.539L138.749 193.489H140.899L135.374 207.464C134.324 210.139 133.324 210.689 131.749 210.689ZM146.61 206.414V188.539H158.735V190.514H148.86V196.089H157.085V197.989H148.86V206.414H146.61ZM165.165 206.764C161.315 206.764 158.915 203.714 158.915 199.964C158.915 196.214 161.315 193.164 165.165 193.164C169.04 193.164 171.39 196.214 171.39 199.964C171.39 203.714 169.04 206.764 165.165 206.764ZM165.165 205.064C167.915 205.064 169.315 202.814 169.315 199.964C169.315 197.114 167.915 194.839 165.165 194.839C162.415 194.839 160.99 197.114 160.99 199.964C160.99 202.814 162.415 205.064 165.165 205.064ZM175.434 193.489V195.639H175.484C176.259 194.389 177.609 193.339 179.334 193.339C179.709 193.339 179.909 193.389 180.159 193.489V195.439H180.084C179.784 195.339 179.584 195.314 179.184 195.314C177.184 195.314 175.434 196.814 175.434 199.239V206.414H173.409V193.489H175.434ZM184.004 193.489V195.639H184.054C184.829 194.389 186.179 193.339 187.904 193.339C188.279 193.339 188.479 193.389 188.729 193.489V195.439H188.654C188.354 195.339 188.154 195.314 187.754 195.314C185.754 195.314 184.004 196.814 184.004 199.239V206.414H181.979V193.489H184.004ZM195.585 206.764C191.635 206.764 189.335 203.714 189.335 199.964C189.335 196.214 191.785 193.164 195.46 193.164C199.335 193.164 201.41 196.164 201.41 200.439H191.41C191.56 203.064 192.985 205.064 195.585 205.064C197.46 205.064 198.71 204.164 199.16 202.414H201.135C200.535 205.189 198.51 206.764 195.585 206.764ZM195.46 194.764C193.06 194.764 191.76 196.564 191.46 198.914H199.235C199.11 196.339 197.785 194.764 195.46 194.764ZM208.29 206.789C204.74 206.789 202.765 205.114 202.565 202.214H204.64C204.915 204.464 206.415 205.089 208.34 205.089C210.465 205.089 211.34 204.164 211.34 202.964C211.34 201.514 210.34 201.139 207.965 200.639C205.415 200.114 203.14 199.589 203.14 196.764C203.14 194.614 204.79 193.214 207.79 193.214C210.99 193.214 212.565 194.739 212.865 197.264H210.79C210.59 195.564 209.665 194.814 207.74 194.814C205.89 194.814 205.14 195.639 205.14 196.664C205.14 198.064 206.39 198.339 208.615 198.789C211.215 199.314 213.39 199.889 213.39 202.864C213.39 205.464 211.265 206.789 208.29 206.789ZM214.259 195.139V193.489H216.134V189.414H218.159V193.489H220.659V195.139H218.159V203.539C218.159 204.439 218.634 204.739 219.459 204.739C219.859 204.739 220.309 204.639 220.534 204.564H220.609V206.314C220.134 206.414 219.584 206.489 218.984 206.489C217.334 206.489 216.134 205.814 216.134 203.989V195.139H214.259ZM227.029 206.414V188.539H229.904L235.704 203.389H235.754L241.504 188.539H244.429V206.414H242.279V191.714H242.229C242.229 191.714 241.754 193.114 241.429 193.964L236.529 206.414H234.804L229.904 193.964C229.554 193.064 229.104 191.714 229.104 191.714H229.054V206.414H227.029ZM257.631 206.539C256.306 206.539 255.606 205.939 255.406 204.614H255.381C254.606 205.614 253.281 206.664 251.081 206.664C248.631 206.664 246.706 205.514 246.706 203.064C246.706 200.014 249.106 199.389 252.331 198.889C254.156 198.614 255.431 198.439 255.431 197.039C255.431 195.589 254.381 194.764 252.531 194.764C250.431 194.764 249.381 195.664 249.306 197.614H247.356C247.431 195.114 249.081 193.239 252.506 193.239C255.256 193.239 257.281 194.264 257.281 197.339V203.489C257.281 204.539 257.531 205.114 258.656 204.864H258.731V206.339C258.481 206.439 258.156 206.539 257.631 206.539ZM251.531 205.114C254.231 205.114 255.456 203.139 255.456 201.639V199.439C254.781 199.864 253.606 200.189 252.506 200.389C250.481 200.764 248.856 201.114 248.856 203.014C248.856 204.739 250.206 205.114 251.531 205.114ZM265.751 206.764C261.901 206.764 259.501 203.714 259.501 199.964C259.501 196.214 261.901 193.164 265.751 193.164C268.801 193.164 270.826 194.914 271.276 197.664H269.226C268.926 195.914 267.701 194.839 265.751 194.839C263.001 194.839 261.576 197.114 261.576 199.964C261.576 202.814 263.001 205.064 265.751 205.064C267.851 205.064 269.101 203.864 269.276 201.864H271.276C271.001 204.964 268.976 206.764 265.751 206.764ZM281.689 206.414L277.114 199.439L275.214 201.239V206.414H273.189V188.539H275.214V199.014L280.889 193.489H283.464L278.514 198.139L284.064 206.414H281.689ZM295.327 206.539C294.002 206.539 293.302 205.939 293.102 204.614H293.077C292.302 205.614 290.977 206.664 288.777 206.664C286.327 206.664 284.402 205.514 284.402 203.064C284.402 200.014 286.802 199.389 290.027 198.889C291.852 198.614 293.127 198.439 293.127 197.039C293.127 195.589 292.077 194.764 290.227 194.764C288.127 194.764 287.077 195.664 287.002 197.614H285.052C285.127 195.114 286.777 193.239 290.202 193.239C292.952 193.239 294.977 194.264 294.977 197.339V203.489C294.977 204.539 295.227 205.114 296.352 204.864H296.427V206.339C296.177 206.439 295.852 206.539 295.327 206.539ZM289.227 205.114C291.927 205.114 293.152 203.139 293.152 201.639V199.439C292.477 199.864 291.302 200.189 290.202 200.389C288.177 200.764 286.552 201.114 286.552 203.014C286.552 204.739 287.902 205.114 289.227 205.114ZM299.571 210.689C298.796 210.689 298.296 210.639 297.746 210.414V208.614H297.846C298.121 208.764 298.546 208.889 299.221 208.889C300.071 208.889 300.646 208.564 301.146 207.314L301.646 206.039L296.596 193.489H298.796L301.846 201.539C302.246 202.614 302.721 204.064 302.721 204.064H302.771C302.771 204.064 303.221 202.614 303.621 201.539L306.571 193.489H308.721L303.196 207.464C302.146 210.139 301.146 210.689 299.571 210.689ZM308.388 206.414V203.939H310.813V206.414H308.388Z" fill="white"/>
<path d="M144.935 209.539H296.552V210.789H144.935V209.539Z" fill="white"/>
<a href="https://www.forrestmackay.com/">
<rect fill="black" fill-opacity="0" x="92.1143" y="143.2" width="151.617" height="28.6"/>
</a>
</svg>
