<svg width="180" height="39" viewBox="0 0 180 39" fill="none" xmlns="http://www.w3.org/2000/svg">
<path d="M180 0L-7.73521 0.0123497L-22 38.5789L165.776 38.58L180 0Z" fill="white"/>
<path d="M33.5609 29L31.7859 11.125H35.4109L35.9359 20C36.0359 21.675 36.0109 23.95 36.0109 23.95H36.0609C36.0609 23.95 36.8859 21.725 37.5609 20.025L41.1109 11.125H44.4859L44.9109 20C44.9859 21.6 45.0109 23.95 45.0109 23.95H45.0609C45.0609 23.95 45.9609 21.6 46.6359 19.975L50.3359 11.125H53.8609L45.8609 29H42.5359L42.0109 19.375C41.9359 17.95 41.9359 16.075 41.9359 16.075H41.8859C41.8859 16.075 41.3109 17.9 40.7109 19.375L36.8359 29H33.5609ZM63.4029 23.525H54.4779C54.4779 25.55 55.1529 26.775 57.1029 26.775C58.2779 26.775 59.2529 26.275 59.7279 25.175H63.0279C62.6279 26.375 61.9529 27.35 61.0529 28.05C59.9779 28.9 58.6029 29.35 57.0529 29.375C53.7279 29.375 51.1529 27.525 51.1529 23.475C51.1529 19.75 53.8779 15.825 58.0279 15.825C59.4279 15.825 60.4029 16.1 61.2529 16.65C63.1779 17.9 63.8779 20.45 63.4029 23.525ZM57.9529 18.425C56.1779 18.425 55.2279 19.7 54.7779 21.2H60.3029C60.3529 19.7 59.6779 18.425 57.9529 18.425ZM71.3836 29.375C69.7836 29.375 68.2336 28.75 67.5086 27.125H67.4586L67.1086 29H63.8836L67.3336 11.125H70.6836L69.4086 17.675H69.4836C70.3336 16.625 71.5836 15.825 73.1586 15.825C76.0086 15.825 77.6336 18.075 77.6336 21.225C77.6336 25.35 75.6586 29.375 71.3836 29.375ZM68.2836 23.6C68.2836 25.175 69.0586 26.55 70.9086 26.55C73.3336 26.55 74.1836 23.775 74.1836 21.475C74.1836 19.975 73.6336 18.55 71.8086 18.55C69.3336 18.55 68.2836 21.375 68.2836 23.6ZM93.2441 29L92.7441 25.175H86.5691L84.7691 29H81.1441L90.2941 11.125H93.9941L96.9441 29H93.2441ZM90.2941 17.35L87.8691 22.425H92.3941L91.7691 17.4C91.6441 16.375 91.5441 14.55 91.5441 14.55H91.4941C91.4941 14.55 90.7441 16.4 90.2941 17.35ZM97.2139 33.2L100.514 16.175H103.739L103.439 17.75H103.514C104.414 16.6 105.714 15.825 107.439 15.825C110.314 15.825 111.864 18.225 111.864 21.425C111.864 25.05 110.014 29.375 105.539 29.375C103.989 29.375 102.514 28.7 101.789 27.2H101.739L100.564 33.2H97.2139ZM102.414 23.625C102.414 25.175 103.214 26.575 105.039 26.575C107.564 26.575 108.439 23.9 108.439 21.55C108.439 20.05 107.814 18.55 105.989 18.55C103.589 18.55 102.414 21.3 102.414 23.625ZM111.252 33.2L114.552 16.175H117.777L117.477 17.75H117.552C118.452 16.6 119.752 15.825 121.477 15.825C124.352 15.825 125.902 18.225 125.902 21.425C125.902 25.05 124.052 29.375 119.577 29.375C118.027 29.375 116.552 28.7 115.827 27.2H115.777L114.602 33.2H111.252ZM116.452 23.625C116.452 25.175 117.252 26.575 119.077 26.575C121.602 26.575 122.477 23.9 122.477 21.55C122.477 20.05 121.852 18.55 120.027 18.55C117.627 18.55 116.452 21.3 116.452 23.625Z" fill="black"/>
</svg>
