<svg width="285" height="39" viewBox="0 0 285 39" fill="none" xmlns="http://www.w3.org/2000/svg">
<path d="M285 0L-17.0492 0.0123497L-40 38.5789L262.115 38.58L285 0Z" fill="white"/>
<path d="M30.1 29L33.55 11.125H40.75C44.275 11.125 46.15 13.075 46.15 15.875C46.15 18.45 44.6 19.975 42.225 20.575V20.65C43.65 21.1 44.425 22.05 44.425 23.725C44.425 24.75 44.225 26.3 44.225 27.675C44.225 28.225 44.325 28.7 44.575 28.825V29H41.125C40.925 28.775 40.85 28.275 40.85 27.675C40.85 26.55 41 25.25 41 24.225C41 22.625 40.1 21.825 38.3 21.825H35.05L33.675 29H30.1ZM36.575 14.025L35.6 19.05H39.325C41.05 19.05 42.575 18.25 42.575 16.275C42.575 14.825 41.775 14.025 40.2 14.025H36.575ZM58.3238 23.525H49.3988C49.3988 25.55 50.0738 26.775 52.0238 26.775C53.1988 26.775 54.1738 26.275 54.6488 25.175H57.9488C57.5488 26.375 56.8738 27.35 55.9738 28.05C54.8988 28.9 53.5238 29.35 51.9738 29.375C48.6488 29.375 46.0738 27.525 46.0738 23.475C46.0738 19.75 48.7988 15.825 52.9488 15.825C54.3488 15.825 55.3238 16.1 56.1738 16.65C58.0988 17.9 58.7988 20.45 58.3238 23.525ZM52.8738 18.425C51.0988 18.425 50.1488 19.7 49.6988 21.2H55.2238C55.2738 19.7 54.5988 18.425 52.8738 18.425ZM66.9266 29C66.7766 28.725 66.7266 28.175 66.7516 27.6H66.7016C65.9266 28.425 64.9766 29.3 63.1266 29.3C61.1516 29.3 59.0516 28.175 59.0516 25.525C59.0516 22.125 61.7516 21.5 64.8766 21.25C67.2766 21.05 68.2016 20.95 68.2016 19.675C68.2016 18.75 67.4766 18.25 66.2016 18.25C64.8016 18.25 63.8766 18.8 63.5766 20.075H60.5766C61.0016 17.45 63.0266 15.85 66.3266 15.85C69.5016 15.85 71.9016 17.225 71.2016 20.95L70.0016 27.1C69.8266 27.975 69.9016 28.575 70.1016 28.875V29H66.9266ZM62.2766 25.225C62.2766 26.375 63.0766 26.975 64.2016 26.975C65.9516 26.975 67.0766 25.875 67.3266 24.7L67.7266 22.675C67.0766 22.975 66.3766 23.125 65.2766 23.325C64.0516 23.55 62.2766 23.475 62.2766 25.225ZM77.9463 29.375C74.8213 29.375 72.2213 27.625 72.2213 23.7C72.2213 19.75 74.8463 15.825 79.2213 15.825C82.0713 15.825 84.3713 17.175 84.5463 20.525H81.2713C81.1463 19.3 80.4713 18.525 79.1213 18.525C76.6463 18.525 75.5713 21.35 75.5713 23.8C75.5713 25.45 76.2963 26.675 78.1463 26.675C79.3963 26.675 80.3713 26 80.8213 24.475H84.0713C83.3713 27.55 81.0963 29.375 77.9463 29.375ZM85.5689 18.425L85.9939 16.175H87.6189L88.3939 12.175H91.6689L90.8939 16.175H93.0439L92.6189 18.425H90.4689L89.1689 25.1C88.9689 26.1 89.2939 26.5 90.1189 26.5C90.4939 26.5 91.1189 26.45 91.1189 26.45L90.6439 28.95C90.6439 28.95 89.7939 29.025 89.1189 29.025C86.5189 29.025 85.2939 28.075 85.8189 25.425L87.1939 18.425H85.5689ZM92.3006 29L94.7756 16.175H98.1256L95.6506 29H92.3006ZM95.1756 14.175L95.7506 11.125H99.1006L98.5256 14.175H95.1756ZM104.419 29.375C101.069 29.375 98.3938 27.325 98.3938 23.4C98.3938 19.35 101.244 15.825 105.619 15.825C108.894 15.825 111.544 17.875 111.544 21.675C111.544 25.775 108.794 29.375 104.419 29.375ZM101.744 23.6C101.744 25.35 102.519 26.85 104.494 26.85C107.094 26.85 108.194 24.025 108.194 21.575C108.194 19.9 107.419 18.35 105.444 18.35C102.869 18.35 101.744 21.125 101.744 23.6ZM117.557 16.175L117.182 18.2H117.257C118.357 16.625 119.432 15.825 121.257 15.825C123.807 15.825 125.282 17.9 124.707 20.9L123.157 29H119.807L121.307 21.3C121.632 19.6 120.982 18.675 119.557 18.675C117.982 18.675 116.857 20.125 116.507 22L115.157 29H111.807L114.282 16.175H117.557ZM142.631 29L142.931 26.8H142.881C141.706 28.425 139.931 29.375 137.731 29.375C133.556 29.375 130.606 26.675 130.606 21.775C130.606 16.225 134.431 10.75 140.356 10.775C144.006 10.8 146.981 12.625 147.256 16.75H143.781C143.581 14.875 142.206 13.75 140.081 13.75C136.281 13.75 134.256 17.75 134.256 21.725C134.256 24.7 135.631 26.475 138.506 26.475C141.081 26.475 143.006 24.825 143.431 22.275H139.206L139.731 19.5H147.131L145.306 29H142.631ZM155.452 29C155.302 28.725 155.252 28.175 155.277 27.6H155.227C154.452 28.425 153.502 29.3 151.652 29.3C149.677 29.3 147.577 28.175 147.577 25.525C147.577 22.125 150.277 21.5 153.402 21.25C155.802 21.05 156.727 20.95 156.727 19.675C156.727 18.75 156.002 18.25 154.727 18.25C153.327 18.25 152.402 18.8 152.102 20.075H149.102C149.527 17.45 151.552 15.85 154.852 15.85C158.027 15.85 160.427 17.225 159.727 20.95L158.527 27.1C158.352 27.975 158.427 28.575 158.627 28.875V29H155.452ZM150.802 25.225C150.802 26.375 151.602 26.975 152.727 26.975C154.477 26.975 155.602 25.875 155.852 24.7L156.252 22.675C155.602 22.975 154.902 23.125 153.802 23.325C152.577 23.55 150.802 23.475 150.802 25.225ZM160.294 29L162.769 16.175H165.994L165.644 18.05H165.719C166.594 16.675 167.744 15.825 169.319 15.825C171.044 15.825 172.019 16.85 172.394 18.275H172.444C173.594 16.525 174.994 15.825 176.694 15.825C178.994 15.825 180.744 17.625 180.069 21.025L178.544 29H175.194L176.719 21.125C177.019 19.525 176.369 18.675 175.194 18.675C173.769 18.675 172.819 19.95 172.444 21.925L171.094 29H167.744L169.269 21.125C169.569 19.525 168.919 18.675 167.744 18.675C166.319 18.675 165.369 19.95 164.994 21.925L163.644 29H160.294ZM193.407 23.525H184.482C184.482 25.55 185.157 26.775 187.107 26.775C188.282 26.775 189.257 26.275 189.732 25.175H193.032C192.632 26.375 191.957 27.35 191.057 28.05C189.982 28.9 188.607 29.35 187.057 29.375C183.732 29.375 181.157 27.525 181.157 23.475C181.157 19.75 183.882 15.825 188.032 15.825C189.432 15.825 190.407 16.1 191.257 16.65C193.182 17.9 193.882 20.45 193.407 23.525ZM187.957 18.425C186.182 18.425 185.232 19.7 184.782 21.2H190.307C190.357 19.7 189.682 18.425 187.957 18.425Z" fill="black"/>
</svg>
