<svg width="147" height="39" viewBox="0 0 147 39" fill="none" xmlns="http://www.w3.org/2000/svg">
<path d="M132.546 0L-42.6853 0.0123497L-56 38.5789L119.269 38.58L132.546 0Z" fill="white"/>
<path d="M33.6602 13.15L34.2352 10.125H48.1352L47.5602 13.15H42.3852L39.5102 28H35.9352L38.8102 13.15H33.6602ZM49.6852 15.175L49.2852 17.225H49.3602C50.1102 15.95 51.1352 15.025 52.7352 15.025C53.2102 15.025 53.5102 15.075 53.6852 15.125L53.1102 18.075H53.0352C50.7102 17.775 49.0852 18.85 48.5352 21.75L47.3352 28H43.9852L46.4602 15.175H49.6852ZM52.6766 28L55.1516 15.175H58.5016L56.0266 28H52.6766ZM55.5516 13.175L56.1266 10.125H59.4766L58.9016 13.175H55.5516ZM61.6227 28L59.4977 15.175H62.8977L63.6977 21.65C63.8727 23.05 63.9227 23.95 63.9227 23.95H63.9727C63.9727 23.95 64.2977 23.05 64.8977 21.825L67.9977 15.175H71.3477L64.8227 28H61.6227ZM69.9861 28L72.4611 15.175H75.8111L73.3361 28H69.9861ZM72.8611 13.175L73.4361 10.125H76.7861L76.2111 13.175H72.8611ZM83.4793 28C83.3293 27.725 83.2793 27.175 83.3043 26.6H83.2543C82.4793 27.425 81.5293 28.3 79.6793 28.3C77.7043 28.3 75.6043 27.175 75.6043 24.525C75.6043 21.125 78.3043 20.5 81.4293 20.25C83.8293 20.05 84.7543 19.95 84.7543 18.675C84.7543 17.75 84.0293 17.25 82.7543 17.25C81.3543 17.25 80.4293 17.8 80.1293 19.075H77.1293C77.5543 16.45 79.5793 14.85 82.8793 14.85C86.0543 14.85 88.4543 16.225 87.7543 19.95L86.5543 26.1C86.3793 26.975 86.4543 27.575 86.6543 27.875V28H83.4793ZM78.8293 24.225C78.8293 25.375 79.6293 25.975 80.7543 25.975C82.5043 25.975 83.6293 24.875 83.8793 23.7L84.2793 21.675C83.6293 21.975 82.9293 22.125 81.8293 22.325C80.6043 22.55 78.8293 22.475 78.8293 24.225Z" fill="black"/>
</svg>
