<svg width="274" height="39" viewBox="0 0 274 39" fill="none" xmlns="http://www.w3.org/2000/svg">
<path d="M274 0L-28.0492 0.0123497L-51 38.5789L251.115 38.58L274 0Z" fill="white"/>
<path d="M42.875 29L42.375 25.175H36.2L34.4 29H30.775L39.925 11.125H43.625L46.575 29H42.875ZM39.925 17.35L37.5 22.425H42.025L41.4 17.4C41.275 16.375 41.175 14.55 41.175 14.55H41.125C41.125 14.55 40.375 16.4 39.925 17.35ZM53.0908 29.375C49.9658 29.375 47.3658 27.625 47.3658 23.7C47.3658 19.75 49.9908 15.825 54.3658 15.825C57.2158 15.825 59.5158 17.175 59.6908 20.525H56.4158C56.2908 19.3 55.6158 18.525 54.2658 18.525C51.7908 18.525 50.7158 21.35 50.7158 23.8C50.7158 25.45 51.4408 26.675 53.2908 26.675C54.5408 26.675 55.5158 26 55.9658 24.475H59.2158C58.5158 27.55 56.2408 29.375 53.0908 29.375ZM60.7135 18.425L61.1385 16.175H62.7635L63.5385 12.175H66.8135L66.0385 16.175H68.1885L67.7635 18.425H65.6135L64.3135 25.1C64.1135 26.1 64.4385 26.5 65.2635 26.5C65.6385 26.5 66.2635 26.45 66.2635 26.45L65.7885 28.95C65.7885 28.95 64.9385 29.025 64.2635 29.025C61.6635 29.025 60.4385 28.075 60.9635 25.425L62.3385 18.425H60.7135ZM67.4451 29L69.9201 16.175H73.2701L70.7951 29H67.4451ZM70.3201 14.175L70.8951 11.125H74.2451L73.6701 14.175H70.3201ZM76.3912 29L74.2662 16.175H77.6662L78.4662 22.65C78.6412 24.05 78.6912 24.95 78.6912 24.95H78.7412C78.7412 24.95 79.0662 24.05 79.6662 22.825L82.7662 16.175H86.1162L79.5912 29H76.3912ZM84.7547 29L87.2297 16.175H90.5797L88.1047 29H84.7547ZM87.6297 14.175L88.2047 11.125H91.5547L90.9797 14.175H87.6297ZM91.5729 18.425L91.9979 16.175H93.6229L94.3979 12.175H97.6729L96.8979 16.175H99.0479L98.6229 18.425H96.4729L95.1729 25.1C94.9729 26.1 95.2979 26.5 96.1229 26.5C96.4979 26.5 97.1229 26.45 97.1229 26.45L96.6479 28.95C96.6479 28.95 95.7979 29.025 95.1229 29.025C92.5229 29.025 91.2979 28.075 91.8229 25.425L93.1979 18.425H91.5729ZM98.1545 33.2L98.6795 30.55H99.7545C101.179 30.55 101.979 29.775 101.979 28.175C101.979 27.55 101.829 26.6 101.554 25.3L99.7045 16.175H103.204L104.079 22C104.254 23.175 104.454 24.9 104.454 24.9H104.504C104.504 24.9 105.129 23.2 105.679 22L108.329 16.175H111.729L105.104 29.625C103.829 32.2 102.729 33.2 100.254 33.2H98.1545ZM115.132 29L118.582 11.125H125.757C127.232 11.125 128.532 11.475 129.457 12.225C130.332 12.925 130.857 14 130.857 15.45C130.857 17.55 129.657 19.025 127.557 19.625V19.7C129.382 20.2 130.332 21.45 130.307 23.425C130.307 24.875 129.757 26.125 128.657 27.175C127.432 28.35 125.807 29 123.382 29H115.132ZM120.257 21L119.282 26.025H123.407C125.382 26.025 126.682 25.15 126.682 23.275C126.682 21.75 125.657 21 124.157 21H120.257ZM120.782 18.35H124.482C125.957 18.35 127.382 17.875 127.382 15.925C127.382 14.8 126.757 14.05 125.282 14.05H121.607L120.782 18.35ZM137.596 29.375C134.246 29.375 131.571 27.325 131.571 23.4C131.571 19.35 134.421 15.825 138.796 15.825C142.071 15.825 144.721 17.875 144.721 21.675C144.721 25.775 141.971 29.375 137.596 29.375ZM134.921 23.6C134.921 25.35 135.696 26.85 137.671 26.85C140.271 26.85 141.371 24.025 141.371 21.575C141.371 19.9 140.596 18.35 138.621 18.35C136.046 18.35 134.921 21.125 134.921 23.6ZM151.609 29.375C148.259 29.375 145.584 27.325 145.584 23.4C145.584 19.35 148.434 15.825 152.809 15.825C156.084 15.825 158.734 17.875 158.734 21.675C158.734 25.775 155.984 29.375 151.609 29.375ZM148.934 23.6C148.934 25.35 149.709 26.85 151.684 26.85C154.284 26.85 155.384 24.025 155.384 21.575C155.384 19.9 154.609 18.35 152.634 18.35C150.059 18.35 148.934 21.125 148.934 23.6ZM167.448 29L164.998 23.2L163.098 24.9L162.323 29H158.998L162.448 11.125H165.773L163.823 21.15L168.848 16.175H172.948L167.598 21.2L171.173 29H167.448Z" fill="black"/>
</svg>
