<svg width="326" height="64" viewBox="0 0 326 64" fill="none" xmlns="http://www.w3.org/2000/svg">
<path fill-rule="evenodd" clip-rule="evenodd" d="M306.218 36.1033L304 38.2989C303.864 38.4337 303.643 38.4337 303.507 38.2989L301.288 36.1033C301.152 35.9685 301.152 35.7501 301.288 35.6153C301.425 35.4806 301.645 35.4806 301.781 35.6153L303.405 37.222V11.0933H304.102V37.222L305.725 35.6153C305.861 35.4806 306.082 35.4806 306.218 35.6153C306.354 35.7501 306.354 35.9685 306.218 36.1033Z" fill="white"/>
<path d="M280.651 45.486C280.651 42.9864 282.724 40.96 285.281 40.96H321.37C323.927 40.96 326 42.9864 326 45.486V59.474C326 61.9736 323.927 64 321.37 64H285.281C282.724 64 280.651 61.9736 280.651 59.474V45.486Z" fill="#16B4F3"/>
<path d="M0 45.486C0 42.9864 2.07309 40.96 4.63037 40.96H40.7187C43.276 40.96 45.3491 42.9864 45.3491 45.486V59.474C45.3491 61.9736 43.276 64 40.7187 64H4.63036C2.07308 64 0 61.9736 0 59.474V45.486Z" fill="#16B4F3"/>
<path d="M53.0499 52.48C53.0499 46.1177 58.3264 40.96 64.8354 40.96H86.6134C93.1224 40.96 98.3989 46.1177 98.3989 52.48C98.3989 58.8423 93.1224 64 86.6134 64H64.8354C58.3264 64 53.0499 58.8423 53.0499 52.48Z" fill="#FB5D2E"/>
<path d="M227.601 45.486C227.601 42.9864 229.635 40.96 232.144 40.96H267.551C270.061 40.96 272.094 42.9864 272.094 45.486V59.474C272.094 61.9736 270.061 64 267.551 64H232.144C229.635 64 227.601 61.9736 227.601 59.474V45.486Z" fill="#16B4F3"/>
<path d="M112.089 52.48C112.089 46.1177 117.359 40.96 123.86 40.96H162.781C169.281 40.96 174.551 46.1177 174.551 52.48C174.551 58.8423 169.281 64 162.781 64H123.86C117.359 64 112.089 58.8423 112.089 52.48Z" fill="#FB5D2E"/>
<path d="M166.85 11.9467C166.85 5.34871 172.107 0 178.592 0H204.736C211.221 0 216.478 5.34871 216.478 11.9467C216.478 18.5446 211.221 23.8933 204.736 23.8933H178.592C172.107 23.8933 166.85 18.5446 166.85 11.9467Z" fill="#FB5D2E"/>
<path d="M37.2161 58.5263C36.4714 58.5263 35.9634 57.9217 35.9634 56.966C35.9634 56.0448 36.4887 55.4058 37.2276 55.4058C37.6433 55.4058 37.9031 55.5958 38.0647 55.8433H38.082V54.3234H38.8672V58.4399H38.1109V58.0542H38.0994C37.9262 58.3363 37.6317 58.5263 37.2161 58.5263ZM37.3893 57.8699C37.8569 57.8699 38.0994 57.5245 38.0994 56.9833C38.0994 56.4191 37.9146 56.0391 37.4124 56.0391C36.9794 56.0391 36.76 56.4191 36.76 56.966C36.76 57.536 36.9852 57.8699 37.3893 57.8699Z" fill="white"/>
<path d="M34.956 58.4403C34.9098 58.3828 34.881 58.2446 34.8636 58.1122H34.8521C34.702 58.3367 34.4884 58.5094 33.9804 58.5094C33.3742 58.5094 32.947 58.1928 32.947 57.6055C32.947 56.9549 33.4781 56.7477 34.1362 56.6556C34.6269 56.5865 34.8521 56.5462 34.8521 56.3216C34.8521 56.1086 34.6847 55.9704 34.3556 55.9704C33.9861 55.9704 33.8072 56.1029 33.7841 56.385H33.0856C33.1087 55.8668 33.4954 55.412 34.3614 55.412C35.2504 55.412 35.6083 55.8092 35.6083 56.5001V58.0028C35.6083 58.2273 35.643 58.3597 35.7123 58.4116V58.4403H34.956ZM34.1709 57.9625C34.6212 57.9625 34.8694 57.6861 34.8694 57.3983V56.9549C34.7309 57.0355 34.5173 57.0816 34.321 57.1277C33.9111 57.2198 33.709 57.3119 33.709 57.5882C33.709 57.8646 33.8938 57.9625 34.1709 57.9625Z" fill="white"/>
<path d="M31.1785 58.5247C30.2606 58.5247 29.6314 57.8453 29.6314 56.9644C29.6314 56.0835 30.2606 55.4042 31.1785 55.4042C32.0964 55.4042 32.7257 56.0835 32.7257 56.9644C32.7257 57.8453 32.0964 58.5247 31.1785 58.5247ZM31.1785 57.9259C31.6577 57.9259 31.929 57.5401 31.929 56.9644C31.929 56.3887 31.6577 55.9972 31.1785 55.9972C30.6936 55.9972 30.4281 56.3887 30.4281 56.9644C30.4281 57.5401 30.6936 57.9259 31.1785 57.9259Z" fill="white"/>
<path d="M28.4734 58.4399V54.3234H29.2585V58.4399H28.4734Z" fill="white"/>
<path d="M26.0605 55.4848V55.8878H26.0778C26.2799 55.5711 26.5512 55.4042 26.9553 55.4042C27.5672 55.4042 27.9771 55.8648 27.9771 56.5096V58.4383H27.192V56.6247C27.192 56.3081 27.0073 56.0835 26.6782 56.0835C26.3318 56.0835 26.0778 56.3599 26.0778 56.7629V58.4383H25.2927V55.4848H26.0605Z" fill="white"/>
<path d="M21.6263 58.4396L20.7604 55.4861H21.5397L21.8976 56.8563C21.9611 57.0982 22.0304 57.4091 22.0304 57.4091H22.042C22.042 57.4091 22.1055 57.0924 22.169 56.8506L22.5384 55.4861H23.2081L23.5949 56.8506C23.6584 57.0982 23.7334 57.4091 23.7334 57.4091H23.745C23.745 57.4091 23.8143 57.0982 23.8778 56.8563L24.253 55.4861H25.015L24.1318 58.4396H23.4159L23.0234 56.9888C22.9599 56.7527 22.8906 56.4764 22.8906 56.4764H22.879C22.879 56.4764 22.804 56.7527 22.7405 56.9888L22.3364 58.4396H21.6263Z" fill="white"/>
<path d="M19.164 58.5247C18.2461 58.5247 17.6169 57.8453 17.6169 56.9644C17.6169 56.0835 18.2461 55.4042 19.164 55.4042C20.0819 55.4042 20.7112 56.0835 20.7112 56.9644C20.7112 57.8453 20.0819 58.5247 19.164 58.5247ZM19.164 57.9259C19.6432 57.9259 19.9145 57.5401 19.9145 56.9644C19.9145 56.3887 19.6432 55.9972 19.164 55.9972C18.6791 55.9972 18.4135 56.3887 18.4135 56.9644C18.4135 57.5401 18.6791 57.9259 19.164 57.9259Z" fill="white"/>
<path d="M15.6009 58.5263C14.8562 58.5263 14.3482 57.9217 14.3482 56.966C14.3482 56.0448 14.8735 55.4058 15.6125 55.4058C16.0281 55.4058 16.2879 55.5958 16.4495 55.8433H16.4669V54.3234H17.252V58.4399H16.4957V58.0542H16.4842C16.311 58.3363 16.0166 58.5263 15.6009 58.5263ZM15.7741 57.8699C16.2417 57.8699 16.4842 57.5245 16.4842 56.9833C16.4842 56.4191 16.2994 56.0391 15.7972 56.0391C15.3642 56.0391 15.1448 56.4191 15.1448 56.966C15.1448 57.536 15.37 57.8699 15.7741 57.8699Z" fill="white"/>
<path d="M12.2544 55.4855V55.9576H12.2717C12.4506 55.6237 12.6527 55.451 12.9991 55.451C13.0857 55.451 13.1376 55.4567 13.1838 55.474V56.1591H13.1665C12.6527 56.1073 12.2832 56.3779 12.2832 56.9997V58.4391H11.4981V55.4855H12.2544Z" fill="white"/>
<path d="M9.58487 58.5247C8.66697 58.5247 8.03772 57.8453 8.03772 56.9644C8.03772 56.0835 8.66697 55.4042 9.58487 55.4042C10.5028 55.4042 11.132 56.0835 11.132 56.9644C11.132 57.8453 10.5028 58.5247 9.58487 58.5247ZM9.58487 57.9259C10.064 57.9259 10.3354 57.5401 10.3354 56.9644C10.3354 56.3887 10.064 55.9972 9.58487 55.9972C9.09994 55.9972 8.83439 56.3887 8.83439 56.9644C8.83439 57.5401 9.09994 57.9259 9.58487 57.9259Z" fill="white"/>
<path d="M6.18918 56.0284V55.4872H6.59329V55.2224C6.59329 54.5027 7.15326 54.2494 7.90952 54.33V54.9345C7.54005 54.9172 7.37841 54.9633 7.37841 55.2684V55.4872H7.90952V56.0284H7.37841V58.4407H6.59329V56.0284H6.18918Z" fill="white"/>
<path d="M39.0898 50.4677C38.2297 50.4677 37.7505 50.0531 37.7043 49.4256H38.4317C38.4837 49.7653 38.7261 49.915 39.0783 49.915C39.4247 49.915 39.6209 49.7825 39.6209 49.5753C39.6209 49.2932 39.2457 49.2644 38.8416 49.1838C38.3105 49.0801 37.7909 48.9362 37.7909 48.2914C37.7909 47.6523 38.322 47.3472 38.9975 47.3472C39.7768 47.3472 40.2098 47.7329 40.2675 48.3259H39.5574C39.5228 48.0093 39.3207 47.8941 38.9859 47.8941C38.6799 47.8941 38.4779 48.0093 38.4779 48.2223C38.4779 48.4756 38.8705 48.4986 39.2919 48.585C39.7884 48.6886 40.3368 48.8268 40.3368 49.5177C40.3368 50.1107 39.8288 50.4677 39.0898 50.4677Z" fill="white"/>
<path d="M36.1395 50.4677C35.1581 50.4677 34.6039 49.7825 34.6039 48.9017C34.6039 48.0265 35.1985 47.3472 36.0644 47.3472C37.0169 47.3472 37.525 48.0726 37.525 49.1262H35.3774C35.4352 49.581 35.6892 49.8631 36.1337 49.8631C36.4397 49.8631 36.6186 49.725 36.7052 49.5004H37.4788C37.3691 50.0243 36.9015 50.4677 36.1395 50.4677ZM36.076 47.9517C35.6603 47.9517 35.4583 48.1993 35.389 48.585H36.7052C36.6821 48.2108 36.4339 47.9517 36.076 47.9517Z" fill="white"/>
<path d="M32.8213 51.3888C32.0131 51.3888 31.5167 51.0434 31.4358 50.4677H32.2152C32.2787 50.6519 32.4461 50.7958 32.8098 50.7958C33.2543 50.7958 33.4679 50.5828 33.4679 50.1798V49.8574H33.4506C33.2774 50.0531 33.0523 50.2028 32.677 50.2028C32.0189 50.2028 31.3723 49.6847 31.3723 48.7923C31.3723 47.9114 31.9034 47.3472 32.6539 47.3472C33.0234 47.3472 33.2947 47.4911 33.4737 47.7387H33.4852V47.4278H34.2415V50.1568C34.2415 50.5713 34.1087 50.8534 33.8893 51.0549C33.6411 51.2852 33.2601 51.3888 32.8213 51.3888ZM32.8098 49.5753C33.3063 49.5753 33.5083 49.2126 33.5083 48.775C33.5083 48.3432 33.2774 47.9747 32.804 47.9747C32.4057 47.9747 32.1401 48.2856 32.1401 48.7808C32.1401 49.2816 32.4057 49.5753 32.8098 49.5753Z" fill="white"/>
<path d="M30.365 50.3795C30.3188 50.3219 30.2899 50.1837 30.2726 50.0513H30.2611C30.111 50.2758 29.8974 50.4485 29.3893 50.4485C28.7832 50.4485 28.356 50.1319 28.356 49.5446C28.356 48.8941 28.8871 48.6868 29.5452 48.5947C30.0359 48.5256 30.2611 48.4853 30.2611 48.2607C30.2611 48.0477 30.0936 47.9095 29.7646 47.9095C29.3951 47.9095 29.2162 48.042 29.1931 48.3241H28.4945C28.5176 47.8059 28.9044 47.3511 29.7704 47.3511C30.6594 47.3511 31.0173 47.7483 31.0173 48.4392V49.9419C31.0173 50.1664 31.052 50.2988 31.1212 50.3507V50.3795H30.365ZM29.5799 49.9016C30.0301 49.9016 30.2784 49.6252 30.2784 49.3374V48.894C30.1398 48.9747 29.9262 49.0207 29.73 49.0668C29.3201 49.1589 29.118 49.251 29.118 49.5274C29.118 49.8037 29.3028 49.9016 29.5799 49.9016Z" fill="white"/>
<path d="M25.0012 50.379V46.2625H26.8139C27.2931 46.2625 27.651 46.4007 27.8935 46.6482C28.1244 46.8843 28.263 47.2067 28.263 47.5867C28.263 48.3639 27.7492 48.8879 26.8832 48.8879H25.8672V50.379H25.0012ZM25.8672 46.9879V48.2085H26.7331C27.1719 48.2085 27.4028 47.9667 27.4028 47.5925C27.4028 47.2067 27.1603 46.9879 26.7447 46.9879H25.8672Z" fill="white"/>
<path d="M21.1622 51.346V50.7299H21.4393C21.751 50.7299 21.878 50.5687 21.878 50.3269C21.878 50.1657 21.8203 49.9757 21.6529 49.5266L20.8562 47.4252H21.6817L22.1205 48.7552C22.2129 49.0258 22.311 49.4 22.311 49.4H22.3225C22.3225 49.4 22.4034 49.0258 22.4957 48.7552L22.9114 47.4252H23.7023L22.6689 50.4536C22.4438 51.1099 22.2244 51.346 21.624 51.346H21.1622Z" fill="white"/>
<path d="M18.9529 47.9438V47.4256H19.3628V46.5044H20.1306V47.4256H20.6386V47.9438H20.1306V49.5098C20.1306 49.7285 20.2518 49.8034 20.425 49.8034C20.5231 49.8034 20.6559 49.7976 20.6559 49.7976V50.3734C20.6559 50.3734 20.477 50.3849 20.1652 50.3849C19.7842 50.3849 19.3628 50.2352 19.3628 49.6767V47.9438H18.9529Z" fill="white"/>
<path d="M17.834 50.379V47.4255H18.6191V50.379H17.834ZM17.834 46.9649V46.2625H18.6191V46.9649H17.834Z" fill="white"/>
<path d="M15.7846 50.3787L14.757 47.4252H15.5537L16.0271 48.9567C16.1137 49.2388 16.1598 49.4288 16.1598 49.4288H16.1714C16.1714 49.4288 16.2118 49.2388 16.2984 48.9567L16.7833 47.4252H17.5684L16.5351 50.3787H15.7846Z" fill="white"/>
<path d="M13.7085 50.379V47.4255H14.4936V50.379H13.7085ZM13.7085 46.9649V46.2625H14.4936V46.9649H13.7085Z" fill="white"/>
<path d="M11.6174 47.9438V47.4256H12.0273V46.5044H12.7951V47.4256H13.3031V47.9438H12.7951V49.5098C12.7951 49.7285 12.9163 49.8034 13.0895 49.8034C13.1877 49.8034 13.3204 49.7976 13.3204 49.7976V50.3734C13.3204 50.3734 13.1415 50.3849 12.8297 50.3849C12.4487 50.3849 12.0273 50.2352 12.0273 49.6767V47.9438H11.6174Z" fill="white"/>
<path d="M10.1155 50.4677C9.18024 50.4677 8.59717 49.7883 8.59717 48.9074C8.59717 48.0265 9.17447 47.3472 10.075 47.3472C10.8429 47.3472 11.3162 47.7905 11.4201 48.4296H10.6523C10.6004 48.1705 10.3983 47.9747 10.1097 47.9747C9.6363 47.9747 9.39384 48.3374 9.39384 48.9074C9.39384 49.4659 9.61898 49.8401 10.0981 49.8401C10.4157 49.8401 10.6408 49.6731 10.6928 49.3392H11.449C11.3971 49.9668 10.9064 50.4677 10.1155 50.4677Z" fill="white"/>
<path d="M4.81207 50.379L6.24953 46.2625H7.11548L8.57026 50.379H7.69855L7.42144 49.5039H5.93202L5.66069 50.379H4.81207ZM6.49777 47.6788L6.1283 48.8648H7.21939L6.84992 47.6788C6.78065 47.46 6.68251 47.0455 6.68251 47.0455H6.67096C6.67096 47.0455 6.56705 47.46 6.49777 47.6788Z" fill="white"/>
<path d="M81.5392 54.3511C81.493 54.2935 81.4641 54.1554 81.4468 54.0229H81.4353C81.2852 54.2475 81.0716 54.4202 80.5635 54.4202C79.9574 54.4202 79.5302 54.1036 79.5302 53.5163C79.5302 52.8657 80.0613 52.6585 80.7194 52.5663C81.2101 52.4972 81.4353 52.4569 81.4353 52.2324C81.4353 52.0194 81.2678 51.8812 80.9388 51.8812C80.5693 51.8812 80.3903 52.0136 80.3673 52.2957H79.6687C79.6918 51.7776 80.0786 51.3227 80.9446 51.3227C81.8336 51.3227 82.1915 51.72 82.1915 52.4109V53.9136C82.1915 54.1381 82.2262 54.2705 82.2954 54.3223V54.3511H81.5392ZM80.754 53.8733C81.2043 53.8733 81.4526 53.5969 81.4526 53.309V52.8657C81.314 52.9463 81.1004 52.9924 80.9041 53.0384C80.4943 53.1306 80.2922 53.2227 80.2922 53.499C80.2922 53.7754 80.4769 53.8733 80.754 53.8733Z" fill="white"/>
<path d="M78.3839 54.3507V51.3972H79.169V54.3507H78.3839ZM78.3839 50.9366V50.2342H79.169V50.9366H78.3839Z" fill="white"/>
<path d="M76.3325 54.3504L75.3049 51.3969H76.1016L76.575 52.9283C76.6616 53.2104 76.7078 53.4004 76.7078 53.4004H76.7193C76.7193 53.4004 76.7597 53.2104 76.8463 52.9283L77.3313 51.3969H78.1164L77.083 54.3504H76.3325Z" fill="white"/>
<path d="M74.2565 54.3507V51.3972H75.0416V54.3507H74.2565ZM74.2565 50.9366V50.2342H75.0416V50.9366H74.2565Z" fill="white"/>
<path d="M72.9881 51.3963V51.8684H73.0055C73.1844 51.5345 73.3865 51.3618 73.7328 51.3618C73.8194 51.3618 73.8714 51.3675 73.9176 51.3848V52.0699H73.9003C73.3865 52.0181 73.017 52.2887 73.017 52.9105V54.3498H72.2319V51.3963H72.9881Z" fill="white"/>
<path d="M68.9593 50.9366V50.2342H72.2787V50.9366H71.0375V54.3507H70.2005V50.9366H68.9593Z" fill="white"/>
<path d="M160.464 57.1901C160.464 56.5165 160.712 56.3496 161.064 56.0962C161.312 55.9178 161.532 55.7796 161.532 55.4284C161.532 55.0772 161.272 54.8642 160.92 54.8642C160.493 54.8642 160.204 55.1348 160.198 55.5838H159.454C159.471 54.8181 159.973 54.2021 160.914 54.2021C161.797 54.2021 162.317 54.726 162.317 55.4054C162.317 55.9753 162.017 56.2056 161.768 56.3956C161.336 56.7238 161.168 56.7814 161.168 57.1901H160.464ZM160.395 58.3934V57.5586H161.237V58.3934H160.395Z" fill="white"/>
<path d="M157.289 55.4376V55.8406H157.306C157.508 55.5239 157.78 55.357 158.184 55.357C158.796 55.357 159.206 55.8176 159.206 56.4624V58.3911H158.421V56.5775C158.421 56.2609 158.236 56.0363 157.907 56.0363C157.56 56.0363 157.306 56.3127 157.306 56.7157V58.3911H156.521V55.4376H157.289Z" fill="white"/>
<path d="M155.369 58.3931C155.323 58.3356 155.294 58.1974 155.277 58.065H155.265C155.115 58.2895 154.902 58.4622 154.394 58.4622C153.787 58.4622 153.36 58.1456 153.36 57.5583C153.36 56.9077 153.891 56.7005 154.549 56.6084C155.04 56.5393 155.265 56.499 155.265 56.2744C155.265 56.0614 155.098 55.9232 154.769 55.9232C154.399 55.9232 154.22 56.0556 154.197 56.3378H153.499C153.522 55.8196 153.909 55.3648 154.775 55.3648C155.664 55.3648 156.022 55.762 156.022 56.4529V57.9556C156.022 58.1801 156.056 58.3125 156.125 58.3644V58.3931H155.369ZM154.584 57.9153C155.034 57.9153 155.283 57.6389 155.283 57.3511V56.9077C155.144 56.9883 154.93 57.0344 154.734 57.0805C154.324 57.1726 154.122 57.2647 154.122 57.5411C154.122 57.8174 154.307 57.9153 154.584 57.9153Z" fill="white"/>
<path d="M151.51 55.9812V55.44H151.914V55.1752C151.914 54.4555 152.474 54.2022 153.23 54.2828V54.8873C152.861 54.87 152.699 54.9161 152.699 55.2212V55.44H153.23V55.9812H152.699V58.3935H151.914V55.9812H151.51Z" fill="white"/>
<path d="M147.016 58.3927V54.2762H148.91C149.707 54.2762 150.238 54.7368 150.238 55.4219C150.238 55.9055 150.013 56.274 149.482 56.4179V56.4352C149.863 56.5446 150.059 56.7634 150.111 57.2643C150.169 57.8458 150.145 58.2891 150.29 58.3524V58.3927H149.487C149.383 58.3467 149.372 57.8861 149.337 57.4427C149.303 56.9937 149.049 56.7404 148.529 56.7404H147.854V58.3927H147.016ZM147.854 54.9498V56.0955H148.743C149.199 56.0955 149.424 55.8595 149.424 55.5313C149.424 55.1974 149.21 54.9498 148.766 54.9498H147.854Z" fill="white"/>
<path d="M142.911 58.3927L144.348 54.2762H145.214L146.669 58.3927H145.797L145.52 57.5176H144.031L143.759 58.3927H142.911ZM144.596 55.6925L144.227 56.8785H145.318L144.948 55.6925C144.879 55.4737 144.781 55.0592 144.781 55.0592H144.769C144.769 55.0592 144.666 55.4737 144.596 55.6925Z" fill="white"/>
<path d="M141.186 58.4777C140.025 58.4777 139.2 57.5854 139.2 56.3475C139.2 55.127 139.962 54.1943 141.18 54.1943C142.196 54.1943 142.796 54.7988 142.883 55.5818H142.052C141.977 55.1673 141.665 54.8967 141.18 54.8967C140.418 54.8967 140.054 55.53 140.054 56.3475C140.054 57.1881 140.493 57.7926 141.186 57.7926C141.676 57.7926 142.023 57.499 142.075 57.0672H142.895C142.871 57.4299 142.716 57.7811 142.438 58.0402C142.156 58.305 141.757 58.4777 141.186 58.4777Z" fill="white"/>
<path d="M137.273 58.4855C136.153 58.4855 135.518 57.9904 135.489 57.121H136.309C136.367 57.6162 136.649 57.8119 137.238 57.8119C137.665 57.8119 138.041 57.6622 138.041 57.2823C138.041 56.8792 137.648 56.7986 137.019 56.6547C136.28 56.4877 135.605 56.292 135.605 55.4341C135.605 54.6224 136.268 54.2021 137.186 54.2021C138.116 54.2021 138.716 54.6569 138.78 55.486H137.977C137.931 55.0714 137.608 54.8642 137.181 54.8642C136.73 54.8642 136.436 55.0542 136.436 55.3478C136.436 55.6817 136.724 55.7796 137.336 55.912C138.185 56.0962 138.878 56.2977 138.878 57.1844C138.878 58.0192 138.202 58.4855 137.273 58.4855Z" fill="white"/>
<path d="M131.626 58.3927L133.063 54.2762H133.929L135.384 58.3927H134.512L134.235 57.5176H132.746L132.474 58.3927H131.626ZM133.311 55.6925L132.942 56.8785H134.033L133.664 55.6925C133.594 55.4737 133.496 55.0592 133.496 55.0592H133.485C133.485 55.0592 133.381 55.4737 133.311 55.6925Z" fill="white"/>
<path d="M127.968 58.3927V54.2762H128.816L130.19 56.5734C130.323 56.7979 130.479 57.1491 130.479 57.1491H130.491C130.491 57.1491 130.467 56.7231 130.467 56.4352V54.2762H131.293V58.3927H130.485L129.076 56.1186C128.943 55.8998 128.782 55.5486 128.782 55.5486H128.77C128.77 55.5486 128.793 55.9804 128.793 56.2682V58.3927H127.968Z" fill="white"/>
<path d="M125.783 58.3931C125.737 58.3356 125.708 58.1974 125.69 58.065H125.679C125.529 58.2895 125.315 58.4622 124.807 58.4622C124.201 58.4622 123.774 58.1456 123.774 57.5583C123.774 56.9077 124.305 56.7005 124.963 56.6084C125.454 56.5393 125.679 56.499 125.679 56.2744C125.679 56.0614 125.511 55.9232 125.182 55.9232C124.813 55.9232 124.634 56.0556 124.611 56.3378H123.912C123.935 55.8196 124.322 55.3648 125.188 55.3648C126.077 55.3648 126.435 55.762 126.435 56.4529V57.9556C126.435 58.1801 126.47 58.3125 126.539 58.3644V58.3931H125.783ZM124.998 57.9153C125.448 57.9153 125.696 57.6389 125.696 57.3511V56.9077C125.558 56.9883 125.344 57.0344 125.148 57.0805C124.738 57.1726 124.536 57.2647 124.536 57.5411C124.536 57.8174 124.721 57.9153 124.998 57.9153Z" fill="white"/>
<path d="M164.38 47.3767V47.7797H164.397C164.599 47.463 164.871 47.2961 165.275 47.2961C165.887 47.2961 166.297 47.7567 166.297 48.4015V50.3302H165.512V48.5166C165.512 48.2 165.327 47.9754 164.998 47.9754C164.651 47.9754 164.397 48.2518 164.397 48.6548V50.3302H163.612V47.3767H164.38Z" fill="white"/>
<path d="M162.462 50.3323C162.416 50.2747 162.387 50.1365 162.37 50.0041H162.358C162.208 50.2286 161.994 50.4013 161.486 50.4013C160.88 50.4013 160.453 50.0847 160.453 49.4974C160.453 48.8469 160.984 48.6396 161.642 48.5475C162.133 48.4784 162.358 48.4381 162.358 48.2135C162.358 48.0005 162.191 47.8623 161.862 47.8623C161.492 47.8623 161.313 47.9948 161.29 48.2769H160.592C160.615 47.7587 161.002 47.3039 161.867 47.3039C162.757 47.3039 163.114 47.7011 163.114 48.392V49.8947C163.114 50.1192 163.149 50.2517 163.218 50.3035V50.3323H162.462ZM161.677 49.8544C162.127 49.8544 162.376 49.578 162.376 49.2902V48.8469C162.237 48.9275 162.023 48.9735 161.827 49.0196C161.417 49.1117 161.215 49.2038 161.215 49.4802C161.215 49.7565 161.4 49.8544 161.677 49.8544Z" fill="white"/>
<path d="M158.214 46.2153V47.764H158.231C158.445 47.4531 158.687 47.2977 159.092 47.2977C159.703 47.2977 160.113 47.7583 160.113 48.4031V50.3318H159.328V48.5183C159.328 48.2016 159.144 47.9771 158.814 47.9771C158.468 47.9771 158.214 48.2534 158.214 48.6564V50.3318H157.429V46.2153H158.214Z" fill="white"/>
<path d="M155.338 47.8966V47.3784H155.748V46.4572H156.516V47.3784H157.024V47.8966H156.516V49.4626C156.516 49.6813 156.637 49.7562 156.81 49.7562C156.908 49.7562 157.041 49.7504 157.041 49.7504V50.3262C157.041 50.3262 156.862 50.3377 156.55 50.3377C156.169 50.3377 155.748 50.188 155.748 49.6295V47.8966H155.338Z" fill="white"/>
<path d="M153.273 47.3774V47.8495H153.291C153.47 47.5156 153.672 47.3429 154.018 47.3429C154.105 47.3429 154.157 47.3487 154.203 47.3659V48.051H154.186C153.672 47.9992 153.302 48.2698 153.302 48.8916V50.331H152.517V47.3774H153.273Z" fill="white"/>
<path d="M150.768 50.4166C149.787 50.4166 149.233 49.7314 149.233 48.8506C149.233 47.9754 149.827 47.2961 150.693 47.2961C151.646 47.2961 152.154 48.0215 152.154 49.0751H150.006C150.064 49.5299 150.318 49.812 150.763 49.812C151.069 49.812 151.248 49.6739 151.334 49.4493H152.108C151.998 49.9733 151.53 50.4166 150.768 50.4166ZM150.705 47.9006C150.289 47.9006 150.087 48.1482 150.018 48.5339H151.334C151.311 48.1597 151.063 47.9006 150.705 47.9006Z" fill="white"/>
<path d="M147.316 47.8966V47.3784H147.726V46.4572H148.493V47.3784H149.001V47.8966H148.493V49.4626C148.493 49.6813 148.615 49.7562 148.788 49.7562C148.886 49.7562 149.019 49.7504 149.019 49.7504V50.3262C149.019 50.3262 148.84 50.3377 148.528 50.3377C148.147 50.3377 147.726 50.188 147.726 49.6295V47.8966H147.316Z" fill="white"/>
<path d="M145.945 50.4166C145.085 50.4166 144.606 50.002 144.56 49.3745H145.287C145.339 49.7142 145.581 49.8639 145.934 49.8639C146.28 49.8639 146.476 49.7314 146.476 49.5242C146.476 49.2421 146.101 49.2133 145.697 49.1327C145.166 49.029 144.646 48.8851 144.646 48.2403C144.646 47.6012 145.177 47.2961 145.853 47.2961C146.632 47.2961 147.065 47.6818 147.123 48.2748H146.413C146.378 47.9582 146.176 47.843 145.841 47.843C145.535 47.843 145.333 47.9582 145.333 48.1712C145.333 48.4245 145.726 48.4475 146.147 48.5339C146.644 48.6375 147.192 48.7757 147.192 49.4666C147.192 50.0596 146.684 50.4166 145.945 50.4166Z" fill="white"/>
<path d="M143.593 50.3323C143.547 50.2747 143.518 50.1365 143.501 50.0041H143.489C143.339 50.2286 143.126 50.4013 142.618 50.4013C142.012 50.4013 141.584 50.0847 141.584 49.4974C141.584 48.8469 142.115 48.6396 142.774 48.5475C143.264 48.4784 143.489 48.4381 143.489 48.2135C143.489 48.0005 143.322 47.8623 142.993 47.8623C142.623 47.8623 142.445 47.9948 142.421 48.2769H141.723C141.746 47.7587 142.133 47.3039 142.999 47.3039C143.888 47.3039 144.246 47.7011 144.246 48.392V49.8947C144.246 50.1192 144.28 50.2517 144.35 50.3035V50.3323H143.593ZM142.808 49.8544C143.258 49.8544 143.507 49.578 143.507 49.2902V48.8469C143.368 48.9275 143.155 48.9735 142.958 49.0196C142.548 49.1117 142.346 49.2038 142.346 49.4802C142.346 49.7565 142.531 49.8544 142.808 49.8544Z" fill="white"/>
<path d="M139.734 47.9203V47.3791H140.138V47.1143C140.138 46.3946 140.698 46.1413 141.454 46.2219V46.8264C141.085 46.8091 140.923 46.8552 140.923 47.1603V47.3791H141.454V47.9203H140.923V50.3326H140.138V47.9203H139.734Z" fill="white"/>
<path d="M138.428 50.3315H137.672V49.9861H137.655C137.453 50.2567 137.222 50.4121 136.806 50.4121C136.148 50.4121 135.779 49.9919 135.779 49.347V47.378H136.558V49.2146C136.558 49.5601 136.714 49.75 137.049 49.75C137.418 49.75 137.643 49.4737 137.643 49.0822V47.378H138.428V50.3315Z" fill="white"/>
<path d="M133.891 50.4166C132.973 50.4166 132.344 49.7372 132.344 48.8563C132.344 47.9754 132.973 47.2961 133.891 47.2961C134.809 47.2961 135.438 47.9754 135.438 48.8563C135.438 49.7372 134.809 50.4166 133.891 50.4166ZM133.891 49.8178C134.37 49.8178 134.641 49.4321 134.641 48.8563C134.641 48.2806 134.37 47.8891 133.891 47.8891C133.406 47.8891 133.14 48.2806 133.14 48.8563C133.14 49.4321 133.406 49.8178 133.891 49.8178Z" fill="white"/>
<path d="M129.766 51.2988V50.6827H130.043C130.355 50.6827 130.482 50.5215 130.482 50.2797C130.482 50.1185 130.424 49.9285 130.257 49.4795L129.46 47.378H130.286L130.725 48.708C130.817 48.9786 130.915 49.3528 130.915 49.3528H130.927C130.927 49.3528 131.007 48.9786 131.1 48.708L131.515 47.378H132.306L131.273 50.4064C131.048 51.0627 130.828 51.2988 130.228 51.2988H129.766Z" fill="white"/>
<path d="M126.984 50.4166C126.002 50.4166 125.448 49.7314 125.448 48.8506C125.448 47.9754 126.043 47.2961 126.909 47.2961C127.861 47.2961 128.369 48.0215 128.369 49.0751H126.222C126.28 49.5299 126.534 49.812 126.978 49.812C127.284 49.812 127.463 49.6739 127.55 49.4493H128.323C128.214 49.9733 127.746 50.4166 126.984 50.4166ZM126.92 47.9006C126.505 47.9006 126.303 48.1482 126.233 48.5339H127.55C127.527 48.1597 127.278 47.9006 126.92 47.9006Z" fill="white"/>
<path d="M124.409 47.3774V47.8495H124.426C124.605 47.5156 124.807 47.3429 125.154 47.3429C125.24 47.3429 125.292 47.3487 125.338 47.3659V48.051H125.321C124.807 47.9992 124.438 48.2698 124.438 48.8916V50.331H123.653V47.3774H124.409Z" fill="white"/>
<path d="M119.611 50.3318L121.049 46.2153H121.915L123.369 50.3318H122.498L122.221 49.4567H120.731L120.46 50.3318H119.611ZM121.297 47.6316L120.927 48.8176H122.019L121.649 47.6316C121.58 47.4128 121.482 46.9983 121.482 46.9983H121.47C121.47 46.9983 121.366 47.4128 121.297 47.6316Z" fill="white"/>
<path d="M252.213 54.6146V51.6611H252.969V52.0584H252.987C253.148 51.7878 253.437 51.5805 253.847 51.5805C254.222 51.5805 254.522 51.7878 254.667 52.0987H254.678C254.88 51.7763 255.192 51.5805 255.567 51.5805C256.191 51.5805 256.543 51.9835 256.543 52.6283V54.6146H255.758V52.7608C255.758 52.4268 255.59 52.2541 255.302 52.2541C254.972 52.2541 254.77 52.5074 254.77 52.8989V54.6146H253.985V52.7608C253.985 52.4268 253.818 52.2541 253.529 52.2541C253.212 52.2541 252.998 52.5074 252.998 52.8989V54.6146H252.213Z" fill="white"/>
<path d="M251.061 54.6128C251.015 54.5552 250.986 54.417 250.969 54.2846H250.957C250.807 54.5092 250.593 54.6819 250.085 54.6819C249.479 54.6819 249.052 54.3652 249.052 53.778C249.052 53.1274 249.583 52.9201 250.241 52.828C250.732 52.7589 250.957 52.7186 250.957 52.4941C250.957 52.281 250.79 52.1429 250.46 52.1429C250.091 52.1429 249.912 52.2753 249.889 52.5574H249.19C249.214 52.0392 249.6 51.5844 250.466 51.5844C251.355 51.5844 251.713 51.9817 251.713 52.6726V54.1752C251.713 54.3998 251.748 54.5322 251.817 54.584V54.6128H251.061ZM250.276 54.1349C250.726 54.1349 250.974 53.8586 250.974 53.5707V53.1274C250.836 53.208 250.622 53.254 250.426 53.3001C250.016 53.3922 249.814 53.4843 249.814 53.7607C249.814 54.037 249.999 54.1349 250.276 54.1349Z" fill="white"/>
<path d="M247.448 54.701C246.467 54.701 245.912 54.0159 245.912 53.135C245.912 52.2599 246.507 51.5805 247.373 51.5805C248.325 51.5805 248.833 52.3059 248.833 53.3595H246.686C246.744 53.8144 246.998 54.0965 247.442 54.0965C247.748 54.0965 247.927 53.9583 248.014 53.7338H248.787C248.678 54.2577 248.21 54.701 247.448 54.701ZM247.384 52.185C246.969 52.185 246.767 52.4326 246.697 52.8183H248.014C247.991 52.4441 247.742 52.185 247.384 52.185Z" fill="white"/>
<path d="M243.043 51.1982V50.4958H246.362V51.1982H245.121V54.6124H244.284V51.1982H243.043Z" fill="white"/>
<path fill-rule="evenodd" clip-rule="evenodd" d="M166.85 11.9467H22.2467V11.0933H166.85V11.9467Z" fill="white"/>
<path fill-rule="evenodd" clip-rule="evenodd" d="M303.542 12.0273L216.353 11.725L216.355 11.0342L303.544 11.3364L303.542 12.0273Z" fill="white"/>
<path fill-rule="evenodd" clip-rule="evenodd" d="M24.7115 36.0667L22.4932 38.2973C22.3571 38.4342 22.1364 38.4342 22.0002 38.2973L19.7819 36.0667C19.6458 35.9298 19.6458 35.7078 19.7819 35.5709C19.918 35.4341 20.1387 35.4341 20.2749 35.5709L21.8981 37.2033L21.8981 11.0933H22.5953L22.5953 37.2033L24.2186 35.5709C24.3547 35.4341 24.5754 35.4341 24.7115 35.5709C24.8477 35.7078 24.8477 35.9298 24.7115 36.0667Z" fill="white"/>
<path fill-rule="evenodd" clip-rule="evenodd" d="M78.6171 36.0667L76.3987 38.2973C76.2626 38.4342 76.0419 38.4342 75.9057 38.2973L73.6874 36.0667C73.5513 35.9298 73.5513 35.7078 73.6874 35.5709C73.8235 35.4341 74.0442 35.4341 74.1804 35.5709L75.8036 37.2033V11.0933H76.5008V37.2033L78.1241 35.5709C78.2602 35.4341 78.4809 35.4341 78.6171 35.5709C78.7532 35.7078 78.7532 35.9298 78.6171 36.0667Z" fill="white"/>
<path fill-rule="evenodd" clip-rule="evenodd" d="M145.357 36.0667L143.139 38.2973C143.003 38.4342 142.782 38.4342 142.646 38.2973L140.428 36.0667C140.291 35.9298 140.291 35.7078 140.428 35.5709C140.564 35.4341 140.784 35.4341 140.921 35.5709L142.544 37.2033V11.0933H143.241V37.2033L144.864 35.5709C145 35.4341 145.221 35.4341 145.357 35.5709C145.493 35.7078 145.493 35.9298 145.357 36.0667Z" fill="white"/>
<path fill-rule="evenodd" clip-rule="evenodd" d="M252.313 36.0667L250.094 38.2973C249.958 38.4342 249.737 38.4342 249.601 38.2973L247.383 36.0667C247.247 35.9298 247.247 35.7078 247.383 35.5709C247.519 35.4341 247.74 35.4341 247.876 35.5709L249.499 37.2033V11.0933H250.196V37.2033L251.82 35.5709C251.956 35.4341 252.176 35.4341 252.313 35.5709C252.449 35.7078 252.449 35.9298 252.313 36.0667Z" fill="white"/>
<path d="M199.637 9.12853V9.99075H199.671C200.059 9.33856 200.679 8.97377 201.511 8.97377C202.785 8.97377 203.55 9.75862 203.55 11.0298V15.0315H202.142V11.262C202.142 10.5656 201.732 10.1345 201.012 10.1345C200.225 10.1345 199.671 10.7314 199.671 11.5715V15.0315H198.263V9.12853H199.637Z" fill="white"/>
<path d="M195.556 8.16799V6.80833H196.997V8.16799H195.556ZM195.578 15.0326V9.12971H196.986V15.0326H195.578Z" fill="white"/>
<path d="M193.137 15.0315C193.037 14.8988 192.96 14.6667 192.938 14.2687H192.915C192.528 14.7883 191.995 15.1752 191.053 15.1752C189.901 15.1752 189.036 14.5782 189.036 13.4286C189.036 12.091 190.056 11.7705 191.463 11.6047C192.439 11.4831 192.927 11.3283 192.927 10.7977C192.927 10.2892 192.572 9.94654 191.862 9.94654C191.076 9.94654 190.688 10.3113 190.654 10.8972H189.324C189.369 9.89127 190.167 8.97377 191.851 8.97377C192.528 8.97377 193.048 9.07326 193.436 9.31645C193.991 9.64808 194.279 10.2118 194.279 10.9967V14.1029C194.279 14.5893 194.367 14.8435 194.5 14.932V15.0315H193.137ZM191.463 14.2134C192.428 14.2134 192.96 13.5502 192.96 12.8869V12.0137C192.683 12.1905 192.239 12.3121 191.807 12.4006C190.942 12.5664 190.444 12.7432 190.444 13.3954C190.444 14.0255 190.92 14.2134 191.463 14.2134Z" fill="white"/>
<path d="M179.649 15.0326V6.80833H181.677L183.029 10.7215C183.351 11.6832 183.75 13.485 183.75 13.485H183.783C183.783 13.485 184.182 11.6943 184.492 10.7215L185.822 6.80833H187.895V15.0326H186.465V10.7436C186.465 9.84823 186.565 8.17905 186.565 8.17905H186.543C186.543 8.17905 186.199 9.69347 185.933 10.5115L184.37 15.0326H183.129L181.555 10.5115C181.289 9.69347 180.945 8.17905 180.945 8.17905H180.923C180.923 8.17905 181.023 9.84823 181.023 10.7436V15.0326H179.649Z" fill="white"/>
<path d="M312.609 54.701C311.749 54.701 311.27 54.2865 311.223 53.6589H311.951C312.003 53.9986 312.245 54.1483 312.597 54.1483C312.944 54.1483 313.14 54.0159 313.14 53.8086C313.14 53.5265 312.765 53.4977 312.361 53.4171C311.83 53.3135 311.31 53.1695 311.31 52.5247C311.31 51.8856 311.841 51.5805 312.517 51.5805C313.296 51.5805 313.729 51.9663 313.787 52.5593H313.077C313.042 52.2426 312.84 52.1275 312.505 52.1275C312.199 52.1275 311.997 52.2426 311.997 52.4556C311.997 52.709 312.39 52.732 312.811 52.8183C313.307 52.922 313.856 53.0602 313.856 53.751C313.856 54.344 313.348 54.701 312.609 54.701Z" fill="white"/>
<path d="M309.808 54.701C308.948 54.701 308.468 54.2865 308.422 53.6589H309.15C309.202 53.9986 309.444 54.1483 309.796 54.1483C310.143 54.1483 310.339 54.0159 310.339 53.8086C310.339 53.5265 309.964 53.4977 309.56 53.4171C309.028 53.3135 308.509 53.1695 308.509 52.5247C308.509 51.8856 309.04 51.5805 309.715 51.5805C310.495 51.5805 310.928 51.9663 310.985 52.5593H310.275C310.241 52.2426 310.039 52.1275 309.704 52.1275C309.398 52.1275 309.196 52.2426 309.196 52.4556C309.196 52.709 309.588 52.732 310.01 52.8183C310.506 52.922 311.055 53.0602 311.055 53.751C311.055 54.344 310.547 54.701 309.808 54.701Z" fill="white"/>
<path d="M306.857 54.701C305.876 54.701 305.322 54.0159 305.322 53.135C305.322 52.2599 305.916 51.5805 306.782 51.5805C307.735 51.5805 308.243 52.3059 308.243 53.3595H306.095C306.153 53.8144 306.407 54.0965 306.852 54.0965C307.158 54.0965 307.337 53.9583 307.423 53.7338H308.197C308.087 54.2577 307.619 54.701 306.857 54.701ZM306.794 52.185C306.378 52.185 306.176 52.4326 306.107 52.8183H307.423C307.4 52.4441 307.152 52.185 306.794 52.185Z" fill="white"/>
<path d="M303.79 54.701C302.855 54.701 302.272 54.0216 302.272 53.1408C302.272 52.2599 302.849 51.5805 303.75 51.5805C304.518 51.5805 304.991 52.0238 305.095 52.6629H304.327C304.275 52.4038 304.073 52.2081 303.785 52.2081C303.311 52.2081 303.069 52.5708 303.069 53.1408C303.069 53.6992 303.294 54.0734 303.773 54.0734C304.091 54.0734 304.316 53.9065 304.368 53.5726H305.124C305.072 54.2001 304.581 54.701 303.79 54.701Z" fill="white"/>
<path d="M300.504 54.701C299.586 54.701 298.957 54.0216 298.957 53.1408C298.957 52.2599 299.586 51.5805 300.504 51.5805C301.422 51.5805 302.051 52.2599 302.051 53.1408C302.051 54.0216 301.422 54.701 300.504 54.701ZM300.504 54.1022C300.983 54.1022 301.254 53.7165 301.254 53.1408C301.254 52.565 300.983 52.1735 300.504 52.1735C300.019 52.1735 299.753 52.565 299.753 53.1408C299.753 53.7165 300.019 54.1022 300.504 54.1022Z" fill="white"/>
<path d="M297.919 51.658V52.1301H297.936C298.115 51.7961 298.317 51.6234 298.664 51.6234C298.75 51.6234 298.802 51.6292 298.849 51.6465V52.3316H298.831C298.317 52.2798 297.948 52.5504 297.948 53.1722V54.6115H297.163V51.658H297.919Z" fill="white"/>
<path d="M293.55 54.6124V50.4958H295.363C295.842 50.4958 296.2 50.634 296.442 50.8816C296.673 51.1176 296.812 51.44 296.812 51.82C296.812 52.5973 296.298 53.1212 295.432 53.1212H294.416V54.6124H293.55ZM294.416 51.2213V52.4418H295.282C295.72 52.4418 295.951 52.2 295.951 51.8258C295.951 51.44 295.709 51.2213 295.293 51.2213H294.416Z" fill="white"/>
</svg>
