<svg width="137" height="72" viewBox="0 0 137 72" fill="none" xmlns="http://www.w3.org/2000/svg">
<path d="M53.0344 53.6247L68.2083 62.7683L75.0805 51.394C72.6945 50.9192 69.4838 51.1069 64.6237 51.5597C59.2029 52.0566 55.0576 52.1781 53.0234 53.6247H53.0344Z" fill="white"/>
<path d="M66.4594 72C66.1845 72 65.9097 72 65.6348 71.9669C56.5305 71.2049 47.2942 70.8184 38.1569 70.8184H37.3322C28.4808 70.8405 19.5304 71.227 10.723 71.9669C10.4481 71.989 10.1732 72 9.89835 72C6.61068 72 3.50994 70.3546 1.66268 67.5718C-0.338505 64.5571 -0.54742 60.692 1.11291 57.4896L22.2244 16.6307C23.7088 13.7485 26.5126 11.7718 29.7233 11.3521C35.375 10.6123 41.1367 10.1485 46.8214 9.99387C48.3388 9.94969 49.8232 9.93865 51.2856 9.93865C55.134 9.93865 59.0045 10.0712 62.8529 10.3472L64.2383 7.37669C65.6348 4.38405 68.4166 2.29693 71.6603 1.77791C73.9364 1.4135 76.2455 1.10429 78.5545 0.850307C83.5245 0.287117 89.748 0 96.5433 0C100.645 0 104.977 0.110429 109.43 0.320245C115.412 0.607362 121.503 1.07117 127.529 1.7227C130.772 2.06503 133.631 3.99755 135.182 6.87976C136.732 9.76196 136.776 13.2184 135.281 16.1337L112.443 60.9129C110.717 64.3031 107.264 66.3239 103.635 66.3239C102.646 66.3239 101.645 66.1804 100.667 65.8601C92.9587 63.4196 84.9539 61.9509 76.8942 61.4761C76.7073 61.4761 76.5204 61.454 76.3224 61.4429C76.3994 62.6687 76.2455 63.9276 75.8496 65.1534C74.5082 69.2614 70.6927 72 66.4484 72H66.4594Z" fill="white"/>
<path d="M31.0106 21.2138L9.91016 62.0617C18.3877 61.3549 27.558 60.9132 37.3221 60.8801C47.7458 60.858 57.4879 61.3108 66.4602 62.0617C61.6002 59.0801 56.7512 56.0874 51.8911 53.1059C57.5758 52.0789 64.7889 51.2286 73.1455 51.3832C74.564 51.4052 76.0044 51.4605 77.4888 51.5488C88.1435 52.1782 97.0389 54.2874 103.658 56.3746C111.267 41.4445 118.887 26.5255 126.496 11.5954C119.492 10.8445 113.521 10.458 108.98 10.2371C91.783 9.41996 81.986 10.458 79.6769 10.723C76.972 11.0212 74.7509 11.3525 73.2225 11.5954C71.7821 14.6874 70.3307 17.7795 68.8903 20.8715C62.4799 20.1427 55.1678 19.712 47.1191 19.9328C41.3024 20.0874 35.9256 20.5623 31.0326 21.2028L31.0106 21.2138Z" fill="white"/>
<path d="M66.4594 72C66.1845 72 65.9097 72 65.6348 71.9669C56.5305 71.2049 47.2942 70.8184 38.1569 70.8184H37.3322C28.4808 70.8405 19.5304 71.227 10.723 71.9669C10.4481 71.989 10.1732 72 9.89835 72C6.61068 72 3.50994 70.3546 1.66268 67.5718C-0.338505 64.5571 -0.54742 60.692 1.11291 57.4896L22.2244 16.6307C23.7088 13.7485 26.5126 11.7718 29.7233 11.3521C35.375 10.6123 41.1367 10.1485 46.8214 9.99387C48.3388 9.94969 49.8232 9.93865 51.2856 9.93865C55.134 9.93865 59.0045 10.0712 62.8529 10.3472L64.2383 7.37669C65.6348 4.38405 68.4166 2.29693 71.6603 1.77791C73.9364 1.4135 76.2455 1.10429 78.5545 0.850307C83.5245 0.287117 89.748 0 96.5433 0C100.645 0 104.977 0.110429 109.43 0.320245C115.412 0.607362 121.503 1.07117 127.529 1.7227C130.772 2.06503 133.631 3.99755 135.182 6.87976C136.732 9.76196 136.776 13.2184 135.281 16.1337L112.443 60.9129C110.717 64.3031 107.264 66.3239 103.635 66.3239C102.646 66.3239 101.645 66.1804 100.667 65.8601C92.9587 63.4196 84.9539 61.9509 76.8942 61.4761C76.7073 61.4761 76.5204 61.454 76.3224 61.4429C76.3994 62.6687 76.2455 63.9276 75.8496 65.1534C74.5082 69.2614 70.6927 72 66.4484 72H66.4594Z" fill="white"/>
<path d="M31.0106 21.2138L9.91016 62.0617C18.3877 61.3549 27.558 60.9132 37.3221 60.8801C47.7458 60.858 57.4879 61.3108 66.4602 62.0617C61.6002 59.0801 56.7512 56.0874 51.8911 53.1059C57.5758 52.0789 64.7889 51.2286 73.1455 51.3832C74.564 51.4052 76.0044 51.4605 77.4888 51.5488C88.1435 52.1782 97.0389 54.2874 103.658 56.3746C111.267 41.4445 118.887 26.5255 126.496 11.5954C119.492 10.8445 113.521 10.458 108.98 10.2371C91.783 9.41996 81.986 10.458 79.6769 10.723C76.972 11.0212 74.7509 11.3525 73.2225 11.5954C71.7821 14.6874 70.3307 17.7795 68.8903 20.8715C62.4799 20.1427 55.1678 19.712 47.1191 19.9328C41.3024 20.0874 35.9256 20.5623 31.0326 21.2028L31.0106 21.2138Z" fill="white"/>
<path d="M54.2668 58.4499C52.7054 58.4499 51.1221 58.0745 49.6377 57.2904C44.8106 54.7174 42.9634 48.7101 45.5253 43.8512L60.1054 16.2107C62.6674 11.3628 68.649 9.50761 73.487 12.0806C78.3141 14.6536 80.1613 20.672 77.5994 25.5199L63.0193 53.1604C61.238 56.5285 57.8184 58.4499 54.2668 58.4499Z" fill="white"/>
<path d="M54.2773 48.5116C59.1374 39.3018 63.9974 30.092 68.8574 20.8711L54.2773 48.5116Z" fill="white"/>
<path d="M66.646 71.4371C64.8977 71.4371 63.1165 70.9954 61.5111 70.0788C56.838 67.4174 55.3536 61.6972 58.2015 57.3132L64.9307 46.9328C67.7676 42.5487 73.8591 41.1573 78.5322 43.8187C83.2053 46.48 84.6897 52.2003 81.8419 56.5843L75.1126 66.9647C73.2544 69.8469 69.9887 71.426 66.646 71.426V71.4371Z" fill="white"/>
<path d="M53.1985 51.968L68.3723 61.1115L75.2446 49.7373C72.8585 49.2624 69.6478 49.4502 64.7878 49.9029C59.367 50.3999 55.2217 50.5213 53.1875 51.968H53.1985Z" fill="#0C8343"/>
<path d="M31.1747 19.5459L10.0742 60.3937C18.5518 59.687 27.7221 59.2453 37.4861 59.2121C47.9099 59.19 57.6519 59.6428 66.6243 60.3937C61.7643 57.4121 56.9152 54.4195 52.0552 51.4379C57.7399 50.4109 64.953 49.5606 73.3096 49.7152C74.728 49.7373 76.1684 49.7925 77.6528 49.8808C88.3075 50.5103 97.2029 52.6195 103.822 54.7066C111.431 39.7765 119.051 24.8575 126.66 9.92745C119.656 9.17653 113.685 8.79003 109.144 8.56917C91.947 7.75199 82.15 8.79003 79.841 9.05506C77.136 9.35322 74.915 9.68451 73.3866 9.92745C71.9462 13.0195 70.4947 16.1115 69.0543 19.2035C62.6439 18.4747 55.3319 18.044 47.2831 18.2649C41.4665 18.4195 36.0897 18.8943 31.1967 19.5348L31.1747 19.5459Z" fill="#03AF51"/>
<path d="M31.1747 19.5459L10.0742 60.3937C18.5518 59.687 27.7221 59.2452 37.4861 59.2121C47.9099 59.19 57.6519 59.6428 66.6243 60.3937C61.7643 57.4121 56.9152 54.4195 52.0552 51.4379C57.7399 50.4109 64.953 49.5606 73.3096 49.7152C74.728 49.7373 76.1684 49.7925 77.6528 49.8808C88.3075 50.5103 97.2029 52.6195 103.822 54.7066C111.431 39.7765 119.051 24.8575 126.66 9.92745C119.656 9.17653 113.685 8.79003 109.144 8.56917C91.947 7.75199 82.15 8.79003 79.841 9.05506C77.136 9.35322 74.915 9.68451 73.3866 9.92745C71.9462 13.0195 70.4947 16.1115 69.0543 19.2035C62.6439 18.4747 55.3319 18.044 47.2831 18.2649C41.4665 18.4195 36.0897 18.8943 31.1967 19.5348L31.1747 19.5459Z" stroke="white" stroke-width="1.07" stroke-miterlimit="10"/>
<path d="M54.4414 46.8553C59.3014 37.6455 64.1615 28.4357 69.0215 19.2148" stroke="white" stroke-width="1.07" stroke-miterlimit="10"/>
<path d="M75.2566 49.771L68.5273 60.8802" stroke="white" stroke-width="1.07" stroke-miterlimit="10"/>
</svg>
