<svg width="138" height="73" viewBox="0 0 138 73" fill="none" xmlns="http://www.w3.org/2000/svg">
<path d="M53.6674 54.264L69.0222 63.5166L75.9763 52.0067C73.5618 51.5262 70.3129 51.7162 65.3949 52.1743C59.9094 52.6772 55.7147 52.8001 53.6562 54.264H53.6674Z" fill="white"/>
<path d="M67.2519 72.8585C66.9737 72.8585 66.6956 72.8585 66.4174 72.825C57.2045 72.054 47.8581 71.6628 38.6119 71.6628H37.7774C28.8204 71.6852 19.7633 72.0763 10.8509 72.825C10.5727 72.8474 10.2945 72.8585 10.0164 72.8585C6.68951 72.8585 3.55179 71.1935 1.68251 68.3775C-0.342541 65.3268 -0.553947 61.4157 1.12618 58.1751L22.4894 16.829C23.9915 13.9124 26.8288 11.9121 30.0777 11.4875C35.7968 10.7388 41.6272 10.2695 47.3797 10.113C48.9152 10.0683 50.4173 10.0572 51.8971 10.0572C55.7914 10.0572 59.708 10.1913 63.6024 10.4706L65.0043 7.46465C66.4174 4.43632 69.2325 2.32432 72.5148 1.79911C74.818 1.43035 77.1546 1.11746 79.4912 0.860446C84.5205 0.29054 90.8182 0 97.6944 0C101.845 0 106.229 0.111746 110.735 0.324064C116.788 0.614604 122.952 1.08394 129.049 1.74324C132.332 2.08965 135.225 4.04521 136.794 6.96179C138.362 9.87837 138.407 13.376 136.894 16.3261L113.784 61.6392C112.037 65.0698 108.543 67.1148 104.871 67.1148C103.87 67.1148 102.857 66.9695 101.867 66.6454C94.0672 64.1758 85.9669 62.6896 77.8111 62.2091C77.6219 62.2091 77.4328 62.1868 77.2325 62.1756C77.3104 63.416 77.1546 64.6899 76.7541 65.9303C75.3966 70.0872 71.5357 72.8585 67.2408 72.8585H67.2519Z" fill="white"/>
<path d="M31.3794 21.4665L10.0273 62.8015C18.606 62.0863 27.8856 61.6393 37.7661 61.6058C48.3142 61.5834 58.1724 62.0416 67.2517 62.8015C62.3338 59.7843 57.4269 56.756 52.5089 53.7389C58.2614 52.6996 65.5605 51.8392 74.0167 51.9956C75.4521 52.018 76.9097 52.0738 78.4118 52.1632C89.1935 52.8002 98.195 54.9345 104.893 57.0465C112.593 41.9385 120.304 26.8415 128.003 11.7335C120.916 10.9736 114.874 10.5825 110.279 10.359C92.8764 9.53205 82.9626 10.5825 80.626 10.8507C77.8888 11.1524 75.6412 11.4876 74.0946 11.7335C72.637 14.8623 71.1683 17.9912 69.7107 21.1201C63.2239 20.3826 55.8247 19.9468 47.68 20.1703C41.7939 20.3267 36.353 20.8072 31.4016 21.4554L31.3794 21.4665Z" fill="white"/>
<path d="M67.2519 72.8585C66.9737 72.8585 66.6956 72.8585 66.4174 72.825C57.2045 72.054 47.8581 71.6628 38.6119 71.6628H37.7774C28.8204 71.6852 19.7633 72.0763 10.8509 72.825C10.5727 72.8474 10.2945 72.8585 10.0164 72.8585C6.68951 72.8585 3.55179 71.1935 1.68251 68.3775C-0.342541 65.3268 -0.553947 61.4157 1.12618 58.1751L22.4894 16.829C23.9915 13.9124 26.8288 11.9121 30.0777 11.4875C35.7968 10.7388 41.6272 10.2695 47.3797 10.113C48.9152 10.0683 50.4173 10.0572 51.8971 10.0572C55.7914 10.0572 59.708 10.1913 63.6024 10.4706L65.0043 7.46465C66.4174 4.43632 69.2325 2.32432 72.5148 1.79911C74.818 1.43035 77.1546 1.11746 79.4912 0.860446C84.5205 0.29054 90.8182 0 97.6944 0C101.845 0 106.229 0.111746 110.735 0.324064C116.788 0.614604 122.952 1.08394 129.049 1.74324C132.332 2.08965 135.225 4.04521 136.794 6.96179C138.362 9.87837 138.407 13.376 136.894 16.3261L113.784 61.6392C112.037 65.0698 108.543 67.1148 104.871 67.1148C103.87 67.1148 102.857 66.9695 101.867 66.6454C94.0672 64.1758 85.9669 62.6896 77.8111 62.2091C77.6219 62.2091 77.4328 62.1868 77.2325 62.1756C77.3104 63.416 77.1546 64.6899 76.7541 65.9303C75.3966 70.0872 71.5357 72.8585 67.2408 72.8585H67.2519Z" fill="white"/>
<path d="M31.3794 21.4665L10.0273 62.8015C18.606 62.0863 27.8856 61.6393 37.7661 61.6058C48.3142 61.5834 58.1724 62.0416 67.2517 62.8015C62.3338 59.7843 57.4269 56.756 52.5089 53.7389C58.2614 52.6996 65.5605 51.8392 74.0167 51.9956C75.4521 52.018 76.9097 52.0738 78.4118 52.1632C89.1935 52.8002 98.195 54.9345 104.893 57.0465C112.593 41.9385 120.304 26.8415 128.003 11.7335C120.916 10.9736 114.874 10.5825 110.279 10.359C92.8764 9.53205 82.9626 10.5825 80.626 10.8507C77.8888 11.1524 75.6412 11.4876 74.0946 11.7335C72.637 14.8623 71.1683 17.9912 69.7107 21.1201C63.2239 20.3826 55.8247 19.9468 47.68 20.1703C41.7939 20.3267 36.353 20.8072 31.4016 21.4554L31.3794 21.4665Z" fill="white"/>
<path d="M54.9122 59.147C53.3322 59.147 51.7299 58.7671 50.2278 57.9737C45.3432 55.37 43.4739 49.291 46.0665 44.3742L60.8204 16.4041C63.4129 11.4985 69.4658 9.62113 74.3615 12.2248C79.2462 14.8285 81.1154 20.9187 78.5229 25.8243L63.769 53.7944C61.9664 57.2027 58.5061 59.147 54.9122 59.147Z" fill="white"/>
<path d="M54.9219 49.0902C59.8399 39.7706 64.7578 30.4509 69.6758 21.1201L54.9219 49.0902Z" fill="white"/>
<path d="M67.4398 72.2884C65.6706 72.2884 63.8681 71.8414 62.2436 70.9139C57.5148 68.2208 56.0127 62.4324 58.8945 57.996L65.704 47.4919C68.5747 43.0556 74.7389 41.6476 79.4677 44.3406C84.1965 47.0337 85.6986 52.8222 82.8168 57.2585L76.0073 67.7626C74.1269 70.6792 70.8223 72.2772 67.4398 72.2772V72.2884Z" fill="white"/>
<path d="M53.6674 53.9066L69.0222 63.1591L75.9763 51.6493C73.5618 51.1688 70.3129 51.3587 65.3949 51.8169C59.9094 52.3198 55.7147 52.4427 53.6562 53.9066H53.6674Z" fill="#BC462D"/>
<path d="M31.3794 21.0979L10.0273 62.4328C18.606 61.7176 27.8856 61.2707 37.7661 61.2371C48.3142 61.2148 58.1724 61.673 67.2517 62.4328C62.3338 59.4157 57.4269 56.3874 52.5089 53.3702C58.2614 52.331 65.5605 51.4705 74.0167 51.627C75.4521 51.6493 76.9097 51.7052 78.4118 51.7946C89.1935 52.4315 98.195 54.5659 104.893 56.6779C112.593 41.5698 120.304 26.4729 128.003 11.3648C120.916 10.6049 114.874 10.2138 110.279 9.99032C92.8764 9.1634 82.9626 10.2138 80.626 10.482C77.8888 10.7837 75.6412 11.119 74.0946 11.3648C72.637 14.4937 71.1683 17.6226 69.7107 20.7515C63.2239 20.014 55.8247 19.5781 47.68 19.8016C41.7939 19.9581 36.353 20.4386 31.4016 21.0867L31.3794 21.0979Z" fill="#E53B2C"/>
<path d="M31.3794 21.0979L10.0273 62.4328C18.606 61.7176 27.8856 61.2707 37.7661 61.2371C48.3142 61.2148 58.1724 61.6729 67.2517 62.4328C62.3338 59.4157 57.4269 56.3874 52.5089 53.3702C58.2614 52.331 65.5605 51.4705 74.0167 51.627C75.4521 51.6493 76.9097 51.7052 78.4118 51.7946C89.1935 52.4315 98.195 54.5659 104.893 56.6779C112.593 41.5698 120.304 26.4729 128.003 11.3648C120.916 10.6049 114.874 10.2138 110.279 9.99032C92.8764 9.1634 82.9626 10.2138 80.626 10.482C77.8888 10.7837 75.6412 11.119 74.0946 11.3648C72.637 14.4937 71.1683 17.6226 69.7107 20.7515C63.2239 20.014 55.8247 19.5781 47.6799 19.8016C41.7939 19.9581 36.353 20.4386 31.4016 21.0867L31.3794 21.0979Z" stroke="white" stroke-width="1.07" stroke-miterlimit="10"/>
<path d="M54.9219 48.7328C59.8399 39.4131 64.7578 30.0935 69.6758 20.7627" stroke="white" stroke-width="1.07" stroke-miterlimit="10"/>
<path d="M75.9853 51.6826L69.1758 62.9243" stroke="white" stroke-width="1.07" stroke-miterlimit="10"/>
</svg>
